<svg width="40" height="41" viewBox="0 0 40 41" fill="none" xmlns="http://www.w3.org/2000/svg">
<mask id="mask0_4368_817" style="mask-type:alpha" maskUnits="userSpaceOnUse" x="0" y="0" width="40" height="41">
<rect y="0.615479" width="40" height="40" fill="#D9D9D9"/>
</mask>
<g mask="url(#mask0_4368_817)">
<path d="M12.0346 15.4553C11.8944 15.4553 11.76 15.511 11.6609 15.6101C11.5618 15.7092 11.5061 15.8437 11.5061 15.9838V26.5601C11.5061 26.7004 11.5618 26.8349 11.6611 26.9341C11.7603 27.0333 11.8948 27.0891 12.0351 27.0891C12.1754 27.0891 12.31 27.0333 12.4092 26.9341C12.5084 26.8349 12.5641 26.7004 12.5641 26.5601V15.9838C12.5641 15.9143 12.5504 15.8455 12.5238 15.7813C12.4972 15.7171 12.4582 15.6588 12.409 15.6097C12.3598 15.5606 12.3014 15.5217 12.2372 15.4952C12.1729 15.4687 12.1041 15.4552 12.0346 15.4553Z" fill="#4F4F4F"/>
<path d="M14.1493 15.4553C14.0092 15.4553 13.8748 15.511 13.7756 15.6101C13.6765 15.7092 13.6208 15.8437 13.6208 15.9838V24.444C13.6208 24.5843 13.6766 24.7188 13.7758 24.8181C13.875 24.9173 14.0096 24.973 14.1499 24.973C14.2902 24.973 14.4247 24.9173 14.5239 24.8181C14.6232 24.7188 14.6789 24.5843 14.6789 24.444V15.9838C14.6786 15.8436 14.6227 15.7091 14.5234 15.6101C14.4241 15.511 14.2896 15.4553 14.1493 15.4553Z" fill="#4F4F4F"/>
<path d="M16.2645 15.4553C16.1243 15.4553 15.9899 15.511 15.8908 15.6101C15.7916 15.7092 15.736 15.8437 15.736 15.9838V24.444C15.736 24.5843 15.7917 24.7188 15.8909 24.8181C15.9901 24.9173 16.1247 24.973 16.265 24.973C16.4053 24.973 16.5399 24.9173 16.6391 24.8181C16.7383 24.7188 16.794 24.5843 16.794 24.444V15.9838C16.794 15.9143 16.7803 15.8455 16.7537 15.7813C16.7271 15.7171 16.688 15.6588 16.6389 15.6097C16.5897 15.5606 16.5313 15.5217 16.467 15.4952C16.4028 15.4687 16.334 15.4552 16.2645 15.4553Z" fill="#4F4F4F"/>
<path d="M18.3797 15.4553C18.2396 15.4556 18.1054 15.5114 18.0063 15.6104C17.9072 15.7095 17.8515 15.8437 17.8512 15.9838V24.444C17.8512 24.5843 17.9069 24.7188 18.0061 24.8181C18.1053 24.9173 18.2399 24.973 18.3802 24.973C18.5205 24.973 18.6551 24.9173 18.7543 24.8181C18.8535 24.7188 18.9092 24.5843 18.9092 24.444V15.9838C18.909 15.8436 18.853 15.7091 18.7538 15.6101C18.6545 15.511 18.52 15.4553 18.3797 15.4553Z" fill="#4F4F4F"/>
<path d="M20.4944 15.4553C20.3543 15.4553 20.2199 15.511 20.1207 15.6101C20.0216 15.7092 19.9659 15.8437 19.9659 15.9838V26.5601C19.9659 26.7004 20.0217 26.8349 20.1209 26.9341C20.2201 27.0333 20.3547 27.0891 20.495 27.0891C20.6353 27.0891 20.7698 27.0333 20.869 26.9341C20.9683 26.8349 21.024 26.7004 21.024 26.5601V15.9838C21.024 15.9143 21.0103 15.8455 20.9836 15.7813C20.957 15.7171 20.918 15.6588 20.8688 15.6097C20.8196 15.5606 20.7613 15.5217 20.697 15.4952C20.6328 15.4687 20.5639 15.4552 20.4944 15.4553Z" fill="#4F4F4F"/>
<path d="M22.6097 15.4553C22.4695 15.4553 22.3351 15.511 22.236 15.6101C22.1368 15.7092 22.0812 15.8437 22.0812 15.9838V24.444C22.0812 24.5843 22.1369 24.7188 22.2361 24.8181C22.3353 24.9173 22.4699 24.973 22.6102 24.973C22.7505 24.973 22.8851 24.9173 22.9843 24.8181C23.0835 24.7188 23.1392 24.5843 23.1392 24.444V15.9838C23.1392 15.9143 23.1255 15.8455 23.0989 15.7813C23.0722 15.7171 23.0332 15.6588 22.9841 15.6097C22.9349 15.5606 22.8765 15.5217 22.8123 15.4952C22.748 15.4687 22.6791 15.4552 22.6097 15.4553Z" fill="#4F4F4F"/>
<path d="M24.7244 15.4553C24.5843 15.4553 24.4498 15.511 24.3507 15.6101C24.2516 15.7092 24.1959 15.8437 24.1959 15.9838V24.444C24.1959 24.5843 24.2517 24.7188 24.3509 24.8181C24.4501 24.9173 24.5846 24.973 24.7249 24.973C24.8652 24.973 24.9998 24.9173 25.099 24.8181C25.1982 24.7188 25.254 24.5843 25.254 24.444V15.9838C25.2537 15.8436 25.1978 15.7091 25.0985 15.6101C24.9992 15.511 24.8647 15.4553 24.7244 15.4553Z" fill="#4F4F4F"/>
<path d="M26.8397 15.4553C26.6995 15.4553 26.5651 15.511 26.466 15.6101C26.3669 15.7092 26.3112 15.8437 26.3112 15.9838V24.444C26.3112 24.5843 26.3669 24.7188 26.4661 24.8181C26.5653 24.9173 26.6999 24.973 26.8402 24.973C26.9805 24.973 27.115 24.9173 27.2143 24.8181C27.3135 24.7188 27.3692 24.5843 27.3692 24.444V15.9838C27.3689 15.8436 27.313 15.7091 27.2137 15.6101C27.1145 15.511 26.9799 15.4553 26.8397 15.4553Z" fill="#4F4F4F"/>
<path d="M28.9547 15.4553C28.8146 15.4553 28.6802 15.511 28.5811 15.6101C28.4819 15.7092 28.4263 15.8437 28.4263 15.9838V26.5601C28.4263 26.7004 28.482 26.8349 28.5812 26.9341C28.6804 27.0333 28.815 27.0891 28.9553 27.0891C29.0956 27.0891 29.2302 27.0333 29.3294 26.9341C29.4286 26.8349 29.4843 26.7004 29.4843 26.5601V15.9838C29.4843 15.9143 29.4706 15.8455 29.444 15.7813C29.4173 15.7171 29.3783 15.6588 29.3291 15.6097C29.28 15.5606 29.2216 15.5217 29.1573 15.4952C29.0931 15.4687 29.0242 15.4552 28.9547 15.4553Z" fill="#4F4F4F"/>
<path d="M14.5201 26.1768C14.4166 26.0838 14.2818 26.0333 14.1426 26.0352C14.0034 26.0371 13.8701 26.0914 13.7692 26.1873C13.6734 26.2864 13.6202 26.4191 13.6209 26.557C13.6209 26.6973 13.6766 26.8319 13.7758 26.9311C13.875 27.0303 14.0096 27.086 14.1499 27.086C14.2902 27.086 14.4247 27.0303 14.5239 26.9311C14.6232 26.8319 14.6789 26.6973 14.6789 26.557C14.6788 26.4863 14.6647 26.4163 14.6374 26.3511C14.6102 26.2858 14.5703 26.2266 14.5201 26.1768Z" fill="#4F4F4F"/>
<path d="M16.6353 26.1903C16.5363 26.0935 16.4034 26.0393 16.265 26.0393C16.1266 26.0393 15.9937 26.0935 15.8947 26.1903C15.8439 26.2374 15.8036 26.2946 15.7762 26.3583C15.7489 26.422 15.7352 26.4907 15.736 26.56C15.736 26.6309 15.75 26.7011 15.7773 26.7665C15.8045 26.8319 15.8444 26.8913 15.8947 26.9412C15.995 27.0354 16.127 27.0883 16.2645 27.0895C16.3354 27.0896 16.4056 27.0755 16.471 27.0483C16.5364 27.021 16.5958 26.9811 16.6457 26.9308C16.7415 26.8316 16.7947 26.6989 16.794 26.5611C16.794 26.4917 16.7798 26.4231 16.7526 26.3594C16.7253 26.2957 16.6854 26.2382 16.6353 26.1903Z" fill="#4F4F4F"/>
<path d="M18.7505 26.1903C18.6515 26.0935 18.5186 26.0393 18.3802 26.0393C18.2418 26.0393 18.1089 26.0935 18.01 26.1903C17.9373 26.2641 17.8879 26.3576 17.8679 26.4593C17.848 26.5609 17.8583 26.6662 17.8977 26.7621C17.9371 26.8579 18.0038 26.94 18.0895 26.9982C18.1752 27.0564 18.2761 27.0882 18.3797 27.0895C18.4506 27.0896 18.5208 27.0755 18.5862 27.0483C18.6516 27.021 18.711 26.9811 18.7609 26.9308C18.8567 26.8316 18.9099 26.6989 18.9093 26.5611C18.9102 26.4916 18.8966 26.4227 18.8693 26.3588C18.8419 26.2949 18.8014 26.2375 18.7505 26.1903Z" fill="#4F4F4F"/>
<path d="M22.9806 26.1903C22.8816 26.0935 22.7487 26.0393 22.6103 26.0393C22.4719 26.0393 22.339 26.0935 22.24 26.1903C22.1651 26.2638 22.1138 26.3579 22.0927 26.4607C22.0715 26.5635 22.0814 26.6702 22.1211 26.7674C22.1608 26.8645 22.2285 26.9476 22.3157 27.0061C22.4028 27.0646 22.5054 27.0959 22.6103 27.0959C22.7152 27.0959 22.8178 27.0646 22.9049 27.0061C22.992 26.9476 23.0598 26.8645 23.0995 26.7674C23.1392 26.6702 23.1491 26.5635 23.1279 26.4607C23.1067 26.3579 23.0554 26.2638 22.9806 26.1903Z" fill="#4F4F4F"/>
<path d="M25.0954 26.1903C24.9964 26.0935 24.8635 26.0393 24.7251 26.0393C24.5867 26.0393 24.4538 26.0935 24.3549 26.1903C24.28 26.2638 24.2287 26.3579 24.2075 26.4607C24.1864 26.5635 24.1962 26.6702 24.236 26.7674C24.2757 26.8645 24.3434 26.9476 24.4305 27.0061C24.5176 27.0646 24.6202 27.0959 24.7251 27.0959C24.8301 27.0959 24.9326 27.0646 25.0198 27.0061C25.1069 26.9476 25.1746 26.8645 25.2143 26.7674C25.254 26.6702 25.2639 26.5635 25.2428 26.4607C25.2216 26.3579 25.1703 26.2638 25.0954 26.1903Z" fill="#4F4F4F"/>
<path d="M27.2105 26.1893C27.1103 26.096 26.9791 26.0432 26.8422 26.0413C26.7053 26.0394 26.5726 26.0884 26.4699 26.1789C26.369 26.2802 26.3119 26.4171 26.3112 26.5601C26.3112 26.7004 26.3669 26.835 26.4661 26.9342C26.5653 27.0334 26.6999 27.0892 26.8402 27.0892C26.9805 27.0892 27.115 27.0334 27.2143 26.9342C27.3135 26.835 27.3692 26.7004 27.3692 26.5601C27.3699 26.4907 27.3561 26.4219 27.3287 26.3581C27.3014 26.2943 27.2612 26.2368 27.2105 26.1893Z" fill="#4F4F4F"/>
<path d="M28.9561 12.2822H12.0347C11.0533 12.2833 10.1125 12.6737 9.41852 13.3676C8.72458 14.0616 8.33424 15.0024 8.33313 15.9838V26.559C8.33424 27.5404 8.72458 28.4812 9.41852 29.1752C10.1125 29.8691 11.0533 30.2595 12.0347 30.2606H28.955C29.9364 30.2595 30.8773 29.8691 31.5712 29.1752C32.2651 28.4812 32.6555 27.5404 32.6566 26.559V15.9838C32.6555 15.0026 32.2653 14.0619 31.5716 13.368C30.8779 12.6741 29.9373 12.2836 28.9561 12.2822ZM31.5996 26.559C31.5985 27.2598 31.3196 27.9315 30.8241 28.427C30.3286 28.9226 29.6568 29.2014 28.9561 29.2025H12.0347C11.3339 29.2014 10.6622 28.9226 10.1667 28.427C9.67115 27.9315 9.39228 27.2598 9.39117 26.559V15.9838C9.39228 15.283 9.67115 14.6113 10.1667 14.1158C10.6622 13.6202 11.3339 13.3414 12.0347 13.3403H28.955C29.6558 13.3414 30.3275 13.6202 30.823 14.1158C31.3186 14.6113 31.5974 15.283 31.5985 15.9838L31.5996 26.559Z" fill="#4F4F4F"/>
</g>
</svg>
