<svg width="40" height="41" viewBox="0 0 40 41" fill="none" xmlns="http://www.w3.org/2000/svg">
<mask id="mask0_4368_776" style="mask-type:alpha" maskUnits="userSpaceOnUse" x="0" y="0" width="40" height="41">
<rect y="0.615479" width="40" height="40" fill="#D9D9D9"/>
</mask>
<g mask="url(#mask0_4368_776)">
<path d="M23.1055 17.5639C23.1044 16.7479 22.8571 15.9514 22.396 15.2793C21.9349 14.6072 21.2817 14.0909 20.5224 13.7985V21.3292C21.2816 21.0367 21.9347 20.5204 22.3957 19.8483C22.8568 19.1762 23.1042 18.3798 23.1055 17.5639ZM17.6449 21.3215V13.7985C16.8857 14.0904 16.2326 14.6064 15.772 15.2784C15.3113 15.9505 15.0647 16.7469 15.0647 17.5626C15.0647 18.3782 15.3113 19.1746 15.772 19.8467C16.2326 20.5187 16.8857 21.0348 17.6449 21.3266V21.3215ZM19.0655 24.5219H22.3254C24.1868 24.5353 25.9811 23.825 27.3319 22.5401C28.6827 21.2552 29.4851 19.4955 29.5709 17.6299C29.5595 16.6906 29.3625 15.7628 28.9912 14.9004C28.6198 14.038 28.0816 13.2581 27.4077 12.6058C26.7338 11.9536 25.9376 11.442 25.0652 11.1007C24.1927 10.7594 23.2615 10.5951 22.3254 10.6175H19.0694C18.1459 10.5966 17.2277 10.7637 16.3703 11.1087C15.5129 11.4537 14.7341 11.9695 14.081 12.6249C13.4278 13.2803 12.9138 14.0617 12.5701 14.922C12.2263 15.7822 12.0599 16.7034 12.0809 17.6299C12.1 19.4725 12.8462 21.2325 14.1561 22.5242C15.4659 23.816 17.2327 24.5343 19.0694 24.5219H19.0655ZM19.081 11.1928C20.3359 11.1923 21.5627 11.5651 22.6063 12.2642C23.6499 12.9632 24.4634 13.957 24.944 15.12C25.4245 16.2829 25.5505 17.5627 25.306 18.7975C25.0616 20.0322 24.4576 21.1665 23.5704 22.0569C22.6833 22.9473 21.5529 23.5537 20.3222 23.7995C19.0915 24.0453 17.8158 23.9194 16.6565 23.4377C15.4971 22.9561 14.5062 22.1403 13.8089 21.0936C13.1117 20.0469 12.7396 18.8163 12.7396 17.5574C12.741 15.8703 13.41 14.2528 14.5996 13.0603C15.7891 11.8678 17.402 11.198 19.0836 11.198L19.081 11.1928ZM5.52381 25.2242C4.96587 25.2242 4.53708 25.2384 4.22195 25.2384C3.92748 25.2384 3.62655 25.2384 3.33337 25.2242V25.4198C3.67176 25.4276 4.02564 25.3822 4.02564 26.0677V29.7307C4.00368 30.249 3.78541 30.2593 3.33337 30.3047V30.5004C3.67176 30.4926 4.00368 30.4861 4.34206 30.4861C4.68044 30.4861 5.04982 30.5004 5.43341 30.5004C8.09784 30.5004 8.53309 28.6203 8.53309 27.8713C8.52007 27.4954 8.43039 27.1262 8.26958 26.7864C8.10877 26.4467 7.88025 26.1436 7.59813 25.8959C7.31601 25.6482 6.98628 25.4611 6.62928 25.3463C6.27229 25.2314 5.89562 25.1912 5.52252 25.2281L5.52381 25.2242ZM5.54577 30.2542C5.17768 30.2542 4.7631 30.1868 4.7631 29.6063V25.4963C4.89871 25.4885 5.04207 25.4665 5.35075 25.4665C5.66977 25.4523 5.98817 25.506 6.285 25.6241C6.58182 25.7423 6.85035 25.9221 7.07289 26.1519C7.29544 26.3816 7.46696 26.6561 7.57617 26.9571C7.68538 27.2582 7.7298 27.579 7.70651 27.8985C7.74295 28.2006 7.71365 28.5071 7.62062 28.7967C7.52759 29.0864 7.37305 29.3524 7.16764 29.5763C6.96224 29.8002 6.71087 29.9768 6.43087 30.0938C6.15086 30.2108 5.84889 30.2655 5.54577 30.2542ZM9.9047 30.0494V27.1444C9.9047 27.0835 9.8892 27.0382 9.85174 27.0382C9.80389 27.0387 9.75705 27.0522 9.71613 27.0771C9.68643 27.1004 9.26409 27.2416 8.91151 27.3492V27.4697C9.19048 27.62 9.29897 27.6653 9.29897 27.9983V30.0443C9.29897 30.2943 9.14786 30.2943 8.93734 30.2943H8.79527V30.49C9.07295 30.4822 9.34417 30.4744 9.61539 30.4744C9.88661 30.4744 10.1488 30.49 10.4058 30.49V30.2943H10.2767C10.0661 30.2943 9.89953 30.2943 9.89953 30.0443L9.9047 30.0494ZM9.60377 25.8811C9.70255 25.8794 9.79668 25.8387 9.86581 25.7679C9.93494 25.6971 9.9735 25.6019 9.97315 25.5027C9.97145 25.4057 9.93174 25.3132 9.86262 25.2454C9.79349 25.1775 9.70051 25.1396 9.60377 25.1399C9.5058 25.1399 9.41185 25.179 9.34258 25.2485C9.27331 25.318 9.23439 25.4122 9.23439 25.5105C9.23439 25.6088 9.27331 25.7031 9.34258 25.7726C9.41185 25.8421 9.5058 25.8811 9.60377 25.8811ZM13.8942 30.0494V28.1059C13.8942 27.5163 13.6682 27.0485 13.0289 27.0485C12.5442 27.0882 12.0862 27.2872 11.7258 27.6148V27.1237C11.7258 27.0641 11.7038 27.0485 11.6806 27.0485C11.3561 27.187 11.0246 27.3081 10.6874 27.4113V27.5552C11.04 27.699 11.1239 27.7742 11.1239 28.0527V30.0533C11.1239 30.3034 10.9741 30.3034 10.7623 30.3034H10.6331V30.4991C10.9043 30.4913 11.1756 30.4835 11.4455 30.4835C11.7154 30.4835 11.9802 30.4991 12.2437 30.4991V30.3034H12.1145C11.904 30.3034 11.7374 30.3034 11.7374 30.0533V27.8143C11.9959 27.6254 12.2957 27.501 12.6117 27.4515C13.0418 27.4515 13.304 27.6627 13.304 28.0994V30.0546C13.304 30.3047 13.1542 30.3047 12.9437 30.3047H12.8145V30.5004C13.0845 30.4926 13.3557 30.4848 13.6282 30.4848C13.9007 30.4848 14.1616 30.5004 14.4264 30.5004V30.3047H14.2972C14.0867 30.3047 13.9201 30.3047 13.9201 30.0546L13.8942 30.0494ZM16.0898 30.1557C15.7756 30.1175 15.4872 29.9618 15.2823 29.7197C15.0773 29.4776 14.9709 29.1669 14.9843 28.8496C14.967 28.7041 14.967 28.5571 14.9843 28.4116H17.0882L17.1567 28.3663C17.1628 28.3212 17.1654 28.2757 17.1644 28.2302C17.1628 28.0672 17.1281 27.9063 17.0624 27.7572C16.9968 27.608 16.9015 27.4739 16.7825 27.363C16.6634 27.252 16.5231 27.1666 16.37 27.1119C16.217 27.0571 16.0544 27.0343 15.8922 27.0447C15.3653 27.0447 14.3721 27.4826 14.3721 28.9636C14.3545 29.1673 14.3781 29.3725 14.4415 29.5668C14.5049 29.7611 14.6068 29.9406 14.741 30.0944C14.8753 30.2482 15.0392 30.3732 15.2228 30.4619C15.4064 30.5506 15.606 30.6011 15.8096 30.6105C16.0929 30.5911 16.3673 30.5034 16.6097 30.355C16.852 30.2066 17.0552 30.0018 17.2019 29.7579L17.0972 29.6504C16.9711 29.7987 16.8164 29.9199 16.6424 30.0067C16.4684 30.0935 16.2787 30.1442 16.0847 30.1557H16.0898ZM15.8716 27.2857C15.9615 27.283 16.051 27.2994 16.1342 27.3338C16.2174 27.3683 16.2924 27.42 16.3542 27.4856C16.4161 27.5512 16.4634 27.6292 16.493 27.7144C16.5227 27.7996 16.5341 27.8902 16.5264 27.9802C16.5264 28.0709 16.5044 28.1693 16.3159 28.1693H15.0011C15.0915 27.6251 15.4079 27.2857 15.8664 27.2857H15.8716ZM19.4879 27.0434C19.0294 27.0434 18.713 27.5267 18.5244 27.8208H18.5089V27.1444C18.5089 27.068 18.4869 27.046 18.4417 27.046C18.3733 27.046 18.0724 27.2429 17.5222 27.4774V27.5902C17.6358 27.6511 17.9096 27.6964 17.9096 27.9296V30.052C17.9096 30.3021 17.7585 30.3021 17.5493 30.3021H17.3465V30.4978C17.6177 30.49 17.9342 30.4822 18.2415 30.4822C18.5489 30.4822 18.8873 30.49 19.2954 30.4978V30.3021H18.8705C18.66 30.3021 18.5089 30.3021 18.5089 30.052V28.2756C18.51 28.1223 18.566 27.9746 18.6668 27.8594C18.7676 27.7442 18.9064 27.6693 19.0578 27.6485C19.3161 27.6485 19.3161 27.8299 19.555 27.8299C19.6039 27.8284 19.6521 27.8171 19.6966 27.7966C19.741 27.7761 19.781 27.7469 19.814 27.7106C19.847 27.6744 19.8724 27.6318 19.8887 27.5856C19.905 27.5393 19.9119 27.4902 19.9089 27.4411C19.9074 27.3865 19.8951 27.3326 19.8726 27.2828C19.8502 27.2329 19.8181 27.1881 19.7782 27.1508C19.7383 27.1135 19.6913 27.0846 19.6402 27.0657C19.589 27.0468 19.5346 27.0383 19.4801 27.0408L19.4879 27.0434ZM20.6619 27.7845C20.6658 27.7124 20.6844 27.6419 20.7164 27.5773C20.7484 27.5127 20.7932 27.4553 20.8481 27.4086C20.903 27.3619 20.9668 27.3269 21.0356 27.3058C21.1044 27.2847 21.1767 27.2778 21.2482 27.2857C21.3513 27.2796 21.4545 27.2942 21.5518 27.3286C21.6492 27.3631 21.7387 27.4167 21.8151 27.4864C21.8915 27.556 21.9532 27.6403 21.9967 27.7342C22.0402 27.8281 22.0646 27.9298 22.0684 28.0333H22.2414L22.1885 27.2636C21.9229 27.1262 21.6297 27.0509 21.3309 27.0434C21.1905 27.0254 21.0478 27.0365 20.9119 27.0761C20.7759 27.1157 20.6495 27.1829 20.5405 27.2735C20.4316 27.3642 20.3423 27.4763 20.2783 27.603C20.2143 27.7297 20.1769 27.8682 20.1685 28.01C20.1685 29.2254 21.8088 28.939 21.8088 29.824C21.8099 29.9012 21.7944 29.9778 21.7632 30.0484C21.732 30.1191 21.6858 30.182 21.628 30.233C21.5702 30.284 21.502 30.3218 21.4282 30.3438C21.3543 30.3658 21.2767 30.3715 21.2004 30.3604C20.9571 30.3506 20.7258 30.2512 20.5507 30.0813C20.3757 29.9114 20.269 29.6829 20.2512 29.4392L20.1156 29.478L20.1982 30.3462C20.4787 30.5063 20.7939 30.5952 21.1165 30.6053C22.0115 30.6053 22.408 30.0766 22.408 29.5778C22.408 28.3922 20.6619 28.6708 20.6619 27.7806V27.7845ZM27.5264 30.3669C26.8843 30.3129 26.2891 30.0078 25.8694 29.5174C25.4497 29.0269 25.239 28.3906 25.283 27.7456C25.249 27.4452 25.2786 27.1409 25.3697 26.8527C25.4608 26.5645 25.6115 26.2988 25.8118 26.0728C26.0121 25.8469 26.2576 25.6659 26.5324 25.5415C26.8071 25.4172 27.1049 25.3523 27.4063 25.3511C27.5931 25.326 27.7831 25.3382 27.9653 25.3869C28.1475 25.4356 28.3183 25.5199 28.4679 25.635C28.6176 25.7501 28.7431 25.8937 28.8373 26.0575C28.9314 26.2214 28.9925 26.4023 29.0168 26.5899H29.2041L29.1292 25.5105C28.5639 25.2774 27.9636 25.1416 27.3533 25.1088C26.6248 25.086 25.9167 25.3524 25.3828 25.8502C24.8488 26.3481 24.5322 27.0371 24.5016 27.7677C24.4788 28.1504 24.5379 28.5336 24.6749 28.8916C24.8119 29.2495 25.0237 29.5739 25.296 29.8429C25.5683 30.112 25.8949 30.3194 26.2537 30.4514C26.6126 30.5833 26.9954 30.6367 27.3766 30.6079C27.9529 30.5898 28.5195 30.4536 29.0413 30.2075L29.2144 29.1049L29.0413 29.0595C28.9866 29.4231 28.8039 29.7549 28.5261 29.9948C28.2484 30.2346 27.8941 30.3667 27.5277 30.3669H27.5264ZM30.5821 30.0494V24.8316C30.5821 24.7707 30.5666 24.7253 30.5214 24.7253C30.4633 24.7464 30.4078 24.7743 30.3561 24.8082C30.1078 24.9392 29.8485 25.048 29.5812 25.1335V25.254C29.8679 25.3369 29.9803 25.3524 29.9803 25.8435V30.0494C29.9803 30.2995 29.8292 30.2995 29.6187 30.2995H29.4766V30.4952C29.7556 30.4874 30.0268 30.4796 30.2967 30.4796C30.5666 30.4796 30.8314 30.4952 31.0858 30.4952V30.2995H30.9567C30.7449 30.2995 30.5796 30.2995 30.5796 30.0507L30.5821 30.0494ZM34.3082 30.0792V27.2934C34.3082 27.2105 34.3082 27.1574 34.2475 27.1574C34.1868 27.1574 33.7503 27.2183 33.0735 27.2623V27.3919C33.3434 27.4684 33.7051 27.55 33.7051 27.7003V29.7359C33.4581 29.979 33.1424 30.1396 32.801 30.1959C32.1462 30.1959 32.1462 29.548 32.1462 29.3187V27.3751C32.1462 27.2092 32.1462 27.1561 32.0622 27.1561C31.9783 27.1561 31.3635 27.2014 31.0923 27.2092V27.353C31.5133 27.3906 31.543 27.5798 31.543 27.7754V29.71C31.5313 29.8251 31.5441 29.9414 31.5806 30.0511C31.6171 30.1609 31.6765 30.2616 31.7548 30.3465C31.8331 30.4315 31.9286 30.4987 32.0348 30.5438C32.141 30.5889 32.2556 30.6107 32.3709 30.6079C32.8786 30.5717 33.3543 30.3455 33.7038 29.9743V30.5859L33.7412 30.6092C34.0967 30.5051 34.4593 30.4272 34.8261 30.376V30.2166C34.728 30.2166 34.6156 30.2244 34.5252 30.2244C34.396 30.2244 34.3147 30.2166 34.3147 30.0805L34.3082 30.0792ZM36.9274 27.0434C36.5035 27.0934 36.1086 27.2851 35.8064 27.5876V24.8316C35.8064 24.7707 35.7909 24.7253 35.747 24.7253C35.6884 24.7463 35.6325 24.7741 35.5804 24.8082C35.3321 24.9394 35.0728 25.0482 34.8055 25.1335V25.254C35.0909 25.3369 35.2045 25.3524 35.2045 25.8435V29.088C35.2035 29.5379 35.1685 29.9871 35.0999 30.4317L35.2575 30.5146L35.4835 30.341C35.8057 30.5122 36.165 30.6012 36.5297 30.6001C37.0285 30.5736 37.4969 30.3512 37.8336 29.9809C38.1702 29.6107 38.3481 29.1223 38.3288 28.6216C38.3444 28.4244 38.3202 28.2261 38.2577 28.0385C38.1952 27.851 38.0956 27.678 37.9649 27.5299C37.8342 27.3819 37.6751 27.2618 37.497 27.1768C37.319 27.0919 37.1257 27.0439 36.9287 27.0356L36.9274 27.0434ZM36.5813 30.4122C36.3785 30.4037 36.1864 30.319 36.0429 30.175C35.8993 30.031 35.815 29.8382 35.8064 29.6348V27.8078C35.9955 27.608 36.2489 27.4818 36.5219 27.4515C36.8708 27.5085 37.1865 27.6925 37.4086 27.9684C37.6307 28.2443 37.7436 28.5926 37.7256 28.9468C37.7256 29.6193 37.3859 30.4122 36.5813 30.4122Z" fill="#0079BE"/>
</g>
</svg>
