<svg width="40" height="41" viewBox="0 0 40 41" fill="none" xmlns="http://www.w3.org/2000/svg">
<mask id="mask0_4368_780" style="mask-type:alpha" maskUnits="userSpaceOnUse" x="0" y="0" width="40" height="41">
<rect y="0.615479" width="40" height="40" fill="#D9D9D9"/>
</mask>
<g mask="url(#mask0_4368_780)">
<path fill-rule="evenodd" clip-rule="evenodd" d="M8.79687 16.8674C9.20287 16.7344 9.62637 16.6679 10.0534 16.6679C11.9749 16.6679 13.5779 18.0047 13.9419 19.779L16.6614 19.2366C16.0419 16.2199 13.3189 13.9487 10.0569 13.9487C9.30787 13.9487 8.59037 14.0677 7.91837 14.2882L8.79687 16.8674Z" fill="#FFCA05"/>
<path fill-rule="evenodd" clip-rule="evenodd" d="M5.63637 25.6128L7.49837 23.555C6.66537 22.8341 6.14387 21.7843 6.14387 20.6119C6.14387 19.4395 6.66887 18.3897 7.49837 17.6723L5.63637 15.6145C4.22587 16.8394 3.33337 18.6241 3.33337 20.6154C3.33337 22.6031 4.22587 24.3914 5.63637 25.6128Z" fill="#00A4DF"/>
<path fill-rule="evenodd" clip-rule="evenodd" d="M13.9454 21.4483C13.5779 23.2226 11.9749 24.5594 10.0569 24.5594C9.62987 24.5594 9.20287 24.4929 8.79687 24.3599L7.91487 26.9426C8.58687 27.1631 9.30787 27.2821 10.0569 27.2821C13.3189 27.2821 16.0384 25.0143 16.6649 21.9977L13.9454 21.4483Z" fill="#EE4123"/>
<path fill-rule="evenodd" clip-rule="evenodd" d="M24.3684 22.8026L24.2879 22.7536C24.0639 23.1141 23.7209 23.408 23.2834 23.597C22.4539 23.961 21.6839 23.8665 21.1309 23.3801L21.0819 23.457H21.0784L20.1369 24.8744C20.3714 25.0388 20.6234 25.1753 20.8859 25.2873C21.9289 25.7213 22.9929 25.7038 24.0429 25.2418C24.8024 24.9129 25.3974 24.4054 25.8069 23.7685L24.3684 22.8026ZM21.4249 19.3066C20.5464 19.6845 20.0949 20.5104 20.1894 21.4798L23.9064 19.8735C23.2659 19.1211 22.4364 18.8726 21.4249 19.3066ZM18.9574 23.625C18.8524 23.45 18.7579 23.2681 18.6739 23.0791C18.2434 22.0782 18.2259 21.0458 18.5864 20.052C18.9854 18.9636 19.7449 18.1272 20.7284 17.7038C21.9639 17.1683 23.3324 17.2733 24.5154 17.9802C25.2679 18.4142 25.7999 19.0826 26.2059 20.031C26.2584 20.1535 26.3039 20.2829 26.3459 20.3914L18.9574 23.625ZM28.9324 15.6145V23.492L30.1539 23.989L29.4609 25.6128L28.1134 25.0528C27.8124 24.9199 27.6059 24.7204 27.4484 24.4929C27.2979 24.2619 27.1894 23.9435 27.1894 23.5165V15.6145H28.9324ZM32.0929 21.4868C32.0929 22.1307 32.3659 22.7431 32.8489 23.1666L31.5994 24.5699C30.7174 23.786 30.2169 22.6626 30.2204 21.4868C30.2204 20.3074 30.7244 19.1876 31.6064 18.4072L32.8559 19.807C32.3694 20.2304 32.0929 20.8429 32.0929 21.4868ZM34.3154 23.723C35.3899 23.723 36.2859 22.9601 36.4959 21.9417L38.3334 22.3197C37.9519 24.1954 36.2964 25.6093 34.3154 25.6058C33.8744 25.6058 33.4334 25.5323 33.0134 25.3923L33.6119 23.6075C33.8324 23.681 34.0669 23.723 34.3154 23.723ZM34.3189 17.3713C36.2999 17.3713 37.9554 18.7886 38.3334 20.6679L36.4959 21.0423C36.2894 20.003 35.3759 19.2541 34.3189 19.2541C34.0809 19.2541 33.8394 19.2926 33.6154 19.3696L33.0239 17.5848C33.4404 17.4413 33.8779 17.3713 34.3189 17.3713Z" fill="#1A1A1A"/>
</g>
</svg>
