<svg width="40" height="41" viewBox="0 0 40 41" fill="none" xmlns="http://www.w3.org/2000/svg">
<mask id="mask0_4368_772" style="mask-type:alpha" maskUnits="userSpaceOnUse" x="0" y="0" width="40" height="41">
<rect y="0.615479" width="40" height="40" fill="#D9D9D9"/>
</mask>
<g mask="url(#mask0_4368_772)">
<path d="M9.31414 13.9487C7.71137 14.0233 6.40122 14.6589 6.02293 15.9696C5.82567 16.6532 5.71712 17.4039 5.56287 18.1125C4.77874 21.7155 4.08343 25.4177 3.33337 28.9487H31.574C33.7573 28.9487 35.2563 28.4945 35.6615 26.7885C35.8497 25.9959 36.0299 25.0982 36.21 24.2275C36.9119 20.8325 37.6144 17.4377 38.3334 13.9487H9.31414Z" fill="#B82126"/>
<path d="M27.5121 22.9105C27.1204 23.2881 26.021 23.3953 26.1335 22.4929C26.2269 21.7434 27.0556 21.5842 27.9539 21.6924C27.8871 22.1024 27.8105 22.6229 27.5121 22.9105ZM26.2748 19.9871C26.2374 20.1938 26.18 20.3809 26.1335 20.5787C26.582 20.468 27.9785 20.1285 28.113 20.7179C28.1577 20.9137 28.0806 21.1217 28.0246 21.2748C26.7618 21.157 25.7325 21.3636 25.4618 22.2493C25.2805 22.8425 25.4821 23.4263 25.8684 23.5893C26.6122 23.903 27.517 23.5436 27.8302 23.0498C27.7977 23.2208 27.7669 23.3934 27.7772 23.6066H28.4311C28.438 22.99 28.5292 22.4909 28.6255 21.936C28.7077 21.4635 28.8622 20.9957 28.8376 20.5787C28.7815 19.6236 27.1744 19.9615 26.2748 19.9871ZM32.8321 23.2064C32.3204 23.2172 32.066 22.9054 32.0544 22.3885C32.034 21.4832 32.4373 20.4775 33.2562 20.3873C33.6375 20.3453 33.9136 20.4326 34.193 20.5265C33.9366 21.5434 34.0291 23.1811 32.8321 23.2064ZM34.5288 18.4209C34.4637 18.9832 34.3766 19.5239 34.2638 20.0392C32.3995 19.4583 31.2562 20.8087 31.2767 22.4755C31.2807 22.7978 31.3371 23.1175 31.5419 23.3456C31.8947 23.7385 32.9052 23.8325 33.4153 23.5022C33.5141 23.4383 33.615 23.322 33.6805 23.2412C33.7296 23.1804 33.8077 23.0214 33.8218 23.0671C33.795 23.2438 33.755 23.4074 33.7512 23.6066H34.4405C34.5733 21.7304 34.9841 20.1278 35.2889 18.4209H34.5288ZM15.0692 22.928C14.6626 23.352 13.663 23.3455 13.5846 22.6321C13.5504 22.3217 13.6679 21.9962 13.726 21.6751C13.7847 21.35 13.827 21.0381 13.885 20.7527C14.2855 20.2712 15.4624 20.2131 15.5818 21.0138C15.6854 21.7089 15.406 22.5768 15.0692 22.928ZM15.6702 19.9871C15.0269 19.7491 14.2429 20.0331 13.9031 20.3033C13.9043 20.3152 13.895 20.3168 13.885 20.3177C13.8908 20.3129 13.8971 20.3081 13.9031 20.3033C13.903 20.3023 13.903 20.3014 13.9027 20.3003C13.9085 20.1841 13.95 20.1032 13.9557 19.9871H13.3018C13.0293 21.7722 12.7061 23.5073 12.365 25.225H13.125C13.235 24.556 13.3077 23.8503 13.4609 23.2238C13.6344 23.8827 14.7677 23.7568 15.2459 23.5022C16.2327 22.9769 16.9938 20.4766 15.6702 19.9871ZM19.2757 21.24H17.4907C17.5471 20.8359 17.9164 20.3918 18.4981 20.3699C19.0456 20.3493 19.4376 20.5678 19.2757 21.24ZM18.5511 19.9175C18.0019 19.9591 17.5377 20.1147 17.2079 20.4569C16.8032 20.8766 16.4755 21.8045 16.5715 22.6495C16.7085 23.8551 18.2331 23.8118 19.4525 23.5196C19.4732 23.3081 19.5253 23.1272 19.5585 22.928C19.0562 23.113 18.184 23.3714 17.6674 23.0498C17.2773 22.807 17.275 22.192 17.4023 21.6576C18.2218 21.6319 19.0736 21.6369 19.8943 21.6576C19.9464 21.2788 20.0954 20.8659 19.965 20.4917C19.793 19.9978 19.1775 19.87 18.5511 19.9175ZM11.8701 19.9871C11.8496 19.99 11.8509 20.0146 11.8524 20.0392C11.685 21.2723 11.4584 22.4472 11.2162 23.6066H11.9762C12.1588 22.3653 12.368 21.1501 12.6301 19.9871H11.8701ZM31.7009 20.0044C31.0292 19.6738 30.47 20.2286 30.2517 20.5613C30.3138 20.3906 30.3174 20.1621 30.3753 19.9871H29.7037C29.5226 21.2299 29.3043 22.4361 29.0497 23.6066H29.8274C29.8324 23.1269 29.928 22.772 30.0041 22.3015C30.1667 21.2969 30.4053 20.1952 31.5949 20.5265C31.6344 20.3566 31.6508 20.1639 31.7009 20.0044ZM23.1641 22.7539C23.0941 22.5757 23.0759 22.2815 23.0934 22.0578C23.1327 21.555 23.3188 20.9428 23.606 20.6657C24.0023 20.2832 24.7847 20.3465 25.4088 20.5613C25.4281 20.3542 25.4704 20.1695 25.4972 19.9697C24.4736 19.8051 23.5024 19.9075 22.9874 20.4395C22.4833 20.9603 22.1528 22.1574 22.3864 22.9105C22.6599 23.7919 23.8859 23.8398 24.8786 23.5022C24.9225 23.3251 24.9457 23.1276 24.9846 22.9453C24.4422 23.2228 23.4052 23.367 23.1641 22.7539ZM22.74 19.9871C22.0661 19.7191 21.5363 20.1719 21.2907 20.5961C21.3464 20.4074 21.3694 20.1864 21.4144 19.9871H20.7427C20.5786 21.2408 20.3365 22.4178 20.1065 23.6066H20.8665C20.973 22.901 21.019 21.9498 21.2553 21.2748C21.4442 20.7354 21.9384 20.2758 22.6516 20.5265C22.6616 20.3275 22.7195 20.1756 22.74 19.9871ZM10.4916 18.5253C10.383 19.2189 10.2607 19.8989 10.1381 20.5787C9.3507 20.5869 8.54679 20.617 7.78736 20.5613C7.9308 19.8963 8.03367 19.1913 8.17614 18.5253H7.32783C7.02409 20.2217 6.74786 21.9451 6.40878 23.6066H7.27479C7.41067 22.7543 7.5377 21.8932 7.71661 21.0834C8.45504 21.0655 9.34006 21.0342 10.0497 21.1008C9.90335 21.9428 9.72657 22.7548 9.59014 23.6066H10.4562C10.7344 21.8852 11.0277 20.1785 11.3753 18.5253H10.4916ZM12.6478 19.291C12.7994 19.1883 12.9945 18.7201 12.7716 18.5253C12.701 18.4636 12.5828 18.4457 12.4181 18.4731C12.2652 18.4985 12.1773 18.5496 12.1176 18.6297C12.0215 18.7585 11.9336 19.1467 12.0822 19.291C12.227 19.4314 12.5514 19.3563 12.6478 19.291Z" fill="white"/>
</g>
</svg>
