<svg width="40" height="41" viewBox="0 0 40 41" fill="none" xmlns="http://www.w3.org/2000/svg">
<mask id="mask0_4368_768" style="mask-type:alpha" maskUnits="userSpaceOnUse" x="0" y="0" width="40" height="41">
<rect y="0.615479" width="40" height="40" fill="#D9D9D9"/>
</mask>
<g mask="url(#mask0_4368_768)">
<path d="M10.4581 32.1626V30.7278C10.4671 30.6072 10.4483 30.4861 10.403 30.3727C10.3577 30.2593 10.2868 30.1562 10.1952 30.0702C10.1036 29.9843 9.99329 29.9174 9.87166 29.8741C9.75003 29.8308 9.61986 29.8121 9.48983 29.8192C9.31962 29.8088 9.14953 29.8411 8.99733 29.9126C8.84513 29.9841 8.71639 30.0922 8.62455 30.2257C8.54084 30.0962 8.42106 29.9901 8.27784 29.9186C8.13462 29.847 7.97326 29.8127 7.81078 29.8192C7.66915 29.8125 7.5281 29.8404 7.40162 29.8999C7.27515 29.9595 7.16763 30.0487 7.08972 30.1587V29.8766H6.55407V32.1626H7.09487V30.9048C7.08337 30.8266 7.0906 30.7471 7.11606 30.6718C7.14153 30.5965 7.18458 30.5274 7.24215 30.4694C7.29973 30.4113 7.37039 30.3658 7.4491 30.3361C7.52781 30.3064 7.61262 30.2932 7.69747 30.2974C8.05285 30.2974 8.23312 30.5126 8.23312 30.9V32.1721H8.77392V30.9048C8.76288 30.8267 8.77045 30.7473 8.79609 30.6722C8.82172 30.5971 8.8648 30.5282 8.92227 30.4703C8.97974 30.4123 9.05022 30.3668 9.12871 30.337C9.2072 30.3071 9.29179 30.2936 9.37652 30.2974C9.7422 30.2974 9.91732 30.5126 9.91732 30.9V32.1721L10.4581 32.1626ZM18.4593 29.8766H17.5786V29.1831H17.0378V29.8766H16.5485V30.3309H17.0481V31.383C17.0481 31.9139 17.2696 32.2295 17.9031 32.2295C18.1398 32.2303 18.3719 32.1689 18.5726 32.0526L18.4181 31.6269C18.2745 31.7065 18.1115 31.7509 17.9443 31.7561C17.6868 31.7561 17.5889 31.603 17.5889 31.3735V30.3309H18.4645L18.4593 29.8766ZM23.0278 29.8192C22.8972 29.8156 22.768 29.8448 22.6538 29.9038C22.5395 29.9627 22.4446 30.0491 22.3788 30.154V29.8766H21.8483V32.1626H22.384V30.8809C22.384 30.5031 22.5591 30.2926 22.899 30.2926C23.0136 30.2912 23.1273 30.3107 23.2338 30.35L23.3986 29.8718C23.2763 29.8312 23.1474 29.8101 23.0175 29.8096L23.0278 29.8192ZM16.121 30.0583C15.8178 29.8909 15.4692 29.8079 15.1167 29.8192C14.4935 29.8192 14.0866 30.0966 14.0866 30.5509C14.0866 30.9239 14.3853 31.1535 14.9364 31.2252L15.194 31.2587C15.4875 31.297 15.6266 31.3687 15.6266 31.4978C15.6266 31.6748 15.4309 31.7752 15.0652 31.7752C14.771 31.7831 14.4826 31.6989 14.2463 31.5361L13.9887 31.9235C14.3008 32.1258 14.6745 32.2297 15.0549 32.22C15.7657 32.22 16.1777 31.9091 16.1777 31.4739C16.1777 31.0387 15.8532 30.8618 15.3176 30.79L15.06 30.7565C14.8283 30.7278 14.6429 30.6848 14.6429 30.5318C14.6429 30.3787 14.818 30.264 15.1115 30.264C15.3829 30.2669 15.6489 30.3344 15.8841 30.46L16.121 30.0583ZM30.4676 29.8192C30.337 29.8156 30.2078 29.8448 30.0936 29.9038C29.9794 29.9627 29.8844 30.0491 29.8186 30.154V29.8766H29.2882V32.1626H29.8238V30.8809C29.8238 30.5031 29.9989 30.2926 30.3388 30.2926C30.4534 30.2912 30.5672 30.3107 30.6736 30.35L30.8384 29.8718C30.7161 29.8312 30.5872 29.8101 30.4573 29.8096L30.4676 29.8192ZM23.566 31.0148C23.5596 31.1754 23.5894 31.3356 23.6535 31.4849C23.7176 31.6342 23.8146 31.7695 23.9382 31.882C24.0618 31.9946 24.2094 32.0819 24.3715 32.1384C24.5335 32.195 24.7065 32.2195 24.8794 32.2104C25.201 32.2256 25.5171 32.1283 25.7652 31.9378L25.5077 31.5361C25.3226 31.6672 25.0968 31.7393 24.8639 31.7417C24.6659 31.7269 24.4812 31.6433 24.3465 31.5077C24.2119 31.3722 24.1371 31.1945 24.1371 31.01C24.1371 30.8256 24.2119 30.6479 24.3465 30.5123C24.4812 30.3767 24.6659 30.2932 24.8639 30.2783C25.0968 30.2807 25.3226 30.3528 25.5077 30.4839L25.7652 30.0822C25.5171 29.8917 25.201 29.7944 24.8794 29.8096C24.7065 29.8005 24.5335 29.825 24.3715 29.8816C24.2094 29.9381 24.0618 30.0255 23.9382 30.138C23.8146 30.2505 23.7176 30.3858 23.6535 30.5351C23.5894 30.6845 23.5596 30.8446 23.566 31.0052V31.0148ZM28.5825 29.8766H28.0469V30.154C27.9559 30.0453 27.8384 29.9582 27.7041 29.9C27.5698 29.8418 27.4225 29.8141 27.2743 29.8192C26.9328 29.8192 26.6053 29.9452 26.3638 30.1694C26.1224 30.3936 25.9867 30.6977 25.9867 31.0148C25.9867 31.3319 26.1224 31.636 26.3638 31.8602C26.6053 32.0844 26.9328 32.2104 27.2743 32.2104C27.4225 32.2155 27.5698 32.1878 27.7041 32.1296C27.8384 32.0714 27.9559 31.9843 28.0469 31.8756V32.153H28.5825V29.8766ZM26.5893 31.0148C26.5979 30.8802 26.6486 30.7509 26.7353 30.6428C26.822 30.5347 26.9408 30.4525 27.0772 30.4063C27.2136 30.3601 27.3615 30.3519 27.5028 30.3828C27.6441 30.4137 27.7726 30.4823 27.8725 30.5801C27.9723 30.6779 28.0392 30.8007 28.0648 30.9334C28.0904 31.0661 28.0737 31.2028 28.0167 31.3268C27.9597 31.4508 27.8649 31.5566 27.744 31.6311C27.6231 31.7057 27.4813 31.7458 27.3361 31.7465C27.2342 31.7477 27.133 31.7293 27.0391 31.6924C26.9452 31.6556 26.8605 31.6011 26.7903 31.5324C26.7202 31.4636 26.6661 31.3822 26.6315 31.2931C26.5969 31.204 26.5826 31.1093 26.5893 31.0148ZM20.1255 29.8192C19.784 29.8236 19.4584 29.9538 19.2203 30.1812C18.9822 30.4086 18.8511 30.7144 18.8559 31.0315C18.8607 31.3486 19.0009 31.651 19.2458 31.8721C19.4907 32.0931 19.8201 32.2148 20.1616 32.2104C20.5321 32.2281 20.8964 32.1173 21.1839 31.8995L20.9264 31.5313C20.7231 31.6827 20.4711 31.7669 20.2105 31.7704C20.0334 31.7846 19.8574 31.734 19.7199 31.6295C19.5823 31.525 19.4941 31.3748 19.474 31.2109H21.3024C21.3024 31.1487 21.3024 31.0865 21.3024 31.0196C21.3024 30.3022 20.8234 29.824 20.1332 29.824L20.1255 29.8192ZM20.1255 30.264C20.2057 30.2624 20.2854 30.2755 20.3601 30.3025C20.4348 30.3295 20.503 30.3699 20.5609 30.4214C20.6188 30.473 20.6651 30.5346 20.6974 30.6027C20.7296 30.6709 20.747 30.7443 20.7487 30.8187H19.4611C19.4704 30.6652 19.5441 30.5212 19.6664 30.4175C19.7886 30.3138 19.9497 30.2587 20.1152 30.264H20.1255ZM33.545 28.9583H33.03V30.154C32.939 30.0453 32.8215 29.9582 32.6872 29.9C32.5528 29.8418 32.4055 29.8141 32.2574 29.8192C31.9159 29.8192 31.5884 29.9452 31.3469 30.1694C31.1054 30.3936 30.9698 30.6977 30.9698 31.0148C30.9698 31.3319 31.1054 31.636 31.3469 31.8602C31.5884 32.0844 31.9159 32.2104 32.2574 32.2104C32.4055 32.2155 32.5528 32.1878 32.6872 32.1296C32.8215 32.0714 32.939 31.9843 33.03 31.8756V32.153H33.545V28.9583ZM34.4386 31.8302C34.4721 31.8298 34.5053 31.8355 34.5365 31.8469C34.566 31.8581 34.5931 31.8744 34.6163 31.8948C34.6389 31.9154 34.6573 31.9397 34.6704 31.9665C34.6834 31.9944 34.6901 32.0245 34.6901 32.055C34.6901 32.0854 34.6834 32.1155 34.6704 32.1435C34.6573 32.1703 34.6389 32.1946 34.6163 32.2152C34.5931 32.2356 34.566 32.2518 34.5365 32.263C34.5056 32.2756 34.4723 32.2822 34.4386 32.2821C34.3898 32.2818 34.3421 32.2686 34.301 32.244C34.26 32.2195 34.2273 32.1846 34.2068 32.1435C34.1939 32.1155 34.1873 32.0854 34.1873 32.055C34.1873 32.0246 34.1939 31.9945 34.2068 31.9665C34.22 31.9397 34.2383 31.9154 34.2609 31.8948C34.2841 31.8744 34.3112 31.8581 34.3407 31.8469C34.3743 31.8346 34.4103 31.8288 34.4463 31.8302H34.4386ZM34.4386 32.2343C34.4643 32.2345 34.4898 32.2296 34.5133 32.22C34.5354 32.2108 34.5555 32.1978 34.5725 32.1817C34.6047 32.1491 34.6226 32.1064 34.6226 32.0622C34.6226 32.0179 34.6047 31.9752 34.5725 31.9426C34.5556 31.9265 34.5355 31.9135 34.5133 31.9043C34.4897 31.8948 34.4643 31.8899 34.4386 31.89C34.4129 31.8901 34.3875 31.895 34.3639 31.9043C34.3408 31.9131 34.3198 31.9261 34.3021 31.9426C34.2699 31.9752 34.252 32.0179 34.252 32.0622C34.252 32.1064 34.2699 32.1491 34.3021 32.1817C34.3198 32.1981 34.3408 32.2111 34.3639 32.22C34.3899 32.2304 34.4181 32.2353 34.4463 32.2343H34.4386ZM34.4541 31.9498C34.4781 31.9487 34.5018 31.9555 34.521 31.9689C34.5289 31.975 34.5351 31.9827 34.5391 31.9914C34.5432 32.0001 34.5449 32.0096 34.5442 32.0191C34.5446 32.0271 34.5431 32.035 34.54 32.0424C34.5369 32.0498 34.5322 32.0565 34.5262 32.0622C34.5112 32.0747 34.4922 32.0823 34.4721 32.0837L34.5468 32.1626H34.4875L34.418 32.0837H34.3948V32.1626H34.3459V31.9522L34.4541 31.9498ZM34.3974 31.9904V32.0478H34.4541C34.4641 32.0506 34.4749 32.0506 34.485 32.0478C34.4868 32.0445 34.4877 32.0408 34.4877 32.037C34.4877 32.0333 34.4868 32.0296 34.485 32.0263C34.4868 32.0229 34.4877 32.0193 34.4877 32.0155C34.4877 32.0118 34.4868 32.0081 34.485 32.0048C34.4749 32.002 34.4641 32.002 34.4541 32.0048L34.3974 31.9904ZM31.5647 31.0196C31.5732 30.885 31.6239 30.7557 31.7106 30.6476C31.7973 30.5395 31.9161 30.4572 32.0525 30.411C32.1889 30.3648 32.3368 30.3567 32.4781 30.3876C32.6194 30.4185 32.7479 30.487 32.8478 30.5849C32.9476 30.6827 33.0145 30.8055 33.0401 30.9382C33.0658 31.0709 33.0491 31.2076 32.9921 31.3316C32.9351 31.4556 32.8403 31.5613 32.7193 31.6359C32.5984 31.7105 32.4566 31.7506 32.3115 31.7513C32.2095 31.7525 32.1084 31.7341 32.0144 31.6972C31.9205 31.6604 31.8358 31.6059 31.7657 31.5371C31.6955 31.4684 31.6414 31.387 31.6069 31.2979C31.5723 31.2088 31.5579 31.1141 31.5647 31.0196ZM13.4789 29.8766H12.9432V30.154C12.8522 30.0453 12.7347 29.9582 12.6004 29.9C12.4661 29.8418 12.3188 29.8141 12.1706 29.8192C11.8291 29.8192 11.5016 29.9452 11.2602 30.1694C11.0187 30.3936 10.883 30.6977 10.883 31.0148C10.883 31.3319 11.0187 31.636 11.2602 31.8602C11.5016 32.0844 11.8291 32.2104 12.1706 32.2104C12.3188 32.2155 12.4661 32.1878 12.6004 32.1296C12.7347 32.0714 12.8522 31.9843 12.9432 31.8756V32.153H13.4789V29.8766ZM11.4856 31.0196C11.4942 30.885 11.5449 30.7557 11.6316 30.6476C11.7183 30.5395 11.8371 30.4572 11.9735 30.411C12.1099 30.3648 12.2578 30.3567 12.3991 30.3876C12.5404 30.4185 12.6689 30.487 12.7688 30.5849C12.8686 30.6827 12.9355 30.8055 12.9611 30.9382C12.9868 31.0709 12.97 31.2076 12.913 31.3316C12.856 31.4556 12.7612 31.5613 12.6403 31.6359C12.5194 31.7105 12.3776 31.7506 12.2324 31.7513C12.13 31.7532 12.0284 31.7352 11.9338 31.6987C11.8393 31.6621 11.7539 31.6077 11.6832 31.5389C11.6125 31.4701 11.558 31.3884 11.5231 31.299C11.4882 31.2096 11.4737 31.1145 11.4805 31.0196H11.4856Z" fill="#231F20"/>
<path d="M24.0553 12.4565H15.9433V25.9932H24.0553V12.4565Z" fill="#FF5F00"/>
<path d="M16.4584 19.2261C16.4569 17.9222 16.7749 16.6351 17.3884 15.4623C18.0019 14.2894 18.8947 13.2616 19.9993 12.4565C18.6316 11.4585 16.9892 10.8379 15.2596 10.6656C13.53 10.4933 11.7832 10.7763 10.2187 11.4823C8.65412 12.1883 7.33506 13.2888 6.41223 14.6579C5.48939 16.0271 5 17.6097 5 19.2249C5 20.8401 5.48939 22.4227 6.41223 23.7918C7.33506 25.161 8.65412 26.2615 10.2187 26.9674C11.7832 27.6734 13.53 27.9564 15.2596 27.7842C16.9892 27.6119 18.6316 26.9913 19.9993 25.9932C18.8951 25.1884 18.0024 24.161 17.389 22.9886C16.7755 21.8162 16.4573 20.5295 16.4584 19.2261Z" fill="#EB001B"/>
<path d="M35 19.2261C35 20.8414 34.5105 22.4241 33.5875 23.7933C32.6645 25.1625 31.3452 26.2629 29.7805 26.9688C28.2158 27.6747 26.4687 27.9576 24.739 27.785C23.0094 27.6125 21.3669 26.9916 19.9993 25.9932C21.1031 25.1877 21.9955 24.16 22.6091 22.9875C23.2228 21.815 23.5416 20.5285 23.5416 19.2249C23.5416 17.9213 23.2228 16.6347 22.6091 15.4623C21.9955 14.2898 21.1031 13.262 19.9993 12.4565C21.3669 11.4582 23.0094 10.8372 24.739 10.6647C26.4687 10.4922 28.2158 10.775 29.7805 11.4809C31.3452 12.1868 32.6645 13.2872 33.5875 14.6564C34.5105 16.0256 35 17.6084 35 19.2237V19.2261Z" fill="#F79E1B"/>
<path d="M34.1141 24.5585V24.2811H34.2352V24.2237H33.9287V24.2811H34.06V24.5585H34.1141ZM34.709 24.5585V24.2237H34.6163L34.5081 24.4628L34.4 24.2237H34.3176V24.5585H34.3845V24.3074L34.485 24.525H34.5545L34.6549 24.3074V24.5609L34.709 24.5585Z" fill="#F79E1B"/>
</g>
</svg>
