<svg width="110" height="24" viewBox="0 0 110 24" fill="none" xmlns="http://www.w3.org/2000/svg">
<path fill-rule="evenodd" clip-rule="evenodd" d="M106.625 4.89169C107.284 5.15355 107.886 5.5559 108.394 6.07401H108.387C108.898 6.58759 109.305 7.20699 109.582 7.89406C109.86 8.58111 110.002 9.32126 109.999 10.0689V10.0785C109.998 10.2547 109.931 10.4231 109.813 10.5469C109.695 10.6708 109.535 10.7401 109.37 10.7397H100.922C101.044 11.544 101.385 12.2928 101.903 12.8938C102.421 13.4947 103.093 13.9216 103.836 14.1218C104.579 14.322 105.361 14.2868 106.085 14.0206C106.81 13.7543 107.445 13.2686 107.913 12.6232C107.964 12.5536 108.027 12.4952 108.098 12.4514C108.17 12.4075 108.249 12.3791 108.331 12.3677C108.413 12.3563 108.496 12.3621 108.576 12.3849C108.655 12.4077 108.73 12.447 108.796 12.5005C108.861 12.554 108.916 12.6207 108.957 12.6967C108.999 12.7728 109.025 12.8568 109.036 12.9439C109.047 13.031 109.041 13.1194 109.02 13.2042C108.999 13.289 108.962 13.3685 108.911 13.4381C108.236 14.3667 107.3 15.0423 106.239 15.3667C105.178 15.6912 104.047 15.6477 103.01 15.2425C101.974 14.8373 101.086 14.0916 100.476 13.1136C99.8659 12.1356 99.565 10.9763 99.6171 9.80409C99.6868 8.435 100.23 7.14155 101.142 6.17206C102.054 5.20254 103.271 4.62535 104.56 4.55126C105.263 4.51397 105.965 4.62983 106.625 4.89169ZM102.263 6.88512C101.552 7.52757 101.079 8.41778 100.93 9.39655H108.689C108.539 8.41778 108.067 7.52757 107.356 6.88512C106.645 6.24268 105.742 5.88991 104.809 5.88991C103.876 5.88991 102.974 6.24268 102.263 6.88512Z" fill="#21232F"/>
<path fill-rule="evenodd" clip-rule="evenodd" d="M27.5134 7.64901C28.2339 7.31431 29.0171 7.14105 29.8099 7.14112C30.7347 7.13955 31.6449 7.37321 32.457 7.82064C33.2689 8.26807 33.9567 8.91485 34.4568 9.70148C34.9568 10.4881 35.2531 11.3893 35.3186 12.3221C35.3839 13.2549 35.2162 14.1894 34.8308 15.0395C34.4456 15.8896 33.8548 16.628 33.1135 17.1868C32.3719 17.7455 31.5034 18.1067 30.5876 18.237C29.6719 18.3673 28.7384 18.2627 27.8732 17.9326C27.0081 17.6025 26.2388 17.0576 25.6365 16.3481V20.7154C25.6406 20.8071 25.6262 20.8985 25.5944 20.9844C25.5626 21.0703 25.5138 21.1487 25.4512 21.2149C25.3885 21.2814 25.3133 21.3341 25.2299 21.3701C25.1465 21.4061 25.0567 21.4249 24.966 21.4249C24.8754 21.4249 24.7856 21.4061 24.7022 21.3701C24.6188 21.3341 24.5434 21.2814 24.4809 21.2149C24.4181 21.1487 24.3693 21.0703 24.3375 20.9844C24.3057 20.8985 24.2915 20.8071 24.2956 20.7154V8.1772C24.3032 8.00268 24.3773 7.83792 24.5023 7.71722C24.6272 7.5965 24.7933 7.52914 24.966 7.52914C25.1388 7.52914 25.3049 7.5965 25.4298 7.71722C25.5546 7.83792 25.6287 8.00268 25.6365 8.1772V9.08031C26.1528 8.47198 26.793 7.98373 27.5134 7.64901ZM33.2815 15.0543C33.7401 14.3603 33.9849 13.5443 33.9849 12.7096C33.9834 11.5907 33.5433 10.518 32.7608 9.72685C31.9784 8.93566 30.9178 8.49054 29.8113 8.48907C28.986 8.48907 28.1791 8.7366 27.4926 9.20035C26.8063 9.6641 26.2715 10.3233 25.9555 11.0945C25.6397 11.8656 25.5571 12.7142 25.7181 13.5329C25.8792 14.3516 26.2767 15.1036 26.8603 15.6939C27.444 16.2842 28.1876 16.6861 28.9971 16.849C29.8066 17.0118 30.6459 16.9282 31.4085 16.6088C32.1711 16.2893 32.8229 15.7484 33.2815 15.0543Z" fill="#21232F"/>
<path fill-rule="evenodd" clip-rule="evenodd" d="M45.8742 7.70166C45.9997 7.57596 46.1701 7.50534 46.348 7.50534C46.5257 7.50534 46.6961 7.57596 46.8216 7.70166C46.9473 7.82738 47.0179 7.99786 47.0179 8.17564V17.1474C47.0179 17.3251 46.9473 17.4956 46.8216 17.6213C46.6961 17.747 46.5257 17.8177 46.348 17.8177C46.1701 17.8177 45.9997 17.747 45.8742 17.6213C45.7485 17.4956 45.6779 17.3251 45.6779 17.1474V16.2605C44.9434 17.1145 43.965 17.7231 42.8746 18.0046C41.7841 18.286 40.6337 18.2268 39.5777 17.8349C38.5219 17.443 37.6112 16.7371 36.9681 15.8122C36.325 14.8872 35.9805 13.7875 35.9805 12.6608C35.9805 11.5341 36.325 10.4344 36.9681 9.50947C37.6112 8.58453 38.5219 7.87866 39.5777 7.48674C40.6337 7.09482 41.7841 7.0356 42.8746 7.31706C43.965 7.5985 44.9434 8.20713 45.6779 9.06116V8.17564C45.6779 7.99786 45.7485 7.82738 45.8742 7.70166ZM44.9745 14.9822C45.4333 14.2949 45.678 13.487 45.6776 12.6606C45.6761 11.5531 45.2357 10.4913 44.4527 9.70831C43.6697 8.92529 42.6083 8.48493 41.5013 8.48385C40.6753 8.48385 39.8678 8.72893 39.1811 9.18809C38.4942 9.64723 37.959 10.2999 37.6429 11.0634C37.3269 11.8269 37.2442 12.6671 37.4055 13.4776C37.5668 14.2881 37.9646 15.0326 38.5488 15.6168C39.1331 16.2011 39.8773 16.5989 40.6874 16.76C41.4976 16.921 42.3374 16.8381 43.1006 16.5216C43.8636 16.2052 44.5156 15.6695 44.9745 14.9822Z" fill="#21232F"/>
<path fill-rule="evenodd" clip-rule="evenodd" d="M69.9056 7.70087C70.0309 7.57568 70.2006 7.50534 70.3776 7.50534H70.3722C70.4602 7.5048 70.5476 7.52166 70.6292 7.55495C70.7106 7.58823 70.7848 7.6373 70.8474 7.69932C70.91 7.76135 70.9595 7.83511 70.9935 7.91638C71.0276 7.99766 71.0451 8.08482 71.0453 8.17291V17.1487C71.0453 17.3259 70.975 17.4958 70.8498 17.6213C70.7246 17.7467 70.5548 17.8173 70.3776 17.8177C70.2004 17.8173 70.0307 17.7467 69.9055 17.6213C69.7804 17.4958 69.71 17.3259 69.71 17.1487V16.2605C68.9751 17.1145 67.9963 17.7231 66.9053 18.0046C65.8143 18.286 64.6633 18.2268 63.6068 17.8349C62.5505 17.443 61.6393 16.7371 60.9959 15.8122C60.3527 14.8872 60.0078 13.7875 60.0078 12.6608C60.0078 11.5341 60.3527 10.4344 60.9959 9.50947C61.6393 8.58453 62.5505 7.87866 63.6068 7.48674C64.6633 7.09482 65.8143 7.0356 66.9053 7.31706C67.9963 7.5985 68.9751 8.20713 69.71 9.06116V8.17291C69.71 7.99586 69.7804 7.82607 69.9056 7.70087ZM69.0086 14.9822C69.4676 14.295 69.7124 13.487 69.712 12.6606C69.7105 11.5531 69.2699 10.4914 68.4865 9.70835C67.7034 8.92532 66.6415 8.48496 65.5339 8.48389C64.7073 8.48389 63.8996 8.72896 63.2124 9.18812C62.5252 9.64727 61.9896 10.2999 61.6734 11.0634C61.3572 11.8269 61.2745 12.6671 61.4359 13.4776C61.5972 14.2881 61.9952 15.0326 62.5798 15.6168C63.1643 16.2011 63.9089 16.5989 64.7194 16.76C65.5302 16.921 66.3703 16.8381 67.1337 16.5217C67.8972 16.2052 68.5497 15.6695 69.0086 14.9822Z" fill="#21232F"/>
<path fill-rule="evenodd" clip-rule="evenodd" d="M57.5605 7.69758C57.6858 7.5731 57.8557 7.50319 58.0328 7.50319C58.1209 7.50265 58.208 7.51942 58.2896 7.55253C58.3711 7.58563 58.4453 7.63443 58.5076 7.69612C58.5702 7.75781 58.6198 7.83117 58.6538 7.91201C58.6877 7.99285 58.7052 8.07954 58.7054 8.16715V18.0352C58.7054 20.9623 56.3476 23.3577 53.4514 23.3741H53.4198C52.3715 23.3765 51.3463 23.0674 50.4757 22.4865C49.6051 21.9054 48.9285 21.079 48.5328 20.1129C48.492 20.0132 48.4764 19.9048 48.4874 19.7977C48.4984 19.6904 48.5356 19.5876 48.5959 19.498C48.6633 19.3978 48.757 19.3176 48.8665 19.2661C48.9762 19.2148 49.0978 19.1937 49.2185 19.2057C49.3392 19.2176 49.4543 19.2619 49.5516 19.3337C49.649 19.4057 49.725 19.5025 49.7714 19.614C50.0668 20.3276 50.567 20.9388 51.2096 21.3709C51.8523 21.803 52.6087 22.0369 53.3842 22.0434C53.8998 22.0465 54.4109 21.9473 54.8874 21.7516C55.364 21.5561 55.7966 21.2677 56.1599 20.9037C56.926 20.1482 57.3592 19.1208 57.3642 18.0474V16.2123C56.6296 17.0616 55.6513 17.6667 54.561 17.9465C53.4706 18.2263 52.3205 18.1673 51.2647 17.7774C50.209 17.3876 49.2986 16.6855 48.6557 15.7656C48.0127 14.8457 47.668 13.752 47.668 12.6315C47.668 11.511 48.0127 10.4172 48.6557 9.49735C49.2986 8.57745 50.209 7.8754 51.2647 7.48552C52.3205 7.09566 53.4706 7.03665 54.561 7.31642C55.6513 7.59621 56.6296 8.20137 57.3642 9.0506V8.16715C57.3646 7.99093 57.4352 7.82205 57.5605 7.69758ZM56.6607 14.941C57.1197 14.2572 57.3646 13.4534 57.3644 12.6311C57.3629 11.531 56.9236 10.4762 56.1426 9.69764C55.3614 8.91908 54.3023 8.48017 53.1967 8.47692C52.3704 8.47529 51.5622 8.71767 50.8744 9.17336C50.1865 9.62904 49.65 10.2776 49.3326 11.0368C49.0155 11.7961 48.9317 12.632 49.0919 13.4386C49.2522 14.2453 49.6494 14.9865 50.2332 15.5684C50.8171 16.1504 51.5612 16.5468 52.3717 16.7077C53.1819 16.8685 54.022 16.7865 54.7855 16.472C55.5491 16.1576 56.2016 15.6247 56.6607 14.941Z" fill="#21232F"/>
<path d="M75.7948 13.6447C75.5192 13.5629 75.2758 13.3839 75.1021 13.1354C74.9285 12.8869 74.8341 12.5827 74.8336 12.2696V0.654146C74.8336 0.480656 74.7708 0.314271 74.6589 0.191594C74.5469 0.0689186 74.3952 0 74.237 0C74.0789 0 73.9271 0.0689186 73.8152 0.191594C73.7035 0.314271 73.6406 0.480656 73.6406 0.654146V12.2682C73.641 12.8709 73.8227 13.4567 74.1578 13.9344C74.4929 14.4122 74.9624 14.7552 75.4935 14.9102C75.5806 14.9366 75.6721 14.9401 75.7606 14.9206C75.8492 14.9011 75.9324 14.859 76.0034 14.7979C76.0765 14.7366 76.1357 14.6576 76.1763 14.5671C76.2169 14.4766 76.2378 14.377 76.2377 14.2761C76.2372 14.1321 76.1936 13.9921 76.1135 13.8778C76.0336 13.7635 75.9216 13.6812 75.7948 13.6434" fill="#21232F"/>
<path fill-rule="evenodd" clip-rule="evenodd" d="M78.511 6.16579C79.4797 5.19657 80.7721 4.61953 82.1401 4.54546V4.55094C82.8862 4.51609 83.6314 4.6329 84.3309 4.89432C85.0305 5.15573 85.6698 5.55633 86.2102 6.07191C86.7507 6.58748 87.181 7.20731 87.4754 7.89398C87.7696 8.58063 87.9217 9.31984 87.9222 10.0669C87.9213 10.2442 87.8499 10.4138 87.724 10.5385C87.598 10.6632 87.4277 10.7328 87.2507 10.7321H78.284C78.4141 11.5359 78.7763 12.2841 79.326 12.8845C79.8757 13.485 80.5887 13.9116 81.3777 14.1117C82.1666 14.3118 82.9967 14.2768 83.7659 14.0109C84.5353 13.7449 85.21 13.2598 85.7071 12.6151C85.7595 12.5428 85.826 12.4817 85.9024 12.4355C85.979 12.3893 86.0639 12.3589 86.1522 12.3461C86.2408 12.3332 86.3308 12.3383 86.4172 12.3608C86.5037 12.3834 86.5847 12.4231 86.6555 12.4775C86.7265 12.5319 86.7858 12.6 86.8299 12.6777C86.8741 12.7554 86.9022 12.8411 86.9127 12.9299C86.9231 13.0186 86.9158 13.1086 86.8909 13.1944C86.8661 13.2803 86.8243 13.3603 86.7681 13.4298C86.052 14.3611 85.0574 15.0392 83.9291 15.3655C82.8009 15.6917 81.5979 15.649 80.4956 15.2435C79.3932 14.8381 78.4493 14.0911 77.8008 13.1113C77.1526 12.1316 76.834 10.9704 76.8914 9.79676C76.9653 8.42809 77.5422 7.135 78.511 6.16579ZM79.6999 6.87871C78.9451 7.52097 78.4433 8.41093 78.2842 9.38943H86.5242C86.3652 8.41093 85.8634 7.52097 85.1086 6.87871C84.3538 6.23646 83.3951 5.88379 82.4042 5.88379C81.4134 5.88379 80.4548 6.23646 79.6999 6.87871Z" fill="#21232F"/>
<path d="M98.312 4.54492C98.1931 4.54574 98.0767 4.57896 97.9756 4.64091C97.8748 4.70285 97.7929 4.79114 97.7394 4.89605L93.4411 13.1851L89.1444 4.89605C89.0909 4.79114 89.0092 4.70285 88.9081 4.64091C88.8071 4.57896 88.6909 4.54574 88.572 4.54492C88.4591 4.54516 88.3484 4.5749 88.2509 4.63112C88.1536 4.68733 88.073 4.76802 88.0173 4.86499C87.9592 4.96304 87.9272 5.07397 87.9241 5.18751C87.9211 5.30105 87.9469 5.41353 87.9995 5.51455L92.6229 14.4276C92.6979 14.5792 92.8146 14.707 92.9594 14.7964C93.1045 14.8857 93.2718 14.9331 93.4426 14.9331C93.6135 14.9331 93.7808 14.8857 93.9257 14.7964C94.0707 14.707 94.1873 14.5792 94.2624 14.4276L98.8858 5.51455C98.9384 5.41353 98.9642 5.30105 98.961 5.18751C98.958 5.07397 98.9259 4.96304 98.868 4.86499C98.8125 4.76782 98.7319 4.687 98.6344 4.63076C98.537 4.57451 98.4262 4.54489 98.3133 4.54492" fill="#21232F"/>
<path d="M4.5834 6.82699C4.36652 6.54907 4.23173 6.21565 4.1944 5.86464C4.15704 5.51364 4.21863 5.15916 4.37214 4.84155C4.52564 4.52394 4.7649 4.25596 5.0627 4.06812C5.3605 3.88029 5.70485 3.78013 6.05657 3.77906C6.13244 3.77933 6.20822 3.78418 6.2835 3.79354C6.52833 3.82248 6.765 3.89989 6.97981 4.02125C7.19462 4.1426 7.38333 4.30551 7.53498 4.50056L11.4035 9.44306C12.9862 9.412 14.5631 9.24016 16.1155 8.92959L17.4116 7.27726C17.8762 6.68364 18.087 5.9291 17.9973 5.17961C17.9076 4.43011 17.5249 3.74706 16.9334 3.28074C16.342 2.8144 15.5902 2.60298 14.8434 2.69297C14.0966 2.78297 13.4161 3.16701 12.9514 3.76063L10.7082 6.62423L8.46899 3.76327C7.96578 3.12531 7.23117 2.71346 6.42606 2.61796C5.62095 2.52244 4.81094 2.75101 4.17339 3.25365C3.53586 3.75628 3.12275 4.49199 3.02453 5.29968C2.92632 6.10736 3.15101 6.92119 3.64941 7.56296L4.68311 8.87956C5.23275 9.00332 5.82045 9.10733 6.43699 9.19028L4.5834 6.82699Z" fill="#12F2AA"/>
<path d="M9.95328 16.0788L7.53562 19.1675C7.22466 19.5501 6.77651 19.7949 6.28755 19.8493C5.7986 19.9035 5.30794 19.7632 4.92113 19.4581C4.53432 19.153 4.28228 18.7078 4.21923 18.2181C4.1562 17.7284 4.28718 17.2335 4.58404 16.8398L6.11361 14.8846C5.65185 14.8285 5.19971 14.7631 4.75719 14.6885L3.65003 16.1012C3.39964 16.4186 3.21416 16.7825 3.10425 17.1721C2.99432 17.5616 2.96212 17.9691 3.00946 18.3712C3.05682 18.7732 3.1828 19.1619 3.38019 19.5152C3.57758 19.8682 3.84248 20.1787 4.15971 20.4288C4.47694 20.6788 4.84025 20.8636 5.22879 20.9725C5.61733 21.0813 6.02347 21.1121 6.42388 21.0631C6.82432 21.0141 7.21114 20.8862 7.5622 20.6867C7.91326 20.4873 8.22163 20.2202 8.46961 19.9009L10.7089 17.0425L12.9521 19.9075C13.4201 20.4907 14.0984 20.8655 14.8399 20.9502C15.5813 21.0351 16.3262 20.8231 16.913 20.3604C17.4998 19.8978 17.8813 19.2217 17.9747 18.4785C18.0681 17.7355 17.8661 16.9854 17.4122 16.3908L16.1004 14.7174C14.3098 14.9988 12.5003 15.1427 10.6879 15.148L9.95328 16.0788Z" fill="#12F2AA"/>
<path d="M6.43729 9.19385L7.81601 10.9555C8.01231 11.2055 8.11905 11.5146 8.11905 11.833C8.11905 12.1513 8.01231 12.4604 7.81601 12.7105L7.62973 12.9488L6.11328 14.8842C7.57079 15.0588 9.03735 15.1468 10.5052 15.1475H10.6876L12.3654 12.9975C12.6254 12.6657 12.7667 12.2558 12.7667 11.8336C12.7667 11.4115 12.6254 11.0016 12.3654 10.6697L11.4051 9.44268C9.74523 9.49127 8.08412 9.40805 6.43729 9.19385Z" fill="#DA38EB"/>
<path d="M20.7977 10.5617C20.5848 9.83904 20.0948 9.23066 19.4354 8.87026C18.776 8.50984 18.0011 8.42685 17.2807 8.63952C16.9173 8.74617 16.529 8.8436 16.121 8.92917L13.8438 11.8336L16.1001 14.7169C17.0395 14.5692 17.9688 14.3626 18.8825 14.0981C19.2397 13.9923 19.5726 13.8168 19.8621 13.5817C20.1517 13.3467 20.3923 13.0567 20.5702 12.7282C20.748 12.3998 20.8596 12.0394 20.8987 11.6677C20.9377 11.296 20.9035 10.9202 20.7977 10.5617Z" fill="#DA38EB"/>
<path d="M6.88188 11.6915L4.68722 8.88324C4.35665 8.8082 4.03919 8.72789 3.74011 8.63968C3.37889 8.51777 2.99689 8.47016 2.61693 8.49973C2.23698 8.52929 1.86684 8.6354 1.52867 8.81173C1.19048 8.98807 0.891175 9.23098 0.648619 9.52599C0.406062 9.82101 0.225235 10.1621 0.116934 10.5288C0.0086327 10.8955 -0.0249191 11.2804 0.0182821 11.6604C0.0614834 12.0404 0.180551 12.4078 0.368374 12.7406C0.556198 13.0734 0.808925 13.3648 1.11146 13.5974C1.414 13.83 1.76013 13.999 2.12919 14.0943C2.99111 14.3445 3.86723 14.5423 4.75282 14.6868L6.88188 11.9746C6.9137 11.9344 6.93102 11.8845 6.93102 11.8331C6.93102 11.7817 6.9137 11.7318 6.88188 11.6915Z" fill="#DA38EB"/>
<path d="M7.62991 12.9485L7.8162 12.7102C8.01248 12.4601 8.11924 12.151 8.11924 11.8327C8.11924 11.5143 8.01248 11.2052 7.8162 10.9551L6.43748 9.19354C5.82093 9.11059 5.23324 9.00658 4.68359 8.88281L6.88219 11.6911C6.914 11.7314 6.93131 11.7813 6.93131 11.8327C6.93131 11.8841 6.914 11.9339 6.88219 11.9742L4.75706 14.6903C5.1987 14.7641 5.65084 14.8294 6.11347 14.8865L7.62991 12.9485Z" fill="#24359C"/>
<path d="M16.1158 8.92969C14.5637 9.2402 12.9873 9.41202 11.4051 9.44315L12.3653 10.6715C12.626 11.0031 12.7677 11.4131 12.7677 11.8354C12.7677 12.2577 12.626 12.6678 12.3653 12.9993L10.6875 15.148C12.5 15.1427 14.3094 14.9988 16.1 14.7174L13.8437 11.8341L16.1158 8.92969Z" fill="#24359C"/>
</svg>
