<svg width="40" height="41" viewBox="0 0 40 41" fill="none" xmlns="http://www.w3.org/2000/svg">
<mask id="mask0_4368_784" style="mask-type:alpha" maskUnits="userSpaceOnUse" x="0" y="0" width="40" height="41">
<rect y="0.615479" width="40" height="40" fill="#D9D9D9"/>
</mask>
<g mask="url(#mask0_4368_784)">
<path d="M17.1013 25.522V18.4136C17.1013 17.7856 17.3508 17.1834 17.7948 16.7394C18.2388 16.2953 18.841 16.0459 19.469 16.0459H21.5679C22.1943 16.047 22.7945 16.2967 23.237 16.7399C23.6795 17.1832 23.928 17.784 23.928 18.4103V19.9274C23.9277 20.5552 23.6782 21.1573 23.2342 21.6012C22.7902 22.0452 22.1882 22.2947 21.5603 22.295H18.5967" stroke="#939598" stroke-width="0.4" stroke-linecap="round" stroke-linejoin="round"/>
<path d="M24.5143 16.0447H25.4245C25.6832 16.0447 25.9312 16.1474 26.1141 16.3303C26.297 16.5132 26.3997 16.7613 26.3997 17.0199V22.3296" stroke="#939598" stroke-width="0.4" stroke-linecap="round" stroke-linejoin="round"/>
<path d="M26.2015 15.2222L25.7886 14.8094C25.7395 14.7602 25.7119 14.6936 25.7119 14.6241C25.7119 14.5546 25.7395 14.488 25.7886 14.4388L26.2015 14.0259C26.2258 14.0015 26.2548 13.9821 26.2867 13.9688C26.3185 13.9556 26.3527 13.9487 26.3872 13.9487C26.4218 13.9487 26.456 13.9556 26.4879 13.9688C26.5198 13.9821 26.5487 14.0015 26.5731 14.0259L26.986 14.4388C27.0351 14.488 27.0626 14.5546 27.0626 14.6241C27.0626 14.6936 27.0351 14.7602 26.986 14.8094L26.572 15.2222C26.5229 15.2713 26.4562 15.2989 26.3867 15.2989C26.3172 15.2989 26.2506 15.2713 26.2015 15.2222Z" fill="#32BCAD"/>
<path d="M28.1442 16.0403H29.0468C29.2768 16.0402 29.5045 16.0854 29.7171 16.1734C29.9296 16.2613 30.1227 16.3902 30.2854 16.5528L32.3973 18.6648C32.4623 18.7298 32.5395 18.7815 32.6245 18.8167C32.7094 18.8519 32.8005 18.87 32.8925 18.87C32.9845 18.87 33.0755 18.8519 33.1605 18.8167C33.2455 18.7815 33.3227 18.7298 33.3877 18.6648L35.4921 16.5615C35.6546 16.399 35.8475 16.2701 36.0598 16.1821C36.2721 16.0942 36.4997 16.0489 36.7295 16.049H37.4631" stroke="#939598" stroke-width="0.4" stroke-linecap="round" stroke-linejoin="round"/>
<path d="M28.1442 22.2797H29.0468C29.2768 22.2798 29.5045 22.2346 29.7171 22.1467C29.9296 22.0587 30.1227 21.9298 30.2854 21.7672L32.3973 19.6553C32.5287 19.5241 32.7068 19.4504 32.8925 19.4504C33.0782 19.4504 33.2563 19.5241 33.3877 19.6553L35.4921 21.7596C35.8203 22.0877 36.2654 22.272 36.7295 22.2721H37.4631" stroke="#939598" stroke-width="0.4" stroke-linecap="round" stroke-linejoin="round"/>
<path d="M11.7191 23.6288C11.4963 23.6296 11.2756 23.5862 11.0698 23.5012C10.8639 23.4162 10.6769 23.2913 10.5195 23.1336L8.78577 21.3998C8.725 21.3402 8.64331 21.3069 8.55822 21.3069C8.47313 21.3069 8.39143 21.3402 8.33066 21.3998L6.59689 23.1336C6.43966 23.2915 6.25269 23.4166 6.0468 23.5018C5.84091 23.587 5.62017 23.6305 5.39735 23.6299H5.05493L7.25031 25.8252C7.57961 26.1538 8.02582 26.3384 8.49103 26.3384C8.95624 26.3384 9.40245 26.1538 9.73176 25.8252L11.9315 23.6255L11.7191 23.6288Z" fill="#32BCAD"/>
<path d="M5.3941 17.5011C5.61692 17.5005 5.83766 17.544 6.04355 17.6292C6.24945 17.7144 6.43641 17.8395 6.59364 17.9974L8.3274 19.7312C8.38817 19.7907 8.46988 19.8241 8.55497 19.8241C8.64006 19.8241 8.72176 19.7907 8.78252 19.7312L10.5163 17.9974C10.6746 17.8408 10.8624 17.7171 11.0689 17.6336C11.2754 17.55 11.4964 17.5083 11.7191 17.5109H11.9271L9.72742 15.3112C9.5645 15.1482 9.37108 15.0189 9.15819 14.9307C8.94531 14.8425 8.71713 14.7971 8.4867 14.7971C8.25626 14.7971 8.02809 14.8425 7.8152 14.9307C7.60231 15.0189 7.40889 15.1482 7.24598 15.3112L5.05493 17.5011H5.3941Z" fill="#32BCAD"/>
<path d="M13.7476 19.3281L12.418 17.9985C12.3881 18.0109 12.3561 18.0175 12.3237 18.018H11.7191C11.4046 18.0188 11.1031 18.1438 10.8804 18.3659L9.1466 20.0996C8.99058 20.2553 8.77916 20.3428 8.55874 20.3428C8.33832 20.3428 8.12691 20.2553 7.97089 20.0996L6.23713 18.3659C6.0144 18.1438 5.71293 18.0188 5.39842 18.018H4.6529C4.62243 18.0172 4.59236 18.0109 4.56405 17.9996L3.2258 19.3281C2.89719 19.6574 2.71265 20.1036 2.71265 20.5688C2.71265 21.034 2.89719 21.4803 3.2258 21.8096L4.56079 23.1446C4.58904 23.1331 4.61916 23.1268 4.64965 23.1261H5.39517C5.70968 23.1254 6.01114 23.0004 6.23387 22.7783L7.96764 21.0445C8.12605 20.8934 8.33657 20.8091 8.55549 20.8091C8.77441 20.8091 8.98493 20.8934 9.14334 21.0445L10.8771 22.7783C11.0998 23.0004 11.4013 23.1254 11.7158 23.1261H12.3205C12.3528 23.1265 12.3849 23.1332 12.4147 23.1456L13.7443 21.8161C13.9073 21.6532 14.0366 21.4597 14.1248 21.2468C14.213 21.0339 14.2584 20.8058 14.2584 20.5753C14.2584 20.3449 14.213 20.1167 14.1248 19.9038C14.0366 19.691 13.9073 19.4975 13.7443 19.3346" fill="#32BCAD"/>
<path d="M18.9065 24.9172C18.7967 24.9221 18.6877 24.9389 18.5814 24.9671V25.4005C18.6629 25.4291 18.7487 25.4433 18.835 25.4428C19.0517 25.4428 19.1601 25.3691 19.1601 25.1784C19.1601 24.9877 19.0756 24.9183 18.912 24.9183M18.5132 25.7234V24.8663H18.5728L18.5793 24.9031C18.6902 24.8737 18.8039 24.8556 18.9184 24.8489C18.9959 24.8445 19.0725 24.8671 19.1352 24.9129C19.1703 24.947 19.1973 24.9886 19.2143 25.0345C19.2314 25.0804 19.2381 25.1296 19.2338 25.1784C19.2376 25.2325 19.2267 25.2866 19.2023 25.3351C19.1779 25.3835 19.1408 25.4245 19.0951 25.4536C19.0168 25.4928 18.9301 25.5121 18.8426 25.51C18.7544 25.5093 18.6668 25.4958 18.5825 25.4698V25.7223L18.5132 25.7234Z" fill="#939598"/>
<path d="M19.7756 24.915C19.5589 24.915 19.4614 24.9833 19.4614 25.174C19.4614 25.3648 19.5567 25.4417 19.7756 25.4417C19.9945 25.4417 20.0888 25.3745 20.0888 25.1838C20.0888 24.9931 19.9934 24.915 19.7756 24.915ZM20.0552 25.4417C19.9712 25.4925 19.8735 25.5159 19.7756 25.5089C19.6774 25.5158 19.5794 25.4924 19.495 25.4417C19.4564 25.4103 19.4262 25.3698 19.4073 25.3238C19.3884 25.2778 19.3813 25.2278 19.3866 25.1784C19.3815 25.1288 19.3887 25.0787 19.4076 25.0326C19.4265 24.9864 19.4565 24.9457 19.495 24.914C19.5818 24.8699 19.6778 24.8469 19.7751 24.8469C19.8725 24.8469 19.9684 24.8699 20.0552 24.914C20.0936 24.9455 20.1236 24.9861 20.1425 25.032C20.1614 25.078 20.1686 25.1279 20.1636 25.1773C20.1684 25.2268 20.1611 25.2769 20.1422 25.323C20.1233 25.369 20.0934 25.4098 20.0552 25.4417Z" fill="#939598"/>
<path d="M21.0856 25.4937L20.8429 24.9736L20.6045 25.4937H20.5373L20.2772 24.8652H20.3574L20.5741 25.3919L20.8071 24.8652H20.8743L21.1138 25.3919L21.324 24.8652H21.4031L21.1452 25.4916L21.0856 25.4937Z" fill="#939598"/>
<path d="M21.8777 24.913C21.6762 24.913 21.6079 25.0029 21.596 25.1297H22.1595C22.153 24.9866 22.0804 24.913 21.8777 24.913ZM21.8777 25.5089C21.7851 25.5186 21.6922 25.4939 21.6165 25.4396C21.5821 25.4061 21.5555 25.3655 21.5386 25.3205C21.5218 25.2755 21.5151 25.2274 21.5191 25.1795C21.5162 25.1287 21.5252 25.0779 21.5455 25.0312C21.5658 24.9845 21.5969 24.9433 21.6361 24.9108C21.7092 24.8649 21.7948 24.843 21.881 24.848C21.9686 24.8427 22.0558 24.8638 22.1313 24.9086C22.1724 24.9437 22.2039 24.9886 22.2229 25.0393C22.2418 25.0899 22.2476 25.1445 22.2396 25.198H21.597C21.597 25.3269 21.6414 25.4418 21.8853 25.4418C21.9945 25.4389 22.1033 25.4266 22.2104 25.4049V25.471C22.1033 25.4929 21.9945 25.5056 21.8853 25.5089" fill="#939598"/>
<path d="M22.4468 25.4916V24.8652H22.5064L22.5129 24.9021C22.6138 24.8691 22.7189 24.8508 22.825 24.8479H22.8336V24.9172H22.8163C22.7158 24.9193 22.6161 24.9361 22.5205 24.9671V25.4926L22.4468 25.4916Z" fill="#939598"/>
<path d="M23.2584 24.913C23.0579 24.913 22.9896 25.0029 22.9766 25.1297H23.5401C23.5336 24.9866 23.461 24.913 23.2584 24.913ZM23.2584 25.5089C23.1661 25.5184 23.0736 25.4937 22.9983 25.4396C22.9637 25.4062 22.9369 25.3656 22.9198 25.3206C22.9028 25.2757 22.8959 25.2275 22.8997 25.1795C22.8968 25.1287 22.9059 25.0779 22.9262 25.0312C22.9466 24.9845 22.9776 24.9433 23.0168 24.9108C23.09 24.8651 23.1755 24.8431 23.2616 24.848C23.3492 24.8427 23.4365 24.8638 23.5119 24.9086C23.5531 24.9437 23.5846 24.9886 23.6035 25.0393C23.6225 25.0899 23.6283 25.1445 23.6203 25.198H22.9701C22.9701 25.3269 23.0146 25.4418 23.2584 25.4418C23.3676 25.4389 23.4763 25.4265 23.5834 25.4049V25.471C23.4764 25.4929 23.3676 25.5056 23.2584 25.5089Z" fill="#939598"/>
<path d="M24.4188 24.9573C24.3373 24.9289 24.2516 24.9146 24.1653 24.9151C23.9485 24.9151 23.8401 24.9888 23.8401 25.1795C23.8401 25.3702 23.9247 25.4395 24.0883 25.4395C24.198 25.4344 24.307 25.418 24.4134 25.3908L24.4188 24.9573ZM24.4329 25.4926L24.4264 25.4558C24.3155 25.4857 24.2019 25.5042 24.0872 25.5111C24.043 25.5176 23.9978 25.5138 23.9554 25.4997C23.913 25.4857 23.8744 25.462 23.8428 25.4304C23.8112 25.3988 23.7875 25.3602 23.7735 25.3178C23.7594 25.2753 23.7556 25.2302 23.7621 25.186C23.7576 25.1319 23.7681 25.0776 23.7926 25.0292C23.8171 24.9808 23.8546 24.9402 23.9008 24.9118C23.9792 24.8717 24.0664 24.852 24.1544 24.8544C24.2421 24.8555 24.3293 24.8686 24.4134 24.8934V24.6008H24.4871V25.4915L24.4329 25.4926Z" fill="#939598"/>
<path d="M25.5665 24.9172C25.4567 24.9222 25.3477 24.9389 25.2414 24.9671V25.4005C25.3227 25.4298 25.4085 25.4445 25.495 25.4439C25.7117 25.4439 25.8201 25.3702 25.8201 25.1795C25.8201 24.9888 25.7356 24.9194 25.5719 24.9194M25.7594 25.4558C25.6814 25.4948 25.5951 25.5142 25.508 25.5121C25.4125 25.5114 25.3178 25.4953 25.2274 25.4645V25.4937H25.1775V24.6008H25.2512V24.8999C25.3598 24.8721 25.4709 24.8547 25.5828 24.8479C25.6602 24.8434 25.7368 24.866 25.7995 24.9118C25.8345 24.946 25.8616 24.9876 25.8787 25.0335C25.8957 25.0794 25.9023 25.1285 25.8981 25.1773C25.9019 25.2314 25.891 25.2856 25.8666 25.334C25.8422 25.3824 25.8051 25.4234 25.7594 25.4525" fill="#939598"/>
<path d="M25.9955 25.7321V25.6639C26.0324 25.6639 26.0649 25.6704 26.0887 25.6704C26.1312 25.674 26.1735 25.6633 26.2091 25.6399C26.2447 25.6165 26.2714 25.5818 26.2848 25.5414L26.3087 25.4916L25.9836 24.8652H26.0682L26.3488 25.407L26.6153 24.8652H26.6988L26.3455 25.5696C26.3268 25.623 26.2909 25.6686 26.2434 25.6994C26.196 25.7302 26.1397 25.7443 26.0833 25.7397C26.0532 25.7394 26.0232 25.7373 25.9934 25.7332" fill="#939598"/>
<path d="M27.7054 25.1339H27.4627V25.3506H27.7054C27.8734 25.3506 27.9363 25.3322 27.9363 25.2423C27.9363 25.1523 27.8495 25.1339 27.7033 25.1339M27.6599 24.7796H27.4616V25.0028H27.661C27.8257 25.0028 27.8918 24.9833 27.8918 24.8944C27.8918 24.8056 27.8084 24.7861 27.6599 24.7861M28.0381 25.4362C27.9148 25.4927 27.7781 25.5133 27.6437 25.4958H27.272V24.643H27.635C27.758 24.6284 27.8826 24.6471 27.9959 24.6972C28.0246 24.7145 28.048 24.7395 28.0633 24.7694C28.0786 24.7992 28.0853 24.8328 28.0825 24.8663C28.0848 24.9083 28.0729 24.9498 28.0484 24.9841C28.024 25.0184 27.9886 25.0433 27.9482 25.0548C28.0565 25.0797 28.1281 25.1361 28.1281 25.2563C28.1307 25.2906 28.1237 25.325 28.1078 25.3554C28.0919 25.3859 28.0678 25.4113 28.0381 25.4287" fill="#939598"/>
<path d="M28.8703 25.2293C28.7966 25.2228 28.724 25.2195 28.6449 25.2195C28.517 25.2195 28.4726 25.2455 28.4726 25.3041C28.4726 25.3626 28.5094 25.3886 28.6081 25.3886C28.6969 25.3856 28.7852 25.3732 28.8714 25.3517L28.8703 25.2293ZM28.9071 25.4926V25.4557C28.7962 25.4871 28.6821 25.5057 28.5669 25.511C28.5004 25.5153 28.4342 25.499 28.3772 25.4644C28.3519 25.4439 28.3321 25.4173 28.3198 25.3872C28.3074 25.357 28.3029 25.3242 28.3065 25.2918C28.3102 25.2594 28.322 25.2284 28.3408 25.2018C28.3596 25.1751 28.3848 25.1537 28.4141 25.1393C28.4893 25.1119 28.5694 25.1005 28.6493 25.1057C28.7154 25.1057 28.8031 25.1057 28.8757 25.1144V25.1036C28.8757 25.0061 28.8118 24.9735 28.6352 24.9735C28.5669 24.9735 28.4835 24.9735 28.4044 24.9844V24.8576C28.4921 24.85 28.5918 24.8457 28.6742 24.8457C28.7753 24.8371 28.8767 24.8573 28.9667 24.9042C28.9987 24.9297 29.0234 24.9631 29.0384 25.0011C29.0534 25.0392 29.0583 25.0805 29.0524 25.1209V25.4915L28.9071 25.4926Z" fill="#939598"/>
<path d="M29.864 25.4915V25.1469C29.864 25.0332 29.8054 24.992 29.7014 24.992C29.615 24.9957 29.5293 25.0088 29.4457 25.031V25.4926H29.2712V24.8652H29.4143L29.4208 24.9053C29.5298 24.8731 29.6422 24.8538 29.7556 24.8479C29.8334 24.841 29.9107 24.8639 29.9723 24.9118C29.9974 24.9374 30.0166 24.9683 30.0284 25.0022C30.0402 25.0361 30.0444 25.0722 30.0406 25.1079V25.4915H29.864Z" fill="#939598"/>
<path d="M30.5325 25.5099C30.4495 25.5158 30.3671 25.4924 30.2996 25.4438C30.264 25.4099 30.2365 25.3684 30.2192 25.3225C30.202 25.2765 30.1953 25.2272 30.1999 25.1783C30.1965 25.1263 30.2065 25.0743 30.2289 25.0273C30.2513 24.9803 30.2853 24.9397 30.3278 24.9096C30.4116 24.8628 30.5072 24.8414 30.603 24.8478C30.6767 24.8478 30.746 24.8478 30.8197 24.8597V24.9941C30.7569 24.9875 30.681 24.9832 30.6203 24.9832C30.4534 24.9832 30.3754 25.0353 30.3754 25.1794C30.3754 25.3235 30.434 25.3733 30.5705 25.3733C30.6591 25.3703 30.7472 25.3594 30.8338 25.3408V25.4698C30.7335 25.4932 30.6312 25.5066 30.5282 25.5099" fill="#939598"/>
<path d="M31.3539 24.9789C31.187 24.9789 31.1145 25.031 31.1145 25.174C31.1145 25.317 31.1881 25.3777 31.3539 25.3777C31.5197 25.3777 31.5912 25.3268 31.5912 25.1837C31.5912 25.0407 31.5207 24.9789 31.3539 24.9789ZM31.6541 25.4427C31.5628 25.494 31.4583 25.517 31.3539 25.5088C31.2492 25.5164 31.1446 25.4935 31.0527 25.4427C31.0117 25.4127 30.9791 25.3726 30.9584 25.3262C30.9377 25.2799 30.9295 25.2289 30.9346 25.1783C30.9296 25.1276 30.9379 25.0765 30.9586 25.03C30.9793 24.9835 31.0117 24.9431 31.0527 24.9128C31.1472 24.8696 31.2499 24.8472 31.3539 24.8472C31.4578 24.8472 31.5606 24.8696 31.6551 24.9128C31.6958 24.9431 31.7279 24.9833 31.7484 25.0296C31.769 25.076 31.7771 25.1268 31.7722 25.1772C31.7769 25.2278 31.7686 25.2787 31.7481 25.3252C31.7276 25.3716 31.6946 25.4121 31.6541 25.4427Z" fill="#939598"/>
<path d="M32.7821 25.51C32.6732 25.5169 32.5652 25.4859 32.4766 25.4222C32.4289 25.377 32.392 25.3214 32.3689 25.2599C32.3458 25.1983 32.337 25.1323 32.3432 25.0668C32.3393 24.997 32.3531 24.9274 32.3833 24.8643C32.4134 24.8013 32.4588 24.7468 32.5155 24.706C32.6251 24.6447 32.7501 24.6165 32.8753 24.6247C32.9696 24.6247 33.0671 24.6312 33.1722 24.6399V24.7926C33.0823 24.7851 32.9696 24.7786 32.8829 24.7786C32.6402 24.7786 32.5383 24.8707 32.5383 25.0668C32.5383 25.2629 32.6337 25.3561 32.8125 25.3561C32.9399 25.3517 33.0666 25.3347 33.1907 25.3052V25.4569C33.0562 25.4879 32.9189 25.5057 32.781 25.51" fill="#939598"/>
<path d="M33.7054 24.9596C33.5591 24.9596 33.5038 25.0116 33.4886 25.1058H33.9113C33.9113 25.004 33.8463 24.9596 33.7021 24.9596M33.6761 25.5089C33.5822 25.5173 33.4884 25.4928 33.4106 25.4396C33.3757 25.4059 33.3486 25.3649 33.3312 25.3196C33.3138 25.2743 33.3065 25.2258 33.3099 25.1774C33.3073 25.1271 33.3166 25.0769 33.3371 25.031C33.3577 24.985 33.3888 24.9446 33.4279 24.913C33.5104 24.8635 33.6062 24.8408 33.7021 24.848C33.797 24.8416 33.8916 24.8635 33.9741 24.9108C34.0172 24.9486 34.0498 24.9969 34.0687 25.051C34.0877 25.1051 34.0924 25.1632 34.0824 25.2196H33.4876C33.4876 25.3161 33.5417 25.3778 33.7183 25.3778C33.8302 25.3753 33.9418 25.3644 34.0521 25.3453V25.4678C33.9274 25.4916 33.8009 25.5053 33.674 25.5089" fill="#939598"/>
<path d="M34.8669 25.4915V25.1469C34.8669 25.0332 34.8084 24.992 34.7044 24.992C34.618 24.9957 34.5322 25.0088 34.4486 25.031V25.4926H34.2731V24.8652H34.4161L34.4226 24.9053C34.5316 24.8731 34.644 24.8538 34.7575 24.8479C34.8352 24.841 34.9126 24.8639 34.9741 24.9118C34.9993 24.9374 35.0184 24.9683 35.0302 25.0022C35.042 25.0361 35.0462 25.0722 35.0425 25.1079V25.4915H34.8669Z" fill="#939598"/>
<path d="M35.5388 25.5099C35.5 25.5137 35.4609 25.5075 35.4252 25.4917C35.3895 25.476 35.3584 25.4512 35.3351 25.42C35.3005 25.363 35.2843 25.2968 35.2885 25.2303V24.9952H35.1617V24.8652H35.2885L35.3069 24.6755H35.4619V24.8652H35.709V24.9952H35.4619V25.1967C35.4596 25.2372 35.4655 25.2778 35.4792 25.3159C35.4896 25.3367 35.5063 25.3536 35.527 25.3641C35.5477 25.3747 35.5712 25.3783 35.5941 25.3744C35.6359 25.3735 35.6776 25.3691 35.7187 25.3615V25.4871C35.6592 25.5002 35.5997 25.5078 35.5388 25.5099Z" fill="#939598"/>
<path d="M35.8812 25.4925V24.8662H36.0243L36.0308 24.9063C36.1307 24.8722 36.2351 24.8529 36.3407 24.8489H36.3634V25.0006H36.3027C36.2197 25.001 36.1371 25.0119 36.0568 25.0331V25.4958L35.8812 25.4925Z" fill="#939598"/>
<path d="M36.9995 25.2292C36.9258 25.2227 36.8532 25.2195 36.773 25.2195C36.6451 25.2195 36.6007 25.2455 36.6007 25.304C36.6007 25.3625 36.6376 25.3885 36.7362 25.3885C36.825 25.3855 36.9132 25.3732 36.9995 25.3517V25.2292ZM37.0363 25.4925V25.4557C36.9254 25.4871 36.8112 25.5056 36.696 25.5109C36.6295 25.5152 36.5633 25.4989 36.5064 25.4643C36.4833 25.4467 36.4649 25.4236 36.4528 25.3971C36.4407 25.3707 36.4353 25.3417 36.4371 25.3126C36.4355 25.2766 36.445 25.2409 36.4644 25.2105C36.4838 25.18 36.5121 25.1563 36.5454 25.1425C36.6203 25.1152 36.7 25.1038 36.7795 25.1089C36.8456 25.1089 36.9334 25.1089 37.0071 25.1176V25.1068C37.0071 25.0082 36.942 24.9767 36.7665 24.9767C36.6982 24.9767 36.6148 24.9767 36.5357 24.9875V24.8608C36.6235 24.8532 36.7231 24.8489 36.8055 24.8489C36.9066 24.8402 37.0081 24.8606 37.0981 24.9074C37.13 24.9329 37.1547 24.9663 37.1698 25.0043C37.1848 25.0423 37.1895 25.0836 37.1836 25.1241V25.4947L37.0363 25.4925Z" fill="#939598"/>
<path d="M37.3993 24.6008H37.5748V25.4915H37.3993V24.6008Z" fill="#939598"/>
</g>
</svg>
