<svg width="40" height="41" viewBox="0 0 40 41" fill="none" xmlns="http://www.w3.org/2000/svg">
<mask id="mask0_4368_764" style="mask-type:alpha" maskUnits="userSpaceOnUse" x="0" y="0" width="40" height="41">
<rect y="0.615479" width="40" height="40" fill="#D9D9D9"/>
</mask>
<g mask="url(#mask0_4368_764)">
<path d="M9.76879 16.5987C9.72516 16.3434 9.59279 16.1164 9.39936 15.9652C9.20594 15.8139 8.96642 15.7501 8.73089 15.7871H5.02762L5 15.9831C6.25032 16.2349 7.4201 16.834 8.3966 17.7226C9.3731 18.6112 10.1234 19.7593 10.5751 21.0563L9.77197 16.6033L9.76879 16.5987ZM10.8067 22.3953L10.5719 21.0517C10.0145 19.5659 8.93981 18.3822 7.58358 17.7603L9.45115 25.4594H11.8711L15.483 15.7825H13.0471L10.8067 22.3907V22.3953ZM17.2667 25.4745L18.704 15.7837H16.4083L14.9699 25.4745H17.2667ZM23.5344 15.6202C21.2653 15.6202 19.6761 16.9337 19.6612 18.8199C19.6474 20.2111 20.7957 20.9786 21.6669 21.4482C22.5666 21.9119 22.8567 22.233 22.8567 22.655C22.8567 23.3042 22.1375 23.5918 21.4873 23.5918C20.7408 23.6303 19.9978 23.4587 19.3297 23.0932L19.0248 22.9275L18.7061 25.1012C19.5202 25.4535 20.3897 25.628 21.2653 25.6148C23.6725 25.6299 25.2363 24.3163 25.2628 22.3095C25.2628 21.207 24.6403 20.3769 23.3262 19.6813C22.5242 19.2443 22.0408 18.9266 22.0408 18.4745C22.0408 18.0675 22.4551 17.6432 23.3549 17.6432C23.9444 17.6179 24.5313 17.7421 25.0695 18.0061L25.282 18.122L25.6007 16.0236C24.9426 15.75 24.2439 15.6117 23.5397 15.6156L23.5344 15.6202ZM29.7044 15.786C29.4493 15.7527 29.1913 15.8148 28.9727 15.9622C28.754 16.1096 28.5877 16.3336 28.5008 16.5975L25.1014 25.4733H27.5086C27.8963 24.2816 27.9941 24.0242 27.9941 24.0242H30.9261C30.9261 24.0242 30.9962 24.3569 31.2023 25.4733H33.3333L31.4796 15.7825H29.7023L29.7044 15.786ZM28.6421 22.0359C28.6421 22.0359 28.8354 21.4771 29.5557 19.3335C29.5419 19.3486 29.749 18.7747 29.8606 18.413L30.0263 19.2443C30.4512 21.5536 30.5575 22.0371 30.5575 22.0371H28.6453L28.6421 22.0359Z" fill="#000974"/>
</g>
</svg>
