<svg width="161" height="144" viewBox="0 0 161 144" fill="none" xmlns="http://www.w3.org/2000/svg">
<path d="M114.925 10.5C115.384 10.5 115.852 10.7476 116.122 11.2216L150.211 71.2216C150.483 71.7002 150.483 72.2998 150.211 72.7784L116.122 132.778C115.852 133.252 115.384 133.5 114.925 133.5H46.9047C46.4458 133.5 45.9776 133.252 45.7083 132.778L11.6189 72.7784C11.3469 72.2998 11.3469 71.7002 11.6189 71.2216L45.7083 11.2216C45.9776 10.7476 46.4458 10.5 46.9047 10.5H114.925Z" stroke="#263572" stroke-width="21"/>
<path d="M52.1719 87.5833L53.2844 87.7158C53.7877 87.7687 53.8407 88.1925 53.8407 88.4574V89.7553H48.7285V88.4574C48.7285 88.1925 48.7815 87.7687 49.2847 87.7158L50.3972 87.5833V86.4708H43.7753V87.5833L44.8878 87.7158C45.391 87.7687 45.444 88.1925 45.444 88.4574V92.7484C45.444 93.0133 45.391 93.4371 44.8878 93.4901L43.7753 93.6226V94.735H50.3972V93.6226L49.2847 93.4901C48.7815 93.4371 48.7285 93.0133 48.7285 92.7484V91.4505H53.8142V92.7484C53.8142 93.0133 53.7612 93.4371 53.2579 93.4901L52.1454 93.6226V94.735H58.7674V93.6226L57.6549 93.4901C57.1516 93.4371 57.0987 93.0133 57.0987 92.7484V88.4574C57.0987 88.1925 57.1516 87.7687 57.6549 87.7158L58.7674 87.5833V86.4708H52.1454V87.5833H52.1719Z" fill="black"/>
<path d="M96.2742 86.4708H88.116V87.5833L89.096 87.6893C89.4404 87.7422 89.6787 87.8747 89.6787 88.3515V92.722C89.6787 92.9868 89.6258 93.4106 89.1225 93.4636L88.01 93.5961V94.7086H96.2742C99.2409 94.7086 101.678 93.5166 101.678 90.5764C101.678 87.6363 99.2409 86.4708 96.2742 86.4708ZM95.665 93.1458H92.8838V88.0601H95.665C97.3072 88.0601 97.8635 88.8282 97.8635 90.6029C97.8635 92.3511 97.3073 93.1458 95.665 93.1458Z" fill="black"/>
<path d="M115.557 93.4901C115.028 93.4371 114.869 93.0928 114.71 92.8544L110.895 87.0271C110.631 86.6033 110.419 86.4708 110.021 86.4708H103.77V87.5833L105.28 87.7422C105.492 87.7687 105.783 88.0601 105.545 88.4309L102.711 93.0133C102.605 93.1987 102.446 93.4106 102.128 93.4636L101.016 93.5961V94.7086H106.287V93.5961L105.386 93.5166C104.989 93.4636 104.777 93.1987 104.989 92.8809L105.412 92.1922H110.498L110.869 92.7484C111.213 93.2517 110.79 93.4636 110.419 93.4901L109.492 93.5961V94.7086H116.643V93.5961L115.557 93.4901ZM106.287 90.7354L107.849 88.1925L109.518 90.7354H106.287Z" fill="black"/>
<path d="M82.2092 87.5833L83.3217 87.7158C83.825 87.7687 83.878 88.1925 83.878 88.4574V92.5895L79.5075 86.8152C79.3221 86.5503 79.1366 86.4708 78.6599 86.4708H72.9915V87.5833L74.1039 87.7158C74.6072 87.7687 74.6602 88.1925 74.6602 88.4574V92.7485C74.6602 93.0133 74.6072 93.4371 74.1039 93.4901L72.9915 93.6226V94.735H78.289V93.6226L77.1765 93.4901C76.6733 93.4371 76.6203 93.0133 76.6203 92.7485V88.6163L80.9908 94.3642C81.2027 94.6291 81.3616 94.7086 81.8384 94.7086H81.8914H85.8646V88.4309C85.8646 88.166 85.9175 87.7422 86.4208 87.6893L87.5333 87.5568V86.4443H82.2622L82.2092 87.5833Z" fill="black"/>
<path d="M65.8661 86.1796C60.4891 86.1796 59.1117 88.537 59.1117 90.5766C59.1117 92.6161 60.4891 95 65.8661 95C71.2431 95 72.6205 92.6426 72.6205 90.603C72.6205 88.537 71.2431 86.1796 65.8661 86.1796ZM65.8661 93.4372C63.7736 93.4372 62.9259 92.5631 62.9259 90.603C62.9259 88.6429 63.8 87.7688 65.8661 87.7688C67.9586 87.7688 68.8063 88.6429 68.8063 90.603C68.8063 92.5631 67.9586 93.4372 65.8661 93.4372Z" fill="black"/>
<path d="M89.3608 51.6394C88.4603 55.692 88.0894 57.5727 87.3478 60.4864C86.6326 63.2941 86.0763 65.9164 85.1228 67.1878C84.1692 68.4857 82.8713 68.7506 81.9972 68.8565C81.5469 68.9095 81.2026 68.936 80.2225 68.936C79.2425 68.936 78.8981 68.9095 78.4478 68.8565C77.5737 68.7506 76.2758 68.4857 75.3223 67.1878C74.3687 65.9164 73.8125 63.2941 73.1238 60.4864C72.3821 57.5462 72.0113 55.692 71.1107 51.6394C71.1107 51.6394 70.2101 51.6659 69.8128 51.6924C69.2565 51.7189 68.8327 51.7718 68.3824 51.8248C68.3824 51.8248 68.9122 60.1685 69.1506 63.7179C69.389 67.4262 69.8393 73.7038 70.2366 78.4451C70.2366 78.4451 71.0047 78.5776 72.2762 78.6305C73.6006 78.71 74.2098 78.71 74.2098 78.71C74.766 76.6175 75.4282 73.7303 76.1964 72.4854C76.8321 71.4788 77.7856 71.3729 78.3419 71.2934C79.1895 71.1875 79.9312 71.161 80.249 71.161C80.5934 71.161 81.3085 71.161 82.1561 71.2934C82.7124 71.3729 83.6659 71.4788 84.3017 72.4854C85.0698 73.7303 85.7585 76.6175 86.2882 78.71C86.2882 78.71 86.871 78.71 88.1954 78.6305C89.4668 78.5511 90.2349 78.4451 90.2349 78.4451C90.6323 73.7038 91.0826 67.4527 91.3209 63.7179C91.5593 60.195 92.0891 51.8248 92.0891 51.8248C91.6388 51.7718 91.1885 51.7189 90.6587 51.6924C90.2614 51.6659 89.3608 51.6394 89.3608 51.6394Z" fill="black"/>
<path d="M99.8766 56.5661C99.3469 51.2686 95.7975 50.1561 92.6984 49.6263C91.1356 49.3614 88.3544 49.1495 86.5797 49.0701C85.0169 48.9641 81.3616 48.9111 80.2491 48.9111C79.1366 48.9111 75.4813 48.9641 73.9185 49.0701C72.1438 49.1495 69.3626 49.3614 67.7998 49.6263C64.7007 50.1561 61.1514 51.2686 60.6216 56.5661C60.4627 58.023 60.4362 59.9036 60.4627 61.9167C60.5157 65.2806 60.807 67.5321 60.966 69.1214C61.0719 70.2074 61.5222 73.4389 62.1049 75.1076C62.8996 77.4121 63.6147 78.0743 64.4624 78.763C65.9986 80.0079 68.5415 80.4052 69.0712 80.5112C71.9319 81.0144 77.7063 81.1204 80.2756 81.1204C82.8184 81.1204 88.6193 81.0409 91.48 80.5112C92.0097 80.4052 94.5526 80.0344 96.0889 78.763C96.9365 78.0743 97.6516 77.4121 98.4463 75.1076C99.029 73.4389 99.4793 70.1809 99.5853 69.1214C99.7442 67.5586 100.036 65.2806 100.089 61.9167C100.062 59.8771 100.009 57.9965 99.8766 56.5661ZM97.9165 65.4661C97.5987 69.7041 97.2278 72.2469 96.6981 74.0746C96.2213 75.6904 95.6386 76.7499 94.791 77.518C93.3606 78.8159 91.4005 79.0808 90.235 79.2662C87.7452 79.6371 83.5336 79.7695 80.2491 79.7695C76.9381 79.7695 72.7531 79.6371 70.2632 79.2662C69.0977 79.0808 67.1376 78.8159 65.7073 77.518C64.8597 76.7499 64.2769 75.6639 63.8002 74.0746C63.2704 72.2469 62.8731 69.7041 62.5817 65.4661C62.3963 62.9232 62.4228 58.7911 62.7142 56.5661C63.1115 53.2287 64.7537 51.5599 68.2766 50.9507C69.9189 50.6593 72.1438 50.4474 74.2364 50.3415C75.9316 50.2355 78.6863 50.1826 80.2491 50.1826C81.7854 50.1561 84.5666 50.2355 86.2354 50.3415C88.3279 50.4474 90.5529 50.6593 92.1952 50.9507C95.718 51.5864 97.3603 53.2551 97.7841 56.5661C98.0755 58.7646 98.1019 62.8967 97.9165 65.4661Z" fill="black"/>
</svg>
