<svg width="161" height="144" viewBox="0 0 161 144" fill="none" xmlns="http://www.w3.org/2000/svg">
<path d="M114.925 10.5C115.384 10.5 115.852 10.7476 116.122 11.2216L150.211 71.2216C150.483 71.7002 150.483 72.2998 150.211 72.7784L116.122 132.778C115.852 133.252 115.384 133.5 114.925 133.5H46.9047C46.4458 133.5 45.9776 133.252 45.7083 132.778L11.6189 72.7784C11.3469 72.2998 11.3469 71.7002 11.6189 71.2216L45.7083 11.2216C45.9776 10.7476 46.4458 10.5 46.9047 10.5H114.925Z" stroke="#263572" stroke-width="21"/>
<path d="M88.0375 74.4323C87.9788 74.447 87.7438 74.447 87.6411 74.447H80.0649V76.2089H87.7732C87.8319 76.2089 88.2871 76.2089 88.3752 76.1942C89.9462 76.0474 90.6657 74.7406 90.6657 73.5954C90.6657 72.4208 89.9169 71.1581 88.4927 71.0259C88.2137 70.9966 87.9788 70.9966 87.876 70.9966H82.8399C82.6196 70.9966 82.37 70.9819 82.2819 70.9525C81.8855 70.8497 81.7387 70.4974 81.7387 70.2037C81.7387 69.9394 81.8855 69.587 82.2966 69.4696C82.4141 69.4402 82.5462 69.4255 82.8252 69.4255H90.0931V67.693H82.7077C82.3994 67.693 82.1645 67.7077 81.9736 67.737C80.7109 67.9132 79.83 68.9263 79.83 70.2184C79.83 71.2755 80.4907 72.5089 81.9442 72.7144C82.2085 72.7438 82.5756 72.7438 82.7371 72.7438H87.6411C87.7292 72.7438 87.9494 72.7438 87.9934 72.7585C88.5514 72.8319 88.7423 73.243 88.7423 73.6101C88.7423 73.9624 88.522 74.3442 88.0375 74.4323Z" fill="black"/>
<path d="M73.678 74.4323C73.6193 74.447 73.3843 74.447 73.2963 74.447H65.7054V76.2089H73.4137C73.4724 76.2089 73.9276 76.2089 74.0157 76.1942C75.5867 76.0474 76.3062 74.7406 76.3062 73.5954C76.3062 72.4208 75.5574 71.1581 74.1332 71.0259C73.8542 70.9966 73.6193 70.9966 73.5165 70.9966H68.4804C68.2601 70.9966 68.0105 70.9819 67.9224 70.9525C67.526 70.8497 67.3792 70.4974 67.3792 70.2037C67.3792 69.9394 67.526 69.587 67.9371 69.4696C68.0546 69.4402 68.1867 69.4255 68.4657 69.4255H75.7336V67.693H68.3482C68.0399 67.693 67.805 67.7077 67.6141 67.737C66.3514 67.9132 65.4705 68.9263 65.4705 70.2184C65.4705 71.2755 66.1312 72.5089 67.5847 72.7144C67.849 72.7438 68.2161 72.7438 68.3776 72.7438H73.2816C73.3697 72.7438 73.5899 72.7438 73.634 72.7585C74.1919 72.8319 74.3828 73.243 74.3828 73.6101C74.3828 73.9624 74.1772 74.3442 73.678 74.4323Z" fill="black"/>
<path d="M61.7558 67.6343H59.847V76.2529H61.7558V67.6343Z" fill="black"/>
<path d="M55.6332 76.2529V67.6343H53.7244V74.0652L47.3669 67.6343H44.9149V76.2529H46.8236V69.7926L53.2252 76.2529H55.6332Z" fill="black"/>
<path d="M117.021 67.6343V74.0652L110.663 67.6343H108.211V76.2529H110.12V69.7926L116.507 76.2529H118.915V67.6343H117.021Z" fill="black"/>
<path d="M98.2713 67.6343L92.8975 76.2529H95.2173L96.1717 74.7113H102.441L103.395 76.2529H105.701L100.327 67.6343H98.2713ZM101.457 73.0815H97.1554L99.3137 69.6164L101.457 73.0815Z" fill="black"/>
<path d="M55.5303 62.745C59.3772 51.5128 69.978 43.966 81.9296 43.966C93.8811 43.966 104.497 51.5128 108.329 62.745L108.358 62.8331H116.771V61.82L113.277 61.4089C111.118 61.1592 110.663 60.2049 110.076 59.0009L109.929 58.7073C104.878 47.9596 93.8811 41.0001 81.9296 41.0001C69.9633 41.0001 58.9807 47.9596 53.93 58.7366L53.7831 59.0303C53.1958 60.2342 52.7407 61.1886 50.5823 61.4382L47.0879 61.8493V62.8624H55.4863L55.5303 62.745Z" fill="black"/>
<path d="M108.358 81.0688L108.329 81.1569C104.482 92.389 93.8811 99.9211 81.9295 99.9211C69.9779 99.9211 59.3625 92.3743 55.5303 81.1422L55.5009 81.0541H47.1025V82.0672L50.597 82.4783C52.7553 82.7279 53.2105 83.6823 53.7978 84.8862L53.9446 85.1799C58.9954 95.9569 69.9926 102.916 81.9442 102.916C93.8958 102.916 104.893 95.9569 109.944 85.1946L110.091 84.9009C110.678 83.6969 111.133 82.7426 113.291 82.493L116.786 82.0819V81.0688H108.358Z" fill="black"/>
</svg>
