<svg width="161" height="144" viewBox="0 0 161 144" fill="none" xmlns="http://www.w3.org/2000/svg">
<path d="M114.925 10.5C115.384 10.5 115.852 10.7476 116.122 11.2216L150.211 71.2216C150.483 71.7002 150.483 72.2998 150.211 72.7784L116.122 132.778C115.852 133.252 115.384 133.5 114.925 133.5H46.9047C46.4458 133.5 45.9776 133.252 45.7083 132.778L11.6189 72.7784C11.3469 72.2998 11.3469 71.7002 11.6189 71.2216L45.7083 11.2216C45.9776 10.7476 46.4458 10.5 46.9047 10.5H114.925Z" stroke="#263572" stroke-width="21"/>
<path d="M56.1761 56V72.6869C56.1761 74.8579 54.7629 76.1469 52.4736 76.1469C50.1857 76.1469 48.9736 74.4506 48.9736 72.619V69.6342H42.9149V72.6869C42.9149 75.8075 43.8576 81.3698 52.5411 81.3698C61.2246 81.3698 62.4363 75.4001 62.4363 72.5512V56H56.1761ZM72.129 62.9189C66.4078 62.9189 63.8502 68.2097 63.8502 72.7548C63.8502 77.2992 66.7449 81.7092 72.6682 81.7092C77.8517 81.777 81.2845 78.3847 81.2845 75.8743H75.5624C75.5624 75.8743 74.8895 77.5025 72.8697 77.5025C70.8506 77.5025 69.7063 76.3499 69.7063 73.5694H81.3521C81.3521 64.8186 77.0437 62.9189 72.129 62.9189ZM90.8432 62.9189C85.1206 62.9189 82.5634 68.2097 82.5634 72.7548C82.5634 77.2992 85.4591 81.7092 91.3824 81.7092C96.5652 81.777 99.9977 78.3847 99.9977 75.8743H94.2766C94.2766 75.8743 93.6027 77.5025 91.5829 77.5025C89.5638 77.5025 88.4195 76.3499 88.4195 73.5694H100.065C100.065 64.8186 95.7572 62.9189 90.8432 62.9189ZM112.51 63.1226C109.615 63.1226 108.526 64.4786 108.134 64.9534C107.683 65.5009 107.535 65.8128 107.327 66.2641V63.5967H101.538V87H107.394V79.7406C107.638 80.065 107.774 80.2194 108.203 80.5552C108.874 81.0821 110.019 81.9797 112.577 81.9797C117.222 81.9797 119.915 77.91 119.915 72.3475C119.915 65.1573 115.404 63.1226 112.51 63.1226ZM72.5341 66.7173C74.6894 66.7173 75.63 68.3454 75.63 70.0415H69.7063C69.7063 68.21 70.4477 66.7173 72.5341 66.7173ZM91.2473 66.7173C93.4026 66.7173 94.3431 68.3454 94.3431 70.0415H88.4195C88.4195 68.21 89.1601 66.7173 91.2473 66.7173ZM110.491 67.6677C113.453 67.6677 113.991 69.9734 113.991 72.3475C113.991 74.7217 113.588 77.8419 110.76 77.8419C107.934 77.8419 107.193 76.0111 107.259 72.5512C107.327 69.0919 108.674 67.6677 110.491 67.6677Z" fill="#101010"/>
</svg>
