<svg width="161" height="142" viewBox="0 0 161 142" fill="none" xmlns="http://www.w3.org/2000/svg">
<path d="M45.9149 49.0005L47.3344 92.8417H54.2351L54.0838 74.6613H59.8701V68.9941H54.0838L54.1053 54.7288H61.6599L61.6192 49.0005H45.9149Z" fill="#101010"/>
<path d="M64.3467 49.0004L65.2197 92.8416H72.3453L72.49 49.0004H64.3467Z" fill="#101010"/>
<path d="M97.7514 49.0004V54.5302H103.38L103.218 92.8416H110.112L111.576 54.5238H117.158L117.116 49.0004H97.7514Z" fill="#101010"/>
<path d="M83.2357 69.2909L83.3138 54.3994H87.2921C89.0959 57.7161 90.2549 62.102 91.1635 69.2909H83.2357ZM76.8787 92.8403H77.5776H82.7205H83.4752L83.5488 74.7116H91.4529C92.0742 77.9114 92.2265 87.7886 92.2636 92.8403H92.9171H98.0797H98.6627C99.2664 70.4584 97.3909 57.8072 92.2088 49H76.2751L76.8787 92.8403Z" fill="#101010"/>
<path d="M114.925 10.5C115.456 10.5 115.917 10.7827 116.153 11.1927L150.242 70.3594C150.472 70.7586 150.472 71.2414 150.242 71.6406L116.153 130.807C115.917 131.217 115.456 131.5 114.925 131.5H46.9047C46.3737 131.5 45.9131 131.217 45.6769 130.807L11.5874 71.6406C11.3574 71.2413 11.3574 70.7586 11.5874 70.3594L45.6769 11.1927C45.9131 10.7827 46.3737 10.5 46.9047 10.5H114.925Z" stroke="#263572" stroke-width="21"/>
</svg>
