<svg width="161" height="144" viewBox="0 0 161 144" fill="none" xmlns="http://www.w3.org/2000/svg">
<path d="M64.9386 56.0002C64.0248 56.0031 63.1064 56.0386 62.1818 56.1143C56.0409 56.6261 50.1957 60.0496 50.1851 65.2473C50.1785 67.883 52.071 70.0187 55.0033 69.9247C58.4489 69.809 61.2775 67.0758 62.7583 63.6296C63.3201 62.3221 62.2796 61.779 61.7845 62.5318C60.9221 63.8469 59.7209 64.9049 58.3074 65.5943C56.6862 66.3804 54.9533 66.1683 54.4278 64.8648C53.6892 63.0258 55.2246 60.274 58.7283 58.9791C63.7891 57.1239 69.0842 58.3511 74.1794 59.2989C74.2521 59.2989 74.5235 59.4479 74.2836 59.5717C73.3711 60.0643 72.4728 60.4649 71.0733 61.6572C70.07 62.508 68.7564 63.6407 67.7404 64.8745C66.732 66.0905 66.0172 67.1752 65.0714 68.3776C64.9396 68.5514 64.7773 68.5434 64.7793 68.5434C62.474 68.9289 60.2172 69.1871 58.1508 70.6098C57.7234 70.9018 57.5379 71.4202 57.797 71.8168C58.0299 72.1684 58.5626 72.2057 58.9325 71.9395C60.2162 70.9887 61.5379 70.5411 63.0536 70.4996C63.1198 70.5037 63.1516 70.5143 63.1703 70.5547C63.1819 70.5775 63.1748 70.6254 63.1476 70.6607C60.8771 73.7795 60.3085 74.4843 58.6004 76.4177C57.7268 77.4115 56.8675 78.2503 55.9076 79.1233C52.0295 82.6906 47.8583 82.629 46.3619 80.3924C45.4676 79.05 45.5855 77.6409 46.1715 76.4718C46.893 75.04 48.3509 73.9906 49.5634 73.3778C50.0136 73.1504 50.1431 72.5805 49.6924 72.0611C49.406 71.7226 48.7112 71.6625 48.1938 71.7565C46.6054 72.047 44.7285 73.2359 43.6195 74.6667C42.3696 76.2723 41.7452 78.2215 41.9549 80.4091C42.3313 84.3564 45.6137 86.6365 49.3402 86.6102C52.3055 86.5873 55.0986 85.6977 58.4594 82.3197C61.5923 79.1691 64.4464 74.463 67.1191 70.0989C67.2029 69.9594 67.2624 69.8847 67.6686 69.8347C69.345 69.627 71.8202 69.3907 73.4066 69.2997C73.7592 69.2805 73.8309 69.2844 73.9723 69.4587C74.3856 69.9751 75.0064 70.4133 75.5036 70.68C75.7461 70.8104 75.8614 70.8754 76.0518 70.8785C76.2868 70.8835 76.4696 70.7584 76.5878 70.626C76.7561 70.4431 76.8025 70.2039 76.7116 70.0498C76.6166 69.8881 75.5103 69.2811 75.4775 69.0355C75.4532 68.8824 75.6224 68.8455 75.6224 68.8455C76.4358 68.5928 77.282 68.073 77.7948 67.1004C78.2985 66.143 78.3798 64.8653 77.4582 64.1549C76.6494 63.531 75.4273 63.6294 74.4522 64.4959C73.4984 65.3371 73.1827 66.5609 73.3116 67.6335C73.3348 67.8195 73.3251 67.882 73.069 67.9032C71.6029 68.0194 70.1902 68.0598 68.619 68.1421C68.5139 68.1497 68.4805 68.0809 68.5417 68.0087C70.3509 64.8965 73.0522 62.6803 76.0401 60.4978C76.2381 60.3507 76.1777 60.0712 76.1696 59.8378C81.5643 60.9983 86.7778 63.1582 92.3746 63.1122C94.6891 63.0935 96.9048 62.7449 99.0227 61.5946C100.885 60.5887 101.641 59.6581 101.697 58.6911C101.74 58.0227 101.271 57.6002 100.602 57.7442C94.9476 59.0305 89.5528 59.0163 83.9267 58.3423C77.5008 57.57 71.3347 55.9801 64.9386 56.0002ZM76.2265 65.0196C76.3587 65.0266 76.4823 65.0705 76.5823 65.1554C76.8804 65.4075 76.7393 66.0365 76.4382 66.472C76.1093 66.9525 75.5515 67.3672 75.0428 67.4683C74.9407 67.487 74.8523 67.4435 74.8104 67.2197C74.7276 66.6271 74.9222 65.8335 75.5618 65.2742C75.762 65.0989 76.0062 65.008 76.2265 65.0196ZM121.622 65.1332C120.594 65.1332 119.246 65.135 118.174 65.135C117.919 65.135 117.787 65.1659 117.667 65.4008C117.271 66.151 112.452 73.3016 111.555 74.6904C111.405 74.9016 111.22 74.8722 111.199 74.6312C111.108 73.8067 110.389 72.8589 109.255 72.4052C108.391 72.0581 107.547 71.9955 106.669 72.1107C105.084 72.3214 103.672 73.15 102.431 74.0832C100.56 75.4922 98.9458 77.3164 96.8618 78.6653C95.724 79.3994 94.1665 80.0398 93.1242 79.0849C92.181 78.2189 92.287 76.295 93.7304 74.8077C93.8825 74.6516 94.0649 74.7818 94.0361 74.9218C93.8997 75.5947 94.0675 76.2638 94.5834 76.7331C95.2129 77.2914 96.114 77.355 96.885 76.9822C97.7954 76.5361 98.3301 75.6735 98.4867 74.6944C98.7277 73.1762 97.547 71.8369 96.0707 71.7298C94.8708 71.6465 93.7205 72.0597 92.5999 72.9762C92.0376 73.4375 91.7177 73.779 91.2322 74.463C91.1134 74.6318 90.9316 74.6489 90.9377 74.3999C90.9938 72.4563 90.1812 71.3626 88.558 71.3267C87.2989 71.2974 85.9527 71.9732 84.9039 72.8018C83.754 73.7163 82.7486 74.9278 81.671 76.0666C81.5371 76.207 81.4199 76.2005 81.3825 75.9282C81.3497 74.6404 81.0227 73.393 80.4204 72.5073C80.2077 72.1991 79.7595 72.0464 79.3827 72.2546C79.2089 72.3491 78.6032 72.6246 78.1632 72.9757C77.9444 73.154 77.8599 73.4121 77.9559 73.743C78.5369 75.6664 78.409 77.854 77.6209 79.7021C76.8969 81.3936 75.4899 82.9205 73.8369 83.4368C72.7476 83.7788 71.6148 83.6115 70.9141 82.6551C69.9516 81.3355 70.3408 79.0408 71.7746 77.1346C73.0412 75.4573 74.8717 74.3912 76.699 73.7046C76.9143 73.6228 76.9581 73.4866 76.8975 73.3057C76.7979 73.0076 76.6399 72.6032 76.5748 72.4178C76.4075 71.9767 75.9381 71.9045 75.3657 71.9666C74.0385 72.1197 72.8417 72.5698 71.6589 73.1968C68.5619 74.8388 67.0098 78.0166 66.3288 79.7172C66.0014 80.5332 65.7211 81.0435 65.3589 81.4952C64.8708 82.1029 64.258 82.6557 63.1374 83.6302C63.0363 83.7197 62.9606 83.906 63.0455 84.0788C63.1602 84.3137 63.7426 85.1281 63.9073 85.2009C64.0897 85.2898 64.3012 85.1657 64.3861 85.1051C65.1702 84.5791 66.1084 83.745 66.5677 83.1791C66.7283 82.9856 66.8943 83.067 66.9797 83.3611C67.4081 84.8747 68.53 86.1103 70.0815 86.6272C72.9209 87.5755 75.8663 86.203 78.0893 83.8138C79.5019 82.2956 80.0117 81.3189 80.5533 80.655C81.4708 79.5289 83.2815 77.01 85.4373 75.3927C86.228 74.7966 87.1642 74.3418 87.635 74.6434C88.0124 74.886 88.1343 75.4492 87.528 76.5404C85.3303 80.515 82.0947 85.1848 81.5016 86.318C81.3934 86.5146 81.4879 86.6687 81.6955 86.6687C82.8459 86.6636 83.9868 86.666 85.0311 86.666C85.2043 86.658 85.2828 86.5797 85.3697 86.458C87.0566 83.8434 88.6445 81.3538 90.3461 78.7807C90.4421 78.6292 90.5295 78.7467 90.533 78.8128C90.5684 79.4095 90.7163 80.2265 91.074 80.7631C91.7176 81.7543 92.6292 82.1802 93.6406 82.1867C94.4449 82.1958 94.8516 82.0747 95.719 81.7539C96.3259 81.5283 96.9002 81.2231 97.4267 80.8464C97.6809 80.6721 97.7252 80.9643 97.7186 81.0093C97.3286 83.0852 97.8107 85.5444 99.8942 86.5645C102.388 87.7821 105.127 86.071 106.704 84.5265C106.858 84.3775 107.024 84.3931 107.04 84.7134C107.073 85.3035 107.342 86.0034 107.835 86.4935C109.156 87.806 111.821 87.286 114.496 85.2353C116.214 83.9233 118.011 82.0687 119.634 80.1049C119.694 80.0291 119.739 79.9063 119.623 79.783C119.375 79.5268 119.018 79.2337 118.773 79.0079C118.661 78.9139 118.497 78.9408 118.402 79.0121C116.739 80.5787 115.241 82.3658 113.076 83.8435C112.346 84.3478 111.183 84.755 110.66 84.0548C110.456 83.7829 110.48 83.4064 110.68 82.9128C111.312 81.3537 121.305 66.289 121.823 65.4018L121.824 65.4008C121.913 65.2462 121.819 65.1332 121.622 65.1332ZM107.621 74.5513C107.882 74.549 108.127 74.5989 108.35 74.7051C109.581 75.2866 109.188 76.6977 108.638 77.8056C108.619 77.8403 108.607 77.8784 108.604 77.9176C108.6 77.9568 108.604 77.9964 108.615 78.0341C108.636 78.1493 108.787 78.2609 108.936 78.3139C108.988 78.3331 109.018 78.3705 108.959 78.4917C108.533 79.3936 108.143 79.9134 107.61 80.6965C107.121 81.4205 106.569 81.9849 105.9 82.5285C104.892 83.3545 103.493 84.2533 102.336 83.6491C101.822 83.3843 101.6 82.6724 101.61 82.0959C101.637 80.4741 102.363 78.81 103.708 77.1741C105.04 75.5502 106.487 74.5613 107.621 74.5513Z" fill="#101010"/>
<path d="M114.925 10.5C115.384 10.5 115.852 10.7476 116.122 11.2216L150.211 71.2216C150.483 71.7002 150.483 72.2998 150.211 72.7784L116.122 132.778C115.852 133.252 115.384 133.5 114.925 133.5H46.9047C46.4458 133.5 45.9776 133.252 45.7083 132.778L11.6189 72.7784C11.3469 72.2998 11.3469 71.7002 11.6189 71.2216L45.7083 11.2216C45.9776 10.7476 46.4458 10.5 46.9047 10.5H114.925Z" stroke="#263572" stroke-width="21"/>
</svg>
