<svg width="161" height="144" viewBox="0 0 161 144" fill="none" xmlns="http://www.w3.org/2000/svg">
<path d="M114.925 10.5C115.384 10.5 115.852 10.7476 116.122 11.2216L150.211 71.2216C150.483 71.7002 150.483 72.2998 150.211 72.7784L116.122 132.778C115.852 133.252 115.384 133.5 114.925 133.5H46.9047C46.4458 133.5 45.9776 133.252 45.7083 132.778L11.6189 72.7784C11.3469 72.2998 11.3469 71.7002 11.6189 71.2216L45.7083 11.2216C45.9776 10.7476 46.4458 10.5 46.9047 10.5H114.925Z" stroke="#263572" stroke-width="21"/>
<g clip-path="url(#clip0_4019_11526)">
<path d="M79.4377 38.0084C78.7627 39.2853 69.6647 56.5191 65.7456 63.9236C65.6098 64.1797 65.6203 64.3648 65.753 64.6155C69.5926 71.8709 77.3742 86.5889 77.4546 86.7264C77.5351 86.59 85.3167 71.8709 89.1563 64.6166C89.289 64.3659 89.3005 64.1807 89.1636 63.9247C86.9664 59.7871 84.7839 55.6411 82.5867 51.5035C82.4456 51.239 82.4362 51.0411 82.5825 50.7745C83.1864 49.6722 83.7652 48.556 84.3775 47.3987C84.4642 47.5478 90.2868 58.5536 93.1422 63.9459C93.2624 64.1723 93.2728 64.3415 93.1495 64.5753C88.6308 73.114 84.1194 81.6568 79.6132 90.2028C79.493 90.4313 79.3708 90.535 79.0971 90.5308C77.9812 90.5117 76.8643 90.517 75.7485 90.5276C75.5416 90.5297 75.4319 90.4631 75.3348 90.2769C70.8056 81.6885 66.2722 73.1023 61.7336 64.5193C61.6396 64.3405 61.6313 64.2072 61.7284 64.022C66.268 55.4369 70.8004 46.8496 75.34 38.2676C75.3975 38.1597 75.5322 38.0211 75.6325 38.02C76.8779 38.0031 78.1233 38.0095 79.4377 38.0095V38.0084Z" fill="black"/>
<path d="M84.5979 43.2664C82.5209 47.1861 76.7954 58.0151 73.6746 63.9131C73.5419 64.1649 73.5325 64.3501 73.6683 64.605C75.8655 68.7437 78.0481 72.8887 80.2453 77.0263C80.3863 77.2918 80.3937 77.4886 80.2474 77.7552C79.6435 78.8576 79.0647 79.9737 78.4514 81.1321C78.3699 80.9925 72.5483 69.9857 69.6866 64.5828C69.5665 64.3564 69.5571 64.1871 69.6804 63.9533C74.1991 55.4158 78.7105 46.8729 83.2167 38.3269C83.3379 38.0973 83.4612 37.9958 83.7328 38C84.8487 38.019 85.9655 38.0138 87.0814 38.0032C87.2893 38.0011 87.3969 38.0698 87.4951 38.255C92.0243 46.8433 96.5587 55.4295 101.096 64.0126C101.191 64.1914 101.198 64.3257 101.1 64.5098C96.5618 73.0929 92.0295 81.6791 87.4899 90.2621C87.4324 90.37 87.2977 90.5076 87.1974 90.5086C85.952 90.5256 84.7066 90.5192 83.4016 90.5192C83.4873 90.3499 92.5895 73.1003 97.0853 64.604C97.2211 64.3479 97.2107 64.1628 97.0769 63.9121C93.2373 56.6578 85.4567 41.9387 85.3763 41.8022C85.3606 41.8276 85.0764 42.364 84.5979 43.2664Z" fill="black"/>
<path d="M52.5259 105.828H50.639V97.5207C50.639 97.4149 50.6275 97.3461 50.6034 97.3122C50.5794 97.2784 50.5209 97.2424 50.4258 97.2043L49.9149 97.0033L50.0706 96.1697H54.839C56.0688 96.1697 56.9537 96.4067 57.4928 96.8806C58.0319 97.3546 58.3015 98.1195 58.3015 99.1732C58.3015 100.007 58.1333 100.649 57.7979 101.099C57.4615 101.549 56.9391 101.841 56.2296 101.976L58.5574 105.828H56.471L54.3563 102.191H52.5259V105.828ZM52.5259 100.755H54.6259C55.2789 100.755 55.7449 100.635 56.0238 100.395C56.3028 100.156 56.4428 99.7487 56.4428 99.1732C56.4428 98.5976 56.3028 98.2051 56.0238 97.9661C55.7449 97.727 55.2789 97.6064 54.6259 97.6064H52.5259V100.754V100.755Z" fill="black"/>
<path d="M67.0589 96.1708V97.6371H62.0627V100.21H66.0371V101.618H62.0627V104.363H67.1718V105.83H60.1748V97.5228C60.1748 97.417 60.1633 97.3483 60.1393 97.3144C60.1152 97.2806 60.0567 97.2446 59.9616 97.2065L59.4507 97.0055L59.6064 96.1718H67.0579L67.0589 96.1708Z" fill="black"/>
<path d="M68.7337 97.5207C68.7337 97.4149 68.7223 97.3461 68.6982 97.3122C68.6742 97.2784 68.6157 97.2424 68.5206 97.2043L68.0097 97.0033L68.1654 96.1697H70.2947C70.4368 96.1697 70.5287 96.1866 70.5715 96.2205C70.6144 96.2543 70.6917 96.3474 70.8056 96.5008L75.7025 103.212V96.1707H77.4484V105.828H75.6179L70.4806 98.786V105.828H68.7348V97.5207H68.7337Z" fill="black"/>
<path d="M84.1894 96.1708C84.3785 96.5157 84.5822 96.9304 84.7995 97.4139C85.0169 97.8973 85.2415 98.4221 85.4734 98.987C85.7054 99.553 85.9342 100.141 86.162 100.755C86.3887 101.368 86.6039 101.977 86.8076 102.58C87.0114 103.183 87.1984 103.764 87.3687 104.319C87.539 104.874 87.6811 105.378 87.7939 105.828H85.8924C85.7879 105.435 85.6793 105.051 85.5664 104.678C85.4525 104.304 85.3439 103.935 85.2394 103.571H81.0383C80.9244 103.935 80.8137 104.304 80.705 104.678C80.5963 105.051 80.4898 105.435 80.3853 105.828H78.4838C78.5976 105.377 78.7397 104.874 78.91 104.319C79.0803 103.764 79.2674 103.184 79.4711 102.58C79.6748 101.976 79.8901 101.367 80.1168 100.755C80.3435 100.142 80.5734 99.553 80.8053 98.987C81.0372 98.4221 81.2619 97.8973 81.4792 97.4139C81.6965 96.9304 81.9002 96.5157 82.0893 96.1708H84.1894ZM83.1394 97.8656C82.5334 99.2451 81.9849 100.678 81.4928 102.163H84.786C84.2751 100.678 83.7265 99.2451 83.1394 97.8656Z" fill="black"/>
<path d="M88.7457 97.5207C88.7457 97.4149 88.7332 97.3461 88.7102 97.3122C88.6862 97.2784 88.6276 97.2424 88.5326 97.2043L88.0217 97.0033L88.1773 96.1697H90.5051C90.5898 96.1697 90.6326 96.2173 90.6326 96.3136V101.904C90.6326 102.823 90.8269 103.484 91.2146 103.887C91.6022 104.289 92.2311 104.49 93.1025 104.49C93.9739 104.49 94.6143 104.289 94.9978 103.887C95.3812 103.485 95.5724 102.824 95.5724 101.904V96.1697H97.4603V102.048C97.4603 102.747 97.3778 103.346 97.2117 103.844C97.0466 104.342 96.7885 104.752 96.4385 105.072C96.0885 105.393 95.6361 105.628 95.0834 105.777C94.5307 105.926 93.8704 105.999 93.1035 105.999C92.3367 105.999 91.6774 105.925 91.1237 105.777C90.5699 105.629 90.1186 105.394 89.7686 105.072C89.4186 104.752 89.1605 104.342 88.9954 103.844C88.8293 103.346 88.7468 102.747 88.7468 102.048V97.5207H88.7457Z" fill="black"/>
<path d="M99.645 97.5207C99.645 97.4149 99.6335 97.3461 99.6095 97.3122C99.5855 97.2784 99.5269 97.2424 99.4319 97.2043L98.921 97.0033L99.0766 96.1697H101.404C101.489 96.1697 101.532 96.2173 101.532 96.3136V104.361H105.889V105.828H99.644V97.5207H99.645Z" fill="black"/>
<path d="M107.933 97.636H104.84V96.1697H112.915V97.636H109.821V105.828H107.933V97.636Z" fill="black"/>
</g>
<defs>
<clipPath id="clip0_4019_11526">
<rect width="63" height="68" fill="white" transform="translate(49.9149 38)"/>
</clipPath>
</defs>
</svg>
