<svg width="64" height="20" viewBox="0 0 64 20" fill="none" xmlns="http://www.w3.org/2000/svg">
<path d="M28.5739 6.19902C28.5753 6.60257 28.457 6.99748 28.2338 7.33374C28.0107 7.66999 27.6928 7.93246 27.3204 8.08793C26.948 8.24339 26.5378 8.28485 26.1418 8.20706C25.7458 8.12926 25.3818 7.93571 25.0959 7.65091C24.81 7.36611 24.615 7.00287 24.5357 6.60719C24.4563 6.21151 24.4962 5.80118 24.6502 5.42816C24.8042 5.05514 25.0654 4.73621 25.4008 4.51175C25.7361 4.28729 26.1306 4.16739 26.5341 4.16725C26.8025 4.16296 27.069 4.21253 27.3179 4.31301C27.5668 4.4135 27.793 4.56287 27.9832 4.75229C28.1733 4.94171 28.3236 5.16734 28.4251 5.41583C28.5265 5.66432 28.5771 5.93063 28.5739 6.19902ZM27.6806 6.19902C27.6643 5.97588 27.5831 5.76238 27.4471 5.5847C27.3112 5.40701 27.1263 5.27288 26.9152 5.19873C26.7041 5.12459 26.476 5.11367 26.2588 5.16731C26.0416 5.22095 25.8447 5.33682 25.6924 5.5007C25.5401 5.66458 25.4389 5.86936 25.4013 6.08991C25.3637 6.31046 25.3912 6.53719 25.4806 6.74231C25.57 6.94742 25.7173 7.12199 25.9044 7.24461C26.0915 7.36722 26.3104 7.43256 26.5341 7.43259C26.6913 7.42961 26.8462 7.39501 26.9897 7.33085C27.1332 7.26669 27.2622 7.1743 27.3692 7.05918C27.4762 6.94405 27.559 6.80856 27.6125 6.66078C27.666 6.513 27.6891 6.35595 27.6806 6.19902Z" fill="#202020"/>
<path d="M32.9732 6.19901C32.9747 6.60259 32.8563 6.99753 32.6331 7.3338C32.41 7.67007 32.092 7.93255 31.7196 8.08799C31.3471 8.24343 30.9369 8.28485 30.5409 8.20699C30.1449 8.12914 29.7809 7.93551 29.495 7.65064C29.2091 7.36577 29.0142 7.00246 28.9349 6.60673C28.8557 6.21101 28.8956 5.80065 29.0497 5.42765C29.2038 5.05464 29.4652 4.73576 29.8006 4.51139C30.1361 4.28701 30.5306 4.16724 30.9342 4.16724C31.2025 4.16305 31.469 4.21268 31.7178 4.31322C31.9666 4.41375 32.1927 4.56313 32.3828 4.75254C32.5729 4.94195 32.7231 5.16754 32.8245 5.41599C32.9259 5.66443 32.9765 5.93068 32.9732 6.19901ZM32.08 6.19901C32.0636 5.97587 31.9825 5.76237 31.8465 5.58469C31.7105 5.407 31.5257 5.27286 31.3146 5.19872C31.1035 5.12458 30.8753 5.11366 30.6581 5.1673C30.4409 5.22094 30.2441 5.33681 30.0918 5.50069C29.9394 5.66457 29.8383 5.86935 29.8006 6.0899C29.763 6.31045 29.7906 6.53718 29.88 6.74229C29.9693 6.94741 30.1166 7.12198 30.3037 7.2446C30.4909 7.36721 30.7098 7.43255 30.9335 7.43258C31.0906 7.4296 31.2456 7.39499 31.389 7.33084C31.5325 7.26668 31.6616 7.17429 31.7686 7.05917C31.8756 6.94404 31.9583 6.80855 32.0118 6.66077C32.0653 6.51299 32.0885 6.35594 32.08 6.19901Z" fill="#202020"/>
<path d="M37.19 4.28981V7.94047C37.19 9.4418 36.3047 10.055 35.2576 10.055C34.8721 10.0573 34.4947 9.94458 34.1737 9.73115C33.8527 9.51771 33.6028 9.21331 33.4558 8.85694L34.233 8.53331C34.3128 8.7416 34.4527 8.92143 34.6351 9.04989C34.8174 9.17834 35.0339 9.2496 35.2569 9.25459C35.9266 9.25459 36.3453 8.84098 36.3453 8.0631V7.77285H36.3141C36.1801 7.92309 36.0148 8.04228 35.83 8.12211C35.6451 8.20194 35.4451 8.2405 35.2438 8.23508C34.705 8.23508 34.1882 8.02101 33.8071 7.63998C33.4261 7.25895 33.212 6.74216 33.212 6.20331C33.212 5.66445 33.4261 5.14766 33.8071 4.76663C34.1882 4.3856 34.705 4.17154 35.2438 4.17154C35.4443 4.16679 35.6435 4.20493 35.8281 4.28339C36.0127 4.36185 36.1784 4.47884 36.3141 4.62651H36.3453V4.29562H37.19V4.28981ZM36.4055 6.20693C36.4184 6.05348 36.4002 5.89901 36.3519 5.75277C36.3037 5.60652 36.2265 5.47151 36.1249 5.35581C36.0232 5.2401 35.8993 5.14608 35.7605 5.07937C35.6218 5.01266 35.4709 4.97463 35.3171 4.96756C34.9899 4.96756 34.6762 5.09752 34.4448 5.32886C34.2135 5.5602 34.0835 5.87396 34.0835 6.20113C34.0835 6.52829 34.2135 6.84206 34.4448 7.0734C34.6762 7.30474 34.9899 7.4347 35.3171 7.4347C35.4699 7.42872 35.62 7.39195 35.7583 7.32658C35.8966 7.26122 36.0202 7.16861 36.1219 7.0543C36.2235 6.93999 36.301 6.80635 36.3498 6.66136C36.3985 6.51638 36.4175 6.36305 36.4055 6.21056V6.20693Z" fill="#202020"/>
<path d="M38.5884 2.15137V8.10881H37.7177V2.15137H38.5884Z" fill="#202020"/>
<path d="M41.9817 6.86951L42.6747 7.33174C42.489 7.61034 42.2371 7.8385 41.9415 7.99579C41.6459 8.15308 41.3159 8.23458 40.9811 8.23297C40.7139 8.23684 40.4486 8.18682 40.2012 8.08589C39.9538 7.98497 39.7292 7.83522 39.5409 7.64558C39.3526 7.45594 39.2045 7.2303 39.1053 6.98214C39.0062 6.73397 38.9581 6.46838 38.9638 6.2012C38.9503 5.94046 38.9898 5.67967 39.0798 5.4346C39.1699 5.18954 39.3087 4.96528 39.4879 4.77537C39.6671 4.58547 39.883 4.43386 40.1224 4.32972C40.3618 4.22557 40.6199 4.17104 40.881 4.16943C41.269 4.17963 41.6445 4.30927 41.9561 4.54068C42.2678 4.77209 42.5005 5.094 42.6225 5.46251L42.7154 5.69326L39.9979 6.81872C40.0816 7.00826 40.2202 7.16831 40.3959 7.27815C40.5716 7.38799 40.7762 7.44255 40.9833 7.43478C41.1844 7.43512 41.3822 7.3832 41.5572 7.2841C41.7322 7.18501 41.8785 7.04215 41.9817 6.86951ZM39.8491 6.13807L41.6632 5.38342C41.5936 5.24544 41.4849 5.13099 41.3507 5.05434C41.2165 4.9777 41.0627 4.94224 40.9085 4.95239C40.7607 4.9595 40.6158 4.99595 40.4822 5.05963C40.3486 5.12331 40.229 5.21294 40.1304 5.32329C40.0318 5.43365 39.9562 5.56252 39.9079 5.70241C39.8596 5.84229 39.8396 5.99039 39.8491 6.13807Z" fill="#202020"/>
<path d="M21.1989 5.67154V4.80949H24.1057C24.1359 4.98125 24.1502 5.1554 24.1486 5.32977C24.1729 6.07394 23.9049 6.79806 23.4019 7.34703C23.1185 7.64222 22.7756 7.87381 22.3959 8.02643C22.0162 8.17906 21.6084 8.24923 21.1996 8.2323C20.3581 8.23257 19.5504 7.90154 18.9511 7.31082C18.3518 6.7201 18.0092 5.91719 17.9974 5.0758C18.009 4.23435 18.3516 3.43133 18.9509 2.84057C19.5502 2.24981 20.3581 1.91884 21.1996 1.9193C21.6 1.91315 21.9975 1.987 22.369 2.13653C22.7404 2.28605 23.0783 2.50824 23.3627 2.79006L22.7539 3.39886C22.3368 2.99649 21.7777 2.77508 21.1981 2.7828C20.8984 2.78287 20.6017 2.84245 20.3252 2.95808C20.0487 3.07371 19.7979 3.24309 19.5874 3.45639C19.3769 3.6697 19.2108 3.92268 19.0988 4.20067C18.9867 4.47866 18.9311 4.77612 18.9349 5.0758C18.9309 5.37566 18.9864 5.67334 19.0984 5.95155C19.2104 6.22975 19.3765 6.48294 19.5871 6.69641C19.7978 6.90988 20.0487 7.07937 20.3254 7.19505C20.6021 7.31072 20.899 7.37028 21.1989 7.37025C21.4943 7.38263 21.7891 7.33283 22.0641 7.22408C22.3391 7.11534 22.5882 6.95006 22.7953 6.73895C23.0652 6.44485 23.229 6.06882 23.2604 5.67082L21.1989 5.67154Z" fill="#202020"/>
<path d="M20.2089 15.8289C19.6261 15.8739 19.0475 15.7004 18.5857 15.342C18.4097 15.1844 18.2686 14.9917 18.1713 14.7765C18.074 14.5612 18.0226 14.328 18.0204 14.0918H18.6735C18.6798 14.2612 18.7265 14.4266 18.8096 14.5742C18.8928 14.7219 19.0101 14.8476 19.1516 14.9408C19.4602 15.1309 19.8176 15.2265 20.1799 15.2158C20.5029 15.2312 20.8231 15.1496 21.0992 14.9814C21.2078 14.9148 21.297 14.8209 21.3581 14.7092C21.4192 14.5974 21.4501 14.4716 21.4475 14.3443C21.4541 14.2174 21.4232 14.0913 21.3587 13.9818C21.2942 13.8723 21.1989 13.7841 21.0847 13.7282C20.6884 13.5502 20.2713 13.4224 19.8432 13.348C19.386 13.279 18.9524 13.1005 18.5791 12.8277C18.4529 12.7182 18.3529 12.5818 18.2866 12.4284C18.2203 12.275 18.1893 12.1087 18.196 11.9417C18.1926 11.744 18.236 11.5483 18.3228 11.3706C18.4096 11.1928 18.5372 11.0382 18.6952 10.9193C19.0779 10.6373 19.5462 10.4963 20.021 10.5202C20.5193 10.4961 21.0117 10.6375 21.4214 10.9222C21.597 11.0555 21.7393 11.2277 21.8371 11.4252C21.935 11.6228 21.9857 11.8403 21.9852 12.0607H21.3264C21.2586 11.4396 20.8337 11.129 20.0514 11.129C19.7438 11.1108 19.4377 11.1851 19.1727 11.3424C19.0761 11.402 18.9966 11.4856 18.942 11.585C18.8873 11.6844 18.8593 11.7963 18.8607 11.9098C18.8555 12.0054 18.8759 12.1006 18.92 12.1856C18.964 12.2705 19.03 12.3422 19.111 12.3931C19.4037 12.5438 19.718 12.6481 20.0427 12.7022C20.4115 12.778 20.7751 12.8774 21.1312 12.9997C21.3946 13.0944 21.6313 13.2512 21.8212 13.4569C22.0221 13.686 22.1262 13.9841 22.1115 14.2884C22.1144 14.4999 22.0684 14.7092 21.977 14.8999C21.8856 15.0906 21.7514 15.2576 21.5847 15.3878C21.1935 15.6945 20.7055 15.851 20.2089 15.8289ZM25.3217 14.7644V13.9416H24.8696C23.9123 13.9416 23.4336 14.2018 23.4336 14.7224C23.4297 14.8067 23.4469 14.8907 23.4837 14.9667C23.5204 15.0427 23.5755 15.1084 23.644 15.1577C23.8123 15.2674 24.011 15.3207 24.2115 15.3101C24.43 15.3104 24.6457 15.2608 24.8421 15.165C25.0345 15.0759 25.1994 14.9377 25.3217 14.7644ZM25.3217 15.3595C24.9664 15.6796 24.5 15.8481 24.0221 15.8289C23.693 15.8427 23.3699 15.7373 23.1121 15.5322C22.9974 15.4395 22.9055 15.3216 22.8436 15.1878C22.7817 15.0539 22.7514 14.9075 22.7551 14.7601C22.7551 13.8893 23.5035 13.4539 25.0002 13.4539H25.3224C25.3284 13.2595 25.3143 13.065 25.2803 12.8734C25.2637 12.8102 25.2343 12.751 25.194 12.6994C25.1537 12.6479 25.1033 12.6051 25.046 12.5738C24.8556 12.4809 24.6441 12.4399 24.4328 12.4548C23.8446 12.4548 23.541 12.6649 23.5221 13.0853H22.864C22.9124 12.322 23.4469 11.9403 24.4676 11.9403C24.8593 11.9174 25.2485 12.0165 25.5815 12.224C25.732 12.3644 25.8467 12.5387 25.9161 12.7325C25.9856 12.9263 26.0077 13.1338 25.9806 13.3378V15.7404H25.3224L25.3217 15.3595ZM27.7308 12.544V15.7411H27.0726V12.544H26.5262V12.0259H27.0726V11.6965C27.0726 10.9118 27.4193 10.5195 28.1125 10.5195C28.278 10.5152 28.4435 10.5293 28.6059 10.5616V11.1356C28.4742 11.1122 28.3406 11.1005 28.2068 11.1007C28.1407 11.0954 28.0742 11.1047 28.0121 11.1281C27.95 11.1514 27.8939 11.1881 27.8476 11.2357C27.7558 11.3733 27.7142 11.5383 27.7301 11.703V12.0252H28.4339V12.5433L27.7308 12.544ZM30.5288 15.8289C30.2857 15.8397 30.043 15.7996 29.8162 15.7113C29.5895 15.623 29.3836 15.4883 29.2118 15.3159C29.0385 15.1221 28.9052 14.8958 28.8198 14.6502C28.7344 14.4046 28.6984 14.1445 28.714 13.885C28.6837 13.3648 28.8564 12.8531 29.1958 12.4577C29.3565 12.2865 29.5521 12.1518 29.7693 12.0627C29.9865 11.9736 30.2202 11.9321 30.4548 11.941C30.6905 11.9303 30.9257 11.97 31.1447 12.0576C31.3637 12.1452 31.5615 12.2786 31.7247 12.4489C32.0625 12.8483 32.2326 13.363 32.1992 13.885V14.0424H29.4034C29.4008 14.394 29.5273 14.7343 29.7589 14.9988C29.8596 15.1006 29.98 15.1808 30.1128 15.2345C30.2456 15.2881 30.3879 15.3141 30.531 15.3108C30.752 15.3136 30.9691 15.2521 31.1558 15.1338C31.2431 15.0817 31.3156 15.0082 31.3664 14.9202C31.4172 14.8321 31.4446 14.7326 31.446 14.6309H32.1289C32.1109 14.8073 32.0551 14.9778 31.9654 15.1307C31.8756 15.2836 31.7539 15.4153 31.6086 15.5169C31.2907 15.7314 30.9135 15.8405 30.5303 15.8289H30.5288ZM31.5026 13.5243C31.4749 13.224 31.3471 12.9416 31.1398 12.7225C31.0486 12.6351 30.941 12.5666 30.8232 12.5209C30.7054 12.4752 30.5797 12.4532 30.4534 12.4562C30.2011 12.4517 29.9571 12.5466 29.7742 12.7203C29.5644 12.9386 29.4362 13.2226 29.4114 13.5243H31.5026ZM38.7691 14.25C38.7812 14.4601 38.743 14.6701 38.6577 14.8626C38.5724 15.055 38.4424 15.2244 38.2786 15.3566C37.8597 15.6402 37.3582 15.7758 36.8534 15.7419H34.9305V10.608H36.7584C37.2146 10.5824 37.6667 10.7054 38.0471 10.9585C38.1983 11.0674 38.3202 11.212 38.4021 11.3793C38.484 11.5466 38.5233 11.7316 38.5166 11.9178C38.5202 12.1545 38.4514 12.3866 38.3194 12.5831C38.1874 12.7796 37.9984 12.931 37.7779 13.0171C38.0731 13.0783 38.3368 13.2427 38.5217 13.4808C38.6853 13.7033 38.7719 13.9731 38.7684 14.2492L38.7691 14.25ZM35.6104 12.7581H36.7519C37.0402 12.7789 37.3284 12.7162 37.582 12.5774C37.6741 12.5084 37.7469 12.4169 37.7935 12.3117C37.8401 12.2065 37.859 12.0911 37.8483 11.9766C37.8553 11.8677 37.8354 11.7589 37.7902 11.6596C37.745 11.5603 37.6759 11.4738 37.5892 11.4077C37.315 11.2559 37.0017 11.1894 36.6895 11.2168H35.6112L35.6104 12.7581ZM35.6104 15.1323H36.844C37.6567 15.1323 38.0631 14.8382 38.0631 14.25C38.0738 14.1238 38.0537 13.9969 38.0047 13.8801C37.9557 13.7634 37.8791 13.6602 37.7815 13.5795C37.4687 13.4084 37.1119 13.3347 36.7569 13.3676H35.6112L35.6104 15.1323ZM41.5577 12.6296C41.426 12.5972 41.2905 12.583 41.155 12.5875C40.9775 12.5938 40.8045 12.6455 40.6527 12.7377C40.5008 12.83 40.3752 12.9597 40.2879 13.1144V15.7411H39.6261V12.0252H40.2879V12.5433C40.3851 12.3695 40.5247 12.2231 40.6937 12.1178C40.8627 12.0125 41.0556 11.9517 41.2544 11.941C41.3554 11.9418 41.4562 11.9513 41.5555 11.9693L41.5577 12.6296ZM43.5227 11.9432C43.7584 11.9324 43.9936 11.9722 44.2126 12.0598C44.4316 12.1474 44.6294 12.2808 44.7926 12.4511C45.1304 12.8505 45.3005 13.3651 45.2672 13.8872C45.2998 14.4084 45.1297 14.9221 44.7926 15.321C44.6295 15.4915 44.4318 15.625 44.2127 15.7126C43.9937 15.8002 43.7584 15.8399 43.5227 15.8289C43.2876 15.8396 43.053 15.7998 42.8346 15.7122C42.6161 15.6246 42.419 15.4912 42.2565 15.321C41.9194 14.9221 41.7493 14.4084 41.7819 13.8872C41.7486 13.3651 41.9187 12.8505 42.2565 12.4511C42.4192 12.2811 42.6163 12.1478 42.8347 12.0602C43.0531 11.9726 43.2877 11.9327 43.5227 11.9432ZM43.5227 15.3123C43.6697 15.3163 43.8156 15.286 43.9488 15.2236C44.082 15.1612 44.1987 15.0686 44.2897 14.9531C44.5074 14.6419 44.6111 14.2652 44.5836 13.8864C44.6113 13.5067 44.5075 13.1291 44.2897 12.8168C44.1987 12.7013 44.082 12.6087 43.9488 12.5463C43.8156 12.484 43.6697 12.4536 43.5227 12.4577C43.3757 12.4536 43.2298 12.484 43.0967 12.5463C42.9635 12.6087 42.8467 12.7013 42.7557 12.8168C42.5393 13.1291 42.4366 13.5061 42.4648 13.885C42.4362 14.2633 42.5387 14.64 42.755 14.9517C42.846 15.0672 42.9628 15.1598 43.0959 15.2222C43.2291 15.2845 43.375 15.3149 43.522 15.3108L43.5227 15.3123ZM50.6601 12.0274L49.5426 15.7433H48.912L48.1066 13.0113L47.3047 15.7411H46.6734L45.5531 12.0252H46.2852L46.968 14.8551L47.8047 12.0252H48.407L49.2472 14.8551L49.9301 12.0252L50.6601 12.0274ZM52.5126 15.8304C51.4967 15.8304 50.9646 15.4311 50.9162 14.6324H51.578C51.5828 15.0852 51.891 15.3116 52.5024 15.3116C52.7238 15.3264 52.9438 15.2667 53.1272 15.1418C53.1948 15.0934 53.2498 15.0296 53.2877 14.9556C53.3255 14.8816 53.3451 14.7996 53.3449 14.7165C53.3502 14.6429 53.3328 14.5694 53.2952 14.5059C53.2576 14.4424 53.2015 14.3918 53.1345 14.361C52.8536 14.247 52.5635 14.1575 52.2673 14.0932C51.9298 14.0232 51.6058 13.899 51.308 13.7253C51.201 13.6418 51.117 13.5323 51.064 13.4072C51.0111 13.2821 50.9909 13.1456 51.0055 13.0106C51.0037 12.8624 51.0368 12.7158 51.1023 12.5828C51.1677 12.4498 51.2636 12.3341 51.3821 12.245C51.6726 12.0305 52.0286 11.9236 52.3892 11.9425C53.363 11.9425 53.8603 12.2891 53.8811 12.9823H53.223C53.1998 12.632 52.9371 12.4569 52.435 12.4569C52.2432 12.4499 52.053 12.4934 51.8835 12.5832C51.8162 12.6178 51.7601 12.6706 51.7216 12.7357C51.683 12.8008 51.6637 12.8755 51.6658 12.9511C51.6614 13.0139 51.6749 13.0767 51.7047 13.1321C51.7345 13.1876 51.7794 13.2335 51.8341 13.2646C52.1051 13.3802 52.3875 13.467 52.6766 13.5236C53.0291 13.5942 53.3674 13.7227 53.678 13.9038C53.7925 13.99 53.8828 14.1043 53.9401 14.2356C53.9975 14.3669 54.0199 14.5109 54.0052 14.6534C54.0076 14.8155 53.9724 14.976 53.9022 15.1222C53.8321 15.2684 53.729 15.3963 53.601 15.4959C53.2893 15.7327 52.9036 15.8513 52.5126 15.8304ZM55.4333 15.7426H54.7715V12.0266H55.4333V15.7426ZM55.4333 11.3228H54.7715V10.608H55.4333V11.3228ZM57.0688 12.4997C57.2016 12.3311 57.37 12.1938 57.5619 12.0976C57.7537 12.0014 57.9645 11.9487 58.1791 11.9432C59.0174 11.9432 59.4366 12.3996 59.4366 13.3125V15.7426H58.7748V13.34C58.7945 13.1103 58.7373 12.8806 58.6123 12.687C58.5441 12.6155 58.4607 12.5604 58.3682 12.5258C58.2756 12.4913 58.1765 12.4781 58.0782 12.4874C57.8767 12.5065 57.6819 12.5697 57.5076 12.6725C57.3332 12.7753 57.1837 12.9153 57.0696 13.0824V15.744H56.4078V12.0281H57.0696L57.0688 12.4997ZM63.408 15.4552C63.408 16.6506 62.8686 17.2483 61.7898 17.2483C61.398 17.27 61.0099 17.163 60.6847 16.9435C60.5554 16.8505 60.4509 16.7271 60.3805 16.5843C60.31 16.4414 60.2757 16.2835 60.2805 16.1243H60.9633C60.9633 16.5306 61.2364 16.7338 61.7825 16.7338C61.9127 16.7421 62.0431 16.7239 62.166 16.6802C62.2889 16.6366 62.4016 16.5684 62.4973 16.4798C62.7009 16.19 62.7905 15.8353 62.7491 15.4835V15.2978C62.6252 15.4622 62.465 15.5957 62.281 15.688C62.0969 15.7803 61.8941 15.8287 61.6882 15.8297C61.4724 15.8406 61.2572 15.7992 61.0608 15.709C60.8645 15.6188 60.6929 15.4824 60.5606 15.3116C60.2755 14.9035 60.1348 14.4119 60.1608 13.9147C60.1314 13.3961 60.2892 12.8842 60.6056 12.4722C60.7396 12.3037 60.9105 12.1683 61.1051 12.0764C61.2998 11.9844 61.5129 11.9383 61.7281 11.9417C62.1015 11.9328 62.4645 12.0655 62.744 12.3133V12.023H63.4022L63.408 15.4552ZM62.7498 14.6745V12.909C62.6282 12.7688 62.4781 12.656 62.3096 12.578C62.1411 12.5001 61.958 12.4588 61.7724 12.4569C61.6378 12.4544 61.5048 12.4864 61.3862 12.5499C61.2675 12.6134 61.1671 12.7063 61.0946 12.8197C60.9039 13.1493 60.8155 13.5282 60.8407 13.9082C60.8173 14.2715 60.9008 14.6337 61.0809 14.9502C61.151 15.0622 61.2491 15.1539 61.3656 15.2162C61.482 15.2786 61.6128 15.3095 61.7448 15.3058C61.9519 15.2909 62.1521 15.2249 62.3275 15.1137C62.5029 15.0025 62.648 14.8496 62.7498 14.6687V14.6745Z" fill="#202020"/>
<path d="M0.500122 2.71326V4.53459C0.500122 6.19846 0.500113 7.69327 0.608232 9.06834C0.825921 11.8315 1.479 14.0534 3.45199 16.0264C4.68275 17.1105 5.98585 18.1096 7.35226 19.0168V2.71326C4.47441 2.71326 1.59655 2.31198 0.500122 2.71326Z" fill="#66BB6A"/>
<path d="M14.2034 2.68989C7.37742 2.67683 10.2292 2.68989 7.35205 2.68989V19.0166C8.72356 18.1108 10.0311 17.1117 11.2654 16.0263C14.2129 13.0788 14.2034 9.98322 14.2034 5.21073V2.68989Z" fill="#388E3C"/>
<mask id="mask0_4368_731" style="mask-type:luminance" maskUnits="userSpaceOnUse" x="0" y="1" width="15" height="19">
<path d="M7.43027 1.02686C4.30497 1.02686 1.59838 2.3105 0.501953 2.7125V4.53239C0.501953 9.59005 0.520815 13.0832 3.46325 16.0235C4.69116 17.1067 5.9908 18.1058 7.35334 19.0138C8.72486 18.108 10.0324 17.1089 11.2667 16.0235C14.2142 13.076 14.2048 9.98044 14.2048 5.20796V2.69073C12.8333 2.26696 10.3734 1.02686 7.43027 1.02686Z" fill="white"/>
</mask>
<g mask="url(#mask0_4368_731)">
<path d="M14.8001 2.71094H-0.0267334V3.93073H14.8001V2.71094Z" fill="url(#paint0_linear_4368_731)"/>
</g>
<mask id="mask1_4368_731" style="mask-type:luminance" maskUnits="userSpaceOnUse" x="4" y="11" width="7" height="6">
<path d="M4.3058 12.1625C4.53198 12.865 4.86456 13.5287 5.29194 14.1304C5.9302 14.9195 6.62164 15.664 7.36144 16.3588C8.08565 15.6602 8.76429 14.9159 9.3932 14.1304C9.83507 13.5057 10.1732 12.8137 10.3946 12.0812C10.9736 10.635 3.72675 10.992 4.3058 12.1625Z" fill="white"/>
</mask>
<g mask="url(#mask1_4368_731)">
<path d="M7.41512 14.4255C8.00601 14.4257 8.57263 14.6606 8.99038 15.0785C9.40813 15.4964 9.64281 16.0631 9.64281 16.654C9.64281 17.8875 5.18671 17.8875 5.18671 16.654C5.18671 16.0629 5.42149 15.4961 5.83939 15.0782C6.2573 14.6603 6.82411 14.4255 7.41512 14.4255Z" fill="#FAFAFA"/>
<path d="M3.5921 16.6955C3.59204 15.9683 3.79941 15.2562 4.18992 14.6428C4.58042 14.0294 5.13782 13.5401 5.79668 13.2324C6.45554 12.9246 7.18854 12.8113 7.90958 12.9056C8.63062 12.9998 9.3098 13.2979 9.86738 13.7647C10.699 14.454 3.5921 18.7998 3.5921 16.6955ZM7.41398 13.6217C6.59877 13.6217 5.81694 13.9456 5.2405 14.522C4.66405 15.0985 4.34023 15.8803 4.34023 16.6955C4.34023 18.3928 10.4871 18.3928 10.4871 16.6955C10.4869 15.8802 10.1631 15.0983 9.58698 14.5215C9.01082 13.9446 8.22928 13.62 7.41398 13.6188V13.6217Z" fill="#FAFAFA"/>
<path d="M1.95666 16.6925C1.94834 15.9705 2.08334 15.254 2.35389 14.5845C2.62444 13.915 3.02514 13.3059 3.53278 12.7924C4.04041 12.2788 4.64489 11.8712 5.31121 11.5929C5.97752 11.3147 6.69242 11.1714 7.41449 11.1714C8.13657 11.1714 8.85147 11.3147 9.51778 11.5929C10.1841 11.8712 10.7886 12.2788 11.2962 12.7924C11.8038 13.3059 12.2045 13.915 12.4751 14.5845C12.7456 15.254 12.8807 15.9705 12.8723 16.6925C12.8694 19.7054 1.95666 19.7068 1.95666 16.6925ZM7.41485 12.0195C6.80117 12.0195 6.19351 12.1403 5.62654 12.3752C5.05958 12.61 4.54442 12.9542 4.11048 13.3882C3.67655 13.8221 3.33235 14.3373 3.0975 14.9042C2.86266 15.4712 2.74177 16.0789 2.74177 16.6925C2.74177 19.2729 12.0872 19.2729 12.0872 16.6925C12.0855 15.4538 11.5925 14.2663 10.7165 13.3906C9.84047 12.5148 8.65285 12.0222 7.41414 12.0209L7.41485 12.0195Z" fill="#FAFAFA"/>
</g>
<path d="M14.2029 2.71905V1.32148C14.1433 1.00532 13.983 0.716947 13.7458 0.499542C13.5087 0.282137 13.2075 0.147389 12.8873 0.115479H1.70172C1.39457 0.150656 1.1085 0.28917 0.890428 0.508301C0.672352 0.727431 0.535221 1.01417 0.501526 1.32148V2.71905H14.2043H14.2029Z" fill="#E0E0E0"/>
<path d="M2.19014 1.89261C2.41256 1.89261 2.59287 1.7123 2.59287 1.48988C2.59287 1.26746 2.41256 1.08716 2.19014 1.08716C1.96772 1.08716 1.78741 1.26746 1.78741 1.48988C1.78741 1.7123 1.96772 1.89261 2.19014 1.89261Z" fill="white"/>
<path d="M3.66451 1.89261C3.88693 1.89261 4.06723 1.7123 4.06723 1.48988C4.06723 1.26746 3.88693 1.08716 3.66451 1.08716C3.44209 1.08716 3.26178 1.26746 3.26178 1.48988C3.26178 1.7123 3.44209 1.89261 3.66451 1.89261Z" fill="white"/>
<path d="M7.307 9.93894C8.55415 9.93894 9.56516 8.92793 9.56516 7.68077C9.56516 6.43362 8.55415 5.42261 7.307 5.42261C6.05984 5.42261 5.04883 6.43362 5.04883 7.68077C5.04883 8.92793 6.05984 9.93894 7.307 9.93894Z" fill="#FAFAFA"/>
<defs>
<linearGradient id="paint0_linear_4368_731" x1="7.38669" y1="2.51943" x2="7.38669" y2="3.52698" gradientUnits="userSpaceOnUse">
<stop stop-color="#263238" stop-opacity="0.349"/>
<stop offset="0.42" stop-color="#263238" stop-opacity="0.149"/>
<stop offset="0.89" stop-color="#263238" stop-opacity="0.02"/>
<stop offset="1" stop-color="#263238" stop-opacity="0"/>
</linearGradient>
</defs>
</svg>
