<svg width="42" height="30" viewBox="0 0 42 30" fill="none" xmlns="http://www.w3.org/2000/svg">
<path d="M36.1228 9.90368H33.7811V8.78045C33.7811 7.88644 32.9922 7.1529 32.0309 7.1529C31.0696 7.1529 30.2808 7.88644 30.2808 8.78045V9.90368H27.939V8.78045C27.939 6.67151 29.7878 4.9752 32.0309 4.9752C34.2987 4.9752 36.1228 6.69443 36.1228 8.78045V9.90368Z" fill="#FFA400"/>
<path d="M37.0841 9.90369H26.9777C26.534 9.90369 26.1889 10.2246 26.1889 10.6372V17.583C26.1889 17.9956 26.534 18.3165 26.9777 18.3165H37.0841C37.5278 18.3165 37.8729 17.9956 37.8729 17.583V10.6372C37.8483 10.2246 37.5032 9.90369 37.0841 9.90369ZM32.5239 14.4654V15.4053C32.5239 15.6574 32.302 15.8866 32.0062 15.8866C31.7351 15.8866 31.4886 15.6803 31.4886 15.4053V14.4654C31.1681 14.3049 30.9709 13.984 30.9709 13.6172C30.9709 13.09 31.4393 12.6545 32.0062 12.6545C32.5732 12.6545 33.0415 13.09 33.0415 13.6172C33.0662 13.984 32.8443 14.3049 32.5239 14.4654Z" fill="#065DAD"/>
<path d="M25.9424 8.87214H23.502C23.1076 8.87214 22.7872 8.57414 22.7872 8.20737C22.7872 7.8406 23.1076 7.54259 23.502 7.54259H25.9424C26.3368 7.54259 26.6572 7.8406 26.6572 8.20737C26.6572 8.57414 26.3368 8.87214 25.9424 8.87214Z" fill="#FFA400"/>
<path d="M27.6679 5.29612C27.52 5.29612 27.3474 5.25027 27.2242 5.13566L25.3015 3.66857C25.0057 3.43934 24.9564 3.02672 25.2029 2.72872C25.4494 2.45364 25.8931 2.4078 26.2135 2.63703L28.1362 4.10411C28.432 4.33335 28.4813 4.74596 28.2348 5.04397C28.0623 5.20443 27.8651 5.29612 27.6679 5.29612Z" fill="#FFA400"/>
<path d="M32.0309 3.73734C31.6365 3.73734 31.3161 3.43934 31.3161 3.07257V0.780251C31.3161 0.41348 31.6365 0.115479 32.0309 0.115479C32.4253 0.115479 32.7458 0.41348 32.7458 0.780251V3.07257C32.7458 3.43934 32.4253 3.73734 32.0309 3.73734Z" fill="#FFA400"/>
<path d="M36.3693 5.29612C36.1721 5.29612 35.9502 5.20443 35.827 5.04397C35.5805 4.76889 35.6298 4.33335 35.9256 4.10411L37.8483 2.63703C38.1441 2.4078 38.6124 2.45364 38.8589 2.72872C39.1054 3.0038 39.0561 3.43934 38.7603 3.66857L36.8376 5.13566C36.6897 5.25027 36.5418 5.29612 36.3693 5.29612Z" fill="#FFA400"/>
<path d="M40.5352 8.87214H38.0702C37.6758 8.87214 37.3553 8.57414 37.3553 8.20737C37.3553 7.8406 37.6758 7.54259 38.0702 7.54259H40.5352C40.9296 7.54259 41.25 7.8406 41.25 8.20737C41.25 8.57414 40.9296 8.87214 40.5352 8.87214Z" fill="#FFA400"/>
<path d="M0.75 18.2248V10.8206H2.6727V16.666H5.75395V18.2248H0.75ZM12.1136 15.6803V16.0929H8.04639C8.07104 16.2305 8.12034 16.368 8.19429 16.4826C8.26824 16.5973 8.36684 16.7119 8.49009 16.7806C8.61334 16.8723 8.76124 16.9411 8.90914 16.987C9.05704 17.0328 9.22959 17.0557 9.37749 17.0557C9.67329 17.0557 9.91979 17.0099 10.117 16.8953C10.3142 16.8036 10.4867 16.666 10.61 16.5056L11.8918 17.262C11.6206 17.6288 11.2755 17.881 10.8565 18.0873C10.4374 18.2707 9.91979 18.3853 9.35284 18.3853C8.93379 18.3853 8.53939 18.3165 8.16964 18.2019C7.79989 18.0873 7.47944 17.9039 7.18364 17.6746C6.91249 17.4454 6.69065 17.1474 6.5181 16.8036C6.34555 16.4597 6.2716 16.07 6.2716 15.6345C6.2716 15.1989 6.34555 14.8322 6.5181 14.4883C6.666 14.1445 6.88784 13.8465 7.15899 13.6172C7.43014 13.388 7.75059 13.1817 8.12034 13.0671C8.49009 12.9295 8.88449 12.8608 9.30354 12.8608C9.72259 12.8608 10.0923 12.9295 10.4374 13.0442C10.7825 13.1817 11.0783 13.3651 11.3248 13.5943C11.5713 13.8465 11.7685 14.1445 11.8918 14.4883C12.0397 14.8551 12.1136 15.2448 12.1136 15.6803ZM10.4128 15.0385C10.4128 14.7634 10.3142 14.5342 10.1416 14.3279C9.96909 14.1216 9.67329 14.0299 9.30354 14.0299C9.13099 14.0299 8.95844 14.0528 8.81054 14.0986C8.66264 14.1445 8.53939 14.2132 8.41614 14.3049C8.29289 14.3966 8.21894 14.5112 8.14499 14.6259C8.07104 14.7405 8.04639 14.878 8.02174 15.0156H10.4128V15.0385ZM15.0716 14.3049V16.2993C15.0716 16.5514 15.1209 16.7348 15.2195 16.8494C15.3181 16.964 15.4907 17.0328 15.7618 17.0328C15.8604 17.0328 15.959 17.0328 16.0576 17.0099C16.1562 16.987 16.2548 16.964 16.3041 16.9411L16.3288 18.2019C16.2055 18.2477 16.033 18.2707 15.8358 18.3165C15.6386 18.3394 15.4414 18.3623 15.2442 18.3623C14.8744 18.3623 14.554 18.3165 14.3075 18.2248C14.061 18.1331 13.8391 18.0185 13.6912 17.858C13.5433 17.6976 13.4201 17.4913 13.3708 17.262C13.3215 17.0328 13.2722 16.7806 13.2722 16.5056V14.3049H12.3601V13.0212H13.2475V11.6458H15.0716V13.0212H16.3781V14.3049H15.0716ZM18.0789 10.6831C17.5366 10.6831 17.0929 11.0498 17.0929 11.5312C17.0929 12.0355 17.4627 12.3565 18.005 12.3565C18.0543 12.3565 18.1036 12.3565 18.1282 12.3335C18.0296 12.7003 17.6599 12.9754 17.2901 13.0212H17.2162V13.8236H17.3148C17.7585 13.7777 18.1775 13.5943 18.498 13.3192C18.917 12.9525 19.1389 12.4023 19.1389 11.7605C19.1389 11.1415 18.6952 10.6831 18.0789 10.6831ZM22.3434 14.5571C22.1955 14.4196 22.0229 14.3049 21.8257 14.2132C21.6285 14.1216 21.4067 14.0757 21.1848 14.0757C21.0123 14.0757 20.8644 14.0986 20.7165 14.1674C20.5686 14.2362 20.4946 14.3279 20.4946 14.4883C20.4946 14.6259 20.5686 14.7405 20.7411 14.8092C20.9137 14.878 21.1602 14.9468 21.5299 15.0156C21.7518 15.0614 21.949 15.1073 22.1708 15.1989C22.3927 15.2906 22.5652 15.3823 22.7378 15.4969C22.9103 15.6116 23.0582 15.772 23.1568 15.9554C23.2554 16.1388 23.3047 16.3451 23.3047 16.5973C23.3047 16.9182 23.2308 17.1933 23.0829 17.4225C22.935 17.6517 22.7624 17.8351 22.5159 17.9727C22.2941 18.1102 22.0229 18.2019 21.7518 18.2707C21.456 18.3394 21.1848 18.3623 20.889 18.3623C20.4207 18.3623 19.977 18.2936 19.5579 18.156C19.1142 18.0185 18.7445 17.8122 18.4733 17.56L19.5086 16.5514C19.6812 16.7119 19.8784 16.8494 20.1249 16.964C20.3714 17.0786 20.6179 17.1245 20.889 17.1245C21.0369 17.1245 21.1848 17.1016 21.3327 17.0328C21.4806 16.964 21.5546 16.8494 21.5546 16.689C21.5546 16.5285 21.456 16.4139 21.2834 16.3222C21.1109 16.2534 20.8151 16.1617 20.4453 16.0929C20.2481 16.0471 20.0509 16.0013 19.8537 15.9325C19.6565 15.8637 19.484 15.772 19.3361 15.6574C19.1882 15.5428 19.0649 15.3823 18.9663 15.2219C18.8677 15.0385 18.8184 14.8322 18.8184 14.6029C18.8184 14.282 18.8924 14.0299 19.0403 13.8006C19.1882 13.5714 19.3607 13.4109 19.5826 13.2734C19.8044 13.1359 20.0509 13.0212 20.3221 12.9754C20.5932 12.9066 20.8644 12.8837 21.1355 12.8837C21.5546 12.8837 21.9736 12.9525 22.368 13.0671C22.7624 13.1817 23.1075 13.3651 23.3787 13.6172L22.3434 14.5571ZM0.75 26.7981V19.3939H6.09905V20.9068H2.59875V22.3051H5.90185V23.7264H2.59875V25.2622H6.29625V26.7981H0.75ZM11.1523 23.9556C11.1523 23.8181 11.1276 23.6805 11.103 23.543C11.0783 23.4054 11.029 23.2908 10.9797 23.1991C10.9304 23.1074 10.8318 23.0158 10.7332 22.9699C10.6346 22.9011 10.4867 22.8782 10.3142 22.8782C10.1416 22.8782 9.99374 22.9011 9.87049 22.9699C9.74724 23.0387 9.64864 23.1074 9.55004 23.2221C9.47609 23.3367 9.40214 23.4513 9.35284 23.5888C9.30354 23.7264 9.27889 23.8639 9.27889 24.0015V26.821H7.43014V21.6174H9.20494V22.3281H9.22959C9.30354 22.2134 9.37749 22.0988 9.50074 22.0071C9.59934 21.8925 9.74724 21.8008 9.87049 21.7321C10.0184 21.6633 10.1663 21.5945 10.3388 21.5487C10.5114 21.5028 10.6839 21.4799 10.8811 21.4799C11.2509 21.4799 11.5713 21.5487 11.8425 21.6633C12.1136 21.7779 12.3108 21.9613 12.4834 22.1447C12.6559 22.351 12.7545 22.5802 12.8285 22.8324C12.9024 23.0845 12.9271 23.3367 12.9271 23.6118V26.821H11.1523V23.9556ZM17.7585 23.2679C17.6599 23.1533 17.512 23.0387 17.3394 22.9699C17.1669 22.9011 16.9697 22.8553 16.7971 22.8553C16.5999 22.8553 16.4274 22.9011 16.2795 22.9699C16.1316 23.0387 15.9837 23.1304 15.8851 23.2679C15.7865 23.4054 15.6879 23.5201 15.6139 23.6805C15.54 23.841 15.5153 24.0015 15.5153 24.1848C15.5153 24.3682 15.54 24.5287 15.6139 24.6891C15.6632 24.8496 15.7618 24.9871 15.8851 25.1018C16.0083 25.2164 16.1316 25.331 16.3041 25.3998C16.4767 25.4685 16.6492 25.5144 16.8464 25.5144C17.0436 25.5144 17.2162 25.4915 17.4134 25.4227C17.5859 25.3539 17.7338 25.2622 17.8571 25.1247L18.8677 26.2938C18.6459 26.5001 18.3254 26.6605 17.9803 26.7752C17.6106 26.8898 17.2162 26.9585 16.8218 26.9585C16.3781 26.9585 15.959 26.8898 15.5893 26.7752C15.1949 26.6605 14.8744 26.4772 14.5786 26.225C14.3075 25.9958 14.0856 25.6978 13.9131 25.3539C13.7405 25.0101 13.6666 24.6204 13.6666 24.1848C13.6666 23.7493 13.7405 23.3825 13.9131 23.0387C14.0856 22.6948 14.3075 22.3968 14.5786 22.1676C14.8498 21.9384 15.1949 21.7321 15.5893 21.6174C15.9837 21.4799 16.3781 21.4341 16.8218 21.4341C17.019 21.4341 17.2162 21.457 17.4134 21.4799C17.6106 21.5257 17.8078 21.5716 17.9803 21.6174C18.1529 21.6862 18.3254 21.755 18.498 21.8467C18.6459 21.9384 18.7938 22.0301 18.8924 22.1447L17.7585 23.2679ZM23.1322 23.0158C23.0582 22.9928 22.9596 22.9699 22.8857 22.9699H22.6638C22.4173 22.9699 22.2201 23.0158 22.0476 23.0845C21.875 23.1762 21.7518 23.2679 21.6532 23.3825C21.5546 23.4971 21.4806 23.6347 21.4313 23.7722C21.382 23.9098 21.3574 24.0244 21.3574 24.139V26.7981H19.5086V21.5945H21.2834V22.351H21.3081C21.456 22.0759 21.6532 21.8696 21.9243 21.7091C22.1955 21.5487 22.4913 21.457 22.8364 21.457H23.0582C23.1322 21.457 23.1815 21.4799 23.2308 21.4799L23.1322 23.0158ZM27.4706 27.5775C27.3473 27.8525 27.2241 28.0818 27.1008 28.311C26.9529 28.5173 26.805 28.7007 26.6078 28.8612C26.4106 29.0216 26.1888 29.1133 25.9423 29.205C25.6958 29.2738 25.3753 29.3196 25.0302 29.3196C24.8577 29.3196 24.6851 29.3196 24.4879 29.2967C24.3154 29.2738 24.1428 29.2509 24.0196 29.205L24.2168 27.7609C24.3154 27.7838 24.414 27.8067 24.5126 27.8296C24.6112 27.8525 24.7098 27.8525 24.8084 27.8525C25.1042 27.8525 25.3014 27.7838 25.4246 27.6692C25.5479 27.5545 25.6711 27.3712 25.7451 27.1419L25.9176 26.7064L23.5759 21.5945H25.6218L26.879 24.9413H26.9036L28.0129 21.5945H29.9602L27.4706 27.5775ZM36.6897 24.1848C36.6897 24.5516 36.6404 24.8955 36.5171 25.2393C36.3939 25.5832 36.2213 25.8582 35.9995 26.1333C35.7776 26.3855 35.4818 26.5918 35.1614 26.7522C34.8409 26.9127 34.4465 26.9815 34.0275 26.9815C33.6824 26.9815 33.3619 26.9127 33.0415 26.7981C32.7457 26.6605 32.4992 26.5001 32.3266 26.2708H32.302V29.3655H30.4532V21.6633H32.2034V22.3051H32.228C32.4006 22.0988 32.6471 21.9154 32.9429 21.755C33.2387 21.5945 33.6084 21.5257 34.0275 21.5257C34.4219 21.5257 34.7916 21.5945 35.1367 21.755C35.4572 21.8925 35.753 22.0988 35.9748 22.351C36.1967 22.6031 36.3692 22.9011 36.4925 23.2221C36.6157 23.4742 36.6897 23.8181 36.6897 24.1848ZM34.8902 24.1848C34.8902 24.0244 34.8656 23.8639 34.8163 23.7034C34.767 23.543 34.6684 23.4054 34.5698 23.2908C34.4712 23.1762 34.3233 23.0616 34.1507 22.9928C33.9782 22.9241 33.8056 22.8782 33.5838 22.8782C33.3619 22.8782 33.1894 22.9241 33.0168 22.9928C32.8443 23.0616 32.721 23.1762 32.5978 23.2908C32.4745 23.4054 32.4006 23.5659 32.3266 23.7264C32.2527 23.8868 32.228 24.0473 32.228 24.2078C32.228 24.3682 32.2527 24.5287 32.3266 24.6891C32.4006 24.8496 32.4745 24.9871 32.5978 25.1247C32.721 25.2393 32.8443 25.3539 33.0168 25.4227C33.1894 25.4915 33.3619 25.5373 33.5838 25.5373C33.8056 25.5373 34.0028 25.4915 34.1507 25.4227C34.3233 25.3539 34.4465 25.2393 34.5698 25.1247C34.6684 25.0101 34.767 24.8496 34.8163 24.6891C34.8656 24.5058 34.8902 24.3453 34.8902 24.1848ZM39.623 22.8782V24.8725C39.623 25.1247 39.6723 25.3081 39.7709 25.4227C39.8695 25.5373 40.0421 25.6061 40.3132 25.6061C40.4118 25.6061 40.5104 25.6061 40.609 25.5832C40.7076 25.5602 40.8062 25.5373 40.8555 25.5144L40.8802 26.7752C40.7569 26.821 40.5844 26.8439 40.3872 26.8898C40.19 26.9127 39.9928 26.9356 39.7956 26.9356C39.4258 26.9356 39.1054 26.8898 38.8589 26.7981C38.6124 26.7064 38.3905 26.5918 38.2426 26.4313C38.0947 26.2708 37.9715 26.0645 37.9222 25.8353C37.8729 25.6061 37.8236 25.3539 37.8236 25.0788V22.8782H36.9362V21.5945H37.8236V20.2191H39.623V21.5945H40.9295V22.8782H39.623Z" fill="#065DAD"/>
</svg>
