<svg width="196" height="27" viewBox="0 0 196 27" fill="none" xmlns="http://www.w3.org/2000/svg">
<mask id="mask0_6070_479" style="mask-type:luminance" maskUnits="userSpaceOnUse" x="0" y="0" width="196" height="27">
<path d="M196 0H0V27H196V0Z" fill="white"/>
</mask>
<g mask="url(#mask0_6070_479)">
</g>
<mask id="mask1_6070_479" style="mask-type:luminance" maskUnits="userSpaceOnUse" x="0" y="0" width="196" height="27">
<path d="M196 0H0V27H196V0Z" fill="white"/>
</mask>
<g mask="url(#mask1_6070_479)">
<path d="M8.39956 8.82515V10.1733H32.2989V17.0383H8.39956V26.9264H0.250061V7.05368C0.250061 6.26227 0.588398 5.50307 1.19152 4.94172L5.28098 1.1365C5.88411 0.575152 6.70298 0.262268 7.55618 0.262268H33.7111V6.92945H10.6551C10.1158 6.92945 9.596 7.1319 9.21354 7.48619C8.83107 7.84049 8.39956 8.32362 8.39956 8.82515Z" fill="white"/>
<path d="M46.1854 8.82515V10.2607H68.8883V16.9279H46.1854V18.3635C46.1854 18.865 46.4012 19.3482 46.7836 19.7025C47.1661 20.0567 47.6859 20.2592 48.2252 20.2592H72.4727V26.9264H45.1263C44.2731 26.9264 43.4591 26.6135 42.856 26.0521L38.7616 22.2469C38.1585 21.6856 37.8202 20.9264 37.8202 20.135V7.05368C37.8202 6.26227 38.1585 5.50307 38.7616 4.94172L42.856 1.1365C43.4591 0.575152 44.2731 0.262268 45.1263 0.262268H72.4727V6.92945H48.2252C47.6859 6.92945 47.1661 7.1319 46.7836 7.48619C46.4012 7.84049 46.1854 8.32362 46.1854 8.82515Z" fill="white"/>
<path d="M84.9471 11.7929H103.217C103.757 11.7929 104.281 11.5905 104.664 11.2362C105.046 10.8819 105.262 10.3988 105.262 9.89724V8.82515C105.262 8.32362 105.046 7.84049 104.664 7.48619C104.281 7.1319 103.757 6.92945 103.217 6.92945H84.9471V11.7929ZM112.686 12.6672L109.445 15.681L112.686 18.6948C113.294 19.2561 113.632 20.0153 113.632 20.8067V26.9264H105.267V19.569L104.07 18.4601H84.952V26.9264H76.5867V0.262268H106.326C107.179 0.262268 107.998 0.575152 108.601 1.1365L112.691 4.94172C113.294 5.50307 113.632 6.26227 113.632 7.05368V10.5506C113.632 11.342 113.294 12.1012 112.691 12.6626L112.686 12.6672Z" fill="white"/>
<path d="M146.995 7.48159C146.613 7.1273 146.088 6.92484 145.549 6.92484H128.122C127.582 6.92484 127.063 7.1273 126.68 7.48159C126.298 7.83589 126.077 8.31902 126.077 8.82055V18.3589C126.077 18.8604 126.298 19.3436 126.68 19.6979C127.063 20.0521 127.582 20.2546 128.122 20.2546H145.549C146.088 20.2546 146.613 20.0521 146.995 19.6979C147.378 19.3436 147.593 18.8604 147.593 18.3589V8.82055C147.593 8.31902 147.378 7.83589 146.995 7.48159ZM155.959 7.05368V20.135C155.959 20.9264 155.62 21.6856 155.017 22.2469L150.928 26.0521C150.32 26.6135 149.506 26.9264 148.652 26.9264H125.028C124.175 26.9264 123.356 26.6135 122.757 26.0521L118.663 22.2469C118.06 21.6856 117.722 20.9264 117.722 20.135V7.05368C117.722 6.26227 118.06 5.50307 118.663 4.94172L122.757 1.1365C123.361 0.575152 124.175 0.262268 125.028 0.262268H148.652C149.506 0.262268 150.325 0.575152 150.928 1.1365L155.017 4.94172C155.62 5.50307 155.959 6.26227 155.959 7.05368Z" fill="white"/>
<mask id="mask2_6070_479" style="mask-type:luminance" maskUnits="userSpaceOnUse" x="0" y="0" width="196" height="27">
<path d="M195.892 0.230057H0.250061V26.954H195.892V0.230057Z" fill="white"/>
</mask>
<g mask="url(#mask2_6070_479)">
<path d="M195.892 7.05368V26.9264H187.527V8.82515C187.527 8.32362 187.311 7.84049 186.929 7.48619C186.546 7.1319 186.021 6.92945 185.482 6.92945H170.443C169.904 6.92945 169.384 7.1319 169.002 7.48619C168.619 7.84049 168.403 8.32362 168.403 8.82515V26.9264H160.038V7.05368C160.038 6.26227 160.377 5.50307 160.98 4.94172L165.069 1.1365C165.677 0.575152 166.491 0.262268 167.339 0.262268H188.576C189.429 0.262268 190.248 0.575152 190.851 1.1365L194.941 4.94172C195.544 5.50307 195.882 6.26227 195.882 7.05368H195.892Z" fill="white"/>
</g>
</g>
</svg>
