<svg xmlns="http://www.w3.org/2000/svg" width="115.452" height="60" viewBox="0 0 115.452 60">
  <g id="Grupo_141" data-name="Grupo 141" transform="translate(1092.952 369.109)">
    <path id="Caminho_113" data-name="Caminho 113" d="M-842.826-359.738l-19.467,18-19.468-18,4.079-5.432c.866-1.152,1.71-2.322,2.617-3.442a1.4,1.4,0,0,1,.951-.475q11.822-.039,23.644-.006a1.19,1.19,0,0,1,.847.338C-847.349-365.779-845.107-362.776-842.826-359.738Zm-26.935.657,7.472,14.781,7.528-14.781Zm4.7,12.831a2.89,2.89,0,0,0-.1-.554c-1.986-3.937-3.966-7.876-5.988-11.794a1.207,1.207,0,0,0-.9-.506c-2.013-.045-4.028-.026-6.043-.02-.208,0-.417.049-.8.1Zm19.231-12.669-.114-.209c-2.1,0-4.2.028-6.293-.016a1.226,1.226,0,0,0-1.307.791c-1.89,3.777-3.824,7.531-5.74,11.3a6.109,6.109,0,0,0-.234.606l.125.077Zm-16.348-8.087-6.4,6.38h12.767Zm10.863-.56h-8.707l6.255,6.24Zm-13.1-.021h-8.352l2.071,6.207Zm-9.807.187-5.1,6.8h7.372Zm24.194.474-2.464,6.281h7.189Z" transform="translate(-172.887)"/>
    <path id="Caminho_114" data-name="Caminho 114" d="M-626.43-64.129a3.981,3.981,0,0,1-.665-.618c-.685-1.014-1.335-2.05-2-3.075-.117-.181-.259-.347-.532-.711,0,1.4.015,2.564-.015,3.73,0,.191-.205.377-.315.565a1.656,1.656,0,0,1-.234-.554c-.019-1.581-.011-3.162-.011-5.062a4.66,4.66,0,0,1,.916.718c.8,1.178,1.562,2.382,2.512,3.562V-69.61l.271-.081c.1.145.3.288.3.434.021,1.662.013,3.324.013,4.985Z" transform="translate(-378.817 -244.98)"/>
    <path id="Caminho_115" data-name="Caminho 115" d="M-873.961-66.063a2.728,2.728,0,0,1-2.863,2.707,2.814,2.814,0,0,1-2.818-2.785,2.8,2.8,0,0,1,2.854-2.653A2.71,2.71,0,0,1-873.961-66.063Zm-2.791-2.17a2.216,2.216,0,0,0-2.32,2.147,2.253,2.253,0,0,0,2.309,2.178,2.247,2.247,0,0,0,2.272-2.125A2.2,2.2,0,0,0-876.752-68.232Z" transform="translate(-174.621 -245.846)"/>
    <path id="Caminho_116" data-name="Caminho 116" d="M-560.592-67.793c-.267-.1-.541-.18-.8-.3a2.375,2.375,0,0,0-2.66.455,2.038,2.038,0,0,0-.4,2.474,2.266,2.266,0,0,0,2.313,1.188,2.3,2.3,0,0,0,1.939-1.615c-.519,0-.951.024-1.377-.012-.168-.014-.323-.163-.484-.25.149-.1.294-.274.449-.282.627-.033,1.257-.014,1.874-.014a2.361,2.361,0,0,1-1.774,2.6,2.892,2.892,0,0,1-3.447-1.361,2.629,2.629,0,0,1,.831-3.407,2.829,2.829,0,0,1,3.606.227Z" transform="translate(-431.977 -245.792)"/>
    <path id="Caminho_117" data-name="Caminho 117" d="M-740.4-65.616c0,.659.017,1.287-.012,1.913-.007.155-.165.3-.253.457-.1-.136-.292-.271-.294-.408q-.031-2.292,0-4.584c0-.134.2-.265.307-.4.083.129.232.256.237.388.025.631.011,1.263.011,1.968h2.869c0-.62-.017-1.269.013-1.916.007-.153.173-.3.266-.447.1.147.278.292.28.44q.032,2.249,0,4.5c0,.154-.163.306-.25.459-.1-.163-.287-.322-.3-.491-.037-.6-.014-1.205-.014-1.878Z" transform="translate(-288.141 -245.97)"/>
    <path id="Caminho_118" data-name="Caminho 118" d="M-1009.641-67.822a6.376,6.376,0,0,1-.76-.248,2.39,2.39,0,0,0-3.015.785,2.078,2.078,0,0,0,.542,2.859,2.293,2.293,0,0,0,2.537.185,1.29,1.29,0,0,1,.742-.093,2.626,2.626,0,0,1-3.871.14,2.609,2.609,0,0,1-.021-3.864,2.783,2.783,0,0,1,3.913,0Z" transform="translate(-64.361 -245.79)"/>
    <path id="Caminho_119" data-name="Caminho 119" d="M-943.921-63.741c.992,0,1.915-.015,2.838.013.182.006.358.178.537.274-.185.087-.369.246-.556.25-1.107.024-2.214.012-3.437.012,0-1.707-.007-3.361.014-5.015,0-.13.2-.258.314-.387.081.159.23.318.233.478.02,1.235.011,2.47.014,3.706C-943.963-64.239-943.943-64.069-943.921-63.741Z" transform="translate(-121.494 -246.01)"/>
    <path id="Caminho_120" data-name="Caminho 120" d="M-803.32-68.238c-.1,1.682-.187,3.262-.288,4.842,0,.005-.167,0-.363,0v-4.842c-.51,0-.919.028-1.32-.014-.151-.016-.284-.191-.426-.294.133-.082.264-.234.4-.236q1.58-.029,3.161,0c.135,0,.268.154.4.236-.143.1-.276.274-.431.293A9.542,9.542,0,0,1-803.32-68.238Z" transform="translate(-235.139 -245.845)"/>
    <path id="Caminho_121" data-name="Caminho 121" d="M-675.537-65.8c0,.718.016,1.437-.014,2.155-.006.147-.182.288-.279.431-.093-.145-.266-.29-.268-.436q-.03-2.241,0-4.482c0-.159.15-.317.231-.475.111.16.31.316.317.48C-675.518-67.348-675.537-66.571-675.537-65.8Z" transform="translate(-341.237 -246.003)"/>
    <path id="Caminho_122" data-name="Caminho 122" d="M-503.438-175.388a9.081,9.081,0,0,1-2.256,3.884,7.159,7.159,0,0,1-5.059,2.032c-1.018-.009-2.037,0-3.106,0v-14.562c4.406-.714,8.688.333,10.233,5.406a2.4,2.4,0,0,0,.189.375Zm-8.845,4.408c2.79.233,5.081-.481,6.5-2.9a5.482,5.482,0,0,0-.169-6.166c-1.485-2.227-3.7-2.874-6.335-2.607Z" transform="translate(-474.062 -151.342)"/>
    <path id="Caminho_123" data-name="Caminho 123" d="M-844.806-169.381h-1.564c.371-1.758.73-3.465,1.093-5.171q.875-4.112,1.753-8.223c.3-1.41.293-1.412,1.909-1.224l3.635,11.891c.173-.465.285-.723.367-.99q1.473-4.834,2.937-9.671c.418-1.381.413-1.382,2.005-1.241l3.133,14.6H-831.1l-2.42-11.208-.18-.011q-.934,3.042-1.867,6.084c-.463,1.511-.963,3.013-1.363,4.54-.167.638-.525.648-1.046.671a.846.846,0,0,1-1.018-.708c-.953-3.231-1.944-6.451-2.927-9.673a1.89,1.89,0,0,0-.479-.856Z" transform="translate(-201.859 -151.466)"/>
    <path id="Caminho_124" data-name="Caminho 124" d="M-604.622-184.049a1.646,1.646,0,0,1,2.154.925c1.968,3.282,4.034,6.506,6.065,9.752.138.221.288.435.6.9v-11.6h1.547v14.567a1.644,1.644,0,0,1-2.145-.883c-1.965-3.284-4.027-6.511-6.055-9.758-.154-.247-.323-.486-.641-.963v11.656h-1.52Z" transform="translate(-399.761 -151.402)"/>
    <path id="Caminho_125" data-name="Caminho 125" d="M-712.326-169.3a7.38,7.38,0,0,1-7.483-7.368,7.418,7.418,0,0,1,7.517-7.355,7.3,7.3,0,0,1,7.391,7.432A7.257,7.257,0,0,1-712.326-169.3Zm-5.914-7.329a5.929,5.929,0,0,0,5.931,5.862,5.936,5.936,0,0,0,5.9-5.9,5.929,5.929,0,0,0-5.934-5.862A5.924,5.924,0,0,0-718.24-176.624Z" transform="translate(-305.466 -151.52)"/>
    <path id="Caminho_126" data-name="Caminho 126" d="M-1092.952-169.425v-14.662c3.169-.214,6.229-.256,8.534,2.375a7.011,7.011,0,0,1,1.258,7.924,6.967,6.967,0,0,1-6.6,4.359C-1090.805-169.4-1091.854-169.425-1092.952-169.425Zm1.57-13.176v11.661c2.661.253,4.91-.392,6.382-2.677a5.487,5.487,0,0,0,0-6.318C-1086.477-182.216-1088.718-182.874-1091.382-182.6Z" transform="translate(0 -151.391)"/>
    <path id="Caminho_127" data-name="Caminho 127" d="M-946.075-169.45c-1.542.148-1.543.149-2.123-1.134-.5-1.116-.972-2.25-1.529-3.339a1.189,1.189,0,0,0-.857-.547q-2.848-.073-5.7,0a1.19,1.19,0,0,0-.848.562c-.557,1.089-1.025,2.222-1.528,3.337-.57,1.262-.572,1.261-2.127,1.121.067-.2.114-.391.194-.569,2-4.467,4.018-8.929,6.006-13.4.224-.5.487-.772,1.07-.7.457.055.9-.1,1.178.53,2.039,4.613,4.124,9.207,6.192,13.807A1.983,1.983,0,0,1-946.075-169.45Zm-10.114-6.6h5.532l-2.77-6.157Z" transform="translate(-108.195 -151.427)"/>
    <path id="Caminho_128" data-name="Caminho 128" d="M-1001.618-169.051h-1.462v-14.623h1.462Z" transform="translate(-73.572 -151.802)"/>
  </g>
</svg>
