<svg width="176" height="43" viewBox="0 0 176 43" fill="none" xmlns="http://www.w3.org/2000/svg">
<g clip-path="url(#clip0_4125_464)">
<path d="M69.5246 10.0317H62.8114C61.76 10.0317 60.9078 10.9062 60.9078 11.9865V12.3371H60.5144V11.9865C60.5144 10.9075 59.6622 10.0317 58.6095 10.0317H51.8963C51.7299 10.0317 51.595 10.1701 51.595 10.3422V11.905C51.595 12.702 52.2241 13.3462 52.9994 13.3462H60.5157C60.5157 14.2454 60.203 15.0682 59.6824 15.7086C59.2953 16.186 59.0974 16.7953 59.0974 17.4163V32.7368C59.0974 32.9114 59.2361 33.0551 59.4075 33.0551H62.0184C62.1886 33.0551 62.3286 32.9127 62.3286 32.7368V17.4163C62.3286 16.7953 62.1306 16.186 61.7436 15.7086C61.2229 15.0682 60.9103 14.2454 60.9103 13.3462H68.4253C69.2006 13.3462 69.8297 12.7007 69.8297 11.905V10.3422C69.8297 10.1701 69.6935 10.0317 69.5271 10.0317" fill="white"/>
<path d="M128.148 9.94629H120.526C120.357 9.94629 120.219 10.0873 120.219 10.2607C120.219 11.6864 119.092 12.843 117.703 12.843H115.868C115.095 12.843 114.468 13.486 114.468 14.279V31.5336C114.468 32.3267 115.095 32.9697 115.868 32.9697H117.394C117.562 32.9697 117.698 32.8299 117.698 32.6579V21.8655H117.702C119.091 21.8655 120.218 23.0208 120.218 24.4478C120.218 24.6212 120.356 24.7622 120.525 24.7622H126.635C127.407 24.7622 128.033 24.1205 128.033 23.3274V21.7542C128.033 21.5848 127.898 21.4463 127.733 21.4463H119.285C118.409 21.4463 117.698 20.718 117.698 19.8175V14.891C117.698 13.9918 118.408 13.2621 119.285 13.2621H129.237C129.407 13.2621 129.544 13.1211 129.544 12.9478V11.381C129.544 10.5893 128.918 9.94629 128.145 9.94629" fill="white"/>
<path d="M171.201 21.4449H161.388C161.219 21.4449 161.081 21.5859 161.081 21.7592V23.326C161.081 24.1177 161.707 24.7607 162.479 24.7607H165.457C165.626 24.7607 165.763 24.6197 165.763 24.4463C165.763 23.0206 166.889 21.864 168.28 21.864V28.0248C168.28 28.924 167.57 29.6536 166.693 29.6536H162.174C160.346 29.6536 158.865 28.1335 158.865 26.2576V14.8895C158.865 13.9903 159.575 13.2607 160.452 13.2607H169.616C169.786 13.2607 169.922 13.1197 169.922 12.9463V11.3796C169.922 10.5878 169.297 9.94482 168.524 9.94482H161.691C161.522 9.94482 161.385 10.0858 161.385 10.2592C161.385 11.6862 160.258 12.8415 158.869 12.8415H157.038C156.262 12.8415 155.634 13.4871 155.634 14.2827V26.3585C155.634 30.0094 158.517 32.9682 162.075 32.9682H165.485C165.655 32.9682 165.791 32.8272 165.791 32.6538C165.791 31.2281 166.918 30.0715 168.308 30.0715H170.105C170.881 30.0715 171.51 29.4259 171.51 28.6303V21.7631C171.51 21.5885 171.371 21.4449 171.2 21.4449" fill="white"/>
<path d="M98.7613 13.2608H108.79C108.959 13.2608 109.096 13.1198 109.096 12.9464V11.3797C109.096 10.5879 108.471 9.94495 107.698 9.94495H100.002C99.8316 9.94495 99.6954 10.086 99.6954 10.2593C99.6954 11.685 98.5684 12.8416 97.1791 12.8416H95.3486C94.5732 12.8416 93.9442 13.4872 93.9442 14.2829V26.3573C93.9442 30.0082 96.8274 32.967 100.385 32.967H107.692C108.467 32.967 109.096 32.3215 109.096 31.5258V29.9604C109.096 29.7896 108.963 29.6525 108.796 29.6525H100.485C98.6566 29.6525 97.1753 28.1323 97.1753 26.2564V14.8883C97.1753 13.9892 97.8851 13.2595 98.7625 13.2595" fill="white"/>
<path d="M78.5246 13.2608H88.5496C88.7211 13.2608 88.8598 13.1185 88.8598 12.9425V11.3862C88.8598 10.5892 88.2307 9.94495 87.4554 9.94495H79.7651C79.595 9.94495 79.4588 10.086 79.4588 10.2593C79.4588 11.685 78.3317 12.8416 76.9425 12.8416H75.1119C74.3366 12.8416 73.7075 13.4872 73.7075 14.2829V19.3C73.7075 20.3789 74.5598 21.2535 75.6124 21.2535H75.9541V21.6572H75.6124C74.561 21.6572 73.7075 22.5317 73.7075 23.612V26.3573C73.7075 30.0082 76.5907 32.967 80.1484 32.967H87.4554C88.2307 32.967 88.8598 32.3215 88.8598 31.5258V29.9694C88.8598 29.7935 88.7211 29.6512 88.5496 29.6512H80.2581C78.4238 29.6512 76.9374 28.1259 76.9374 26.2435V21.6559H77.3043C78.1805 21.6559 78.9823 21.9767 79.6063 22.511C80.0715 22.9082 80.6653 23.1113 81.2704 23.1113H86.1152C86.2854 23.1113 86.4254 22.969 86.4254 22.7931V20.1137C86.4254 19.9391 86.2867 19.7955 86.1152 19.7955H81.2704C80.6653 19.7955 80.0702 19.9986 79.6063 20.3958C78.9823 20.9301 78.1805 21.2509 77.3043 21.2509H76.9374V14.8857C76.9374 13.9866 77.6472 13.2569 78.5246 13.2569" fill="white"/>
<path d="M143.673 9.94629H140.263C140.094 9.94629 139.957 10.0873 139.957 10.2607C139.957 11.6864 138.83 12.843 137.44 12.843H135.61C134.835 12.843 134.206 13.4885 134.206 14.2842V31.5271C134.206 32.3228 134.835 32.9684 135.61 32.9684H137.127C137.298 32.9684 137.437 32.8261 137.437 32.6501V14.8664C137.437 14.0578 138.01 13.3902 138.763 13.2621H143.575C145.403 13.2621 146.884 14.7823 146.884 16.6582V32.6514C146.884 32.8261 147.023 32.9697 147.194 32.9697H148.711C149.486 32.9697 150.115 32.3241 150.115 31.5284V16.5573C150.115 12.9064 147.232 9.94758 143.675 9.94758" fill="white"/>
<path d="M144.6 21.445H139.721C139.55 21.445 139.411 21.5873 139.411 21.7633V24.4426C139.411 24.6173 139.55 24.7609 139.721 24.7609H143.504C144.28 24.7609 144.909 24.1153 144.909 23.3196V21.7633C144.909 21.5886 144.77 21.445 144.599 21.445" fill="white"/>
<path d="M38.6515 0H6.24672C5.90886 0 5.63529 0.280741 5.63529 0.627463C5.63529 3.47498 3.38622 5.78301 0.611435 5.78301H0V17.8213C0 19.6622 1.45484 21.1565 3.25006 21.1565H3.83502V21.8448H3.25006C1.45484 21.8448 0 23.3378 0 25.18V39.6647C0 41.507 1.45484 43 3.25006 43H35.6549C35.9927 43 36.2663 42.7193 36.2663 42.3725C36.2663 39.525 38.5154 37.217 41.2901 37.217H41.9016V25.1787C41.9016 23.3378 40.4455 21.8435 38.6515 21.8435H38.0666V21.1552H38.6515C40.4467 21.1552 41.9016 19.6622 41.9016 17.82V3.33655C41.9016 1.49427 40.4455 0 38.6515 0Z" fill="#E4032E"/>
<path d="M34.1963 8.08972H24.5369C22.7416 8.08972 21.2868 9.5827 21.2868 11.4263V12.0253H20.6161V11.4263C20.6161 9.58399 19.1613 8.08972 17.366 8.08972H7.70537C7.40785 8.08972 7.16705 8.33683 7.16705 8.64215V14.0345C7.16705 15.3929 8.2399 16.4938 9.56363 16.4938H32.338C33.6617 16.4938 34.7358 15.3929 34.7358 14.0345V8.64215C34.7358 8.33683 34.495 8.08972 34.1975 8.08972" fill="white"/>
<path d="M21.2865 17.0942V16.4939H20.6158V17.0942C20.6158 18.8576 19.282 20.3001 17.5939 20.4204H17.3948C17.0972 20.4204 16.8564 20.6675 16.8564 20.9728V35.8275C16.8564 36.1329 17.0972 36.38 17.3948 36.38H24.5076C24.8051 36.38 25.0459 36.1329 25.0459 35.8275V20.9728C25.0459 20.6675 24.8051 20.4204 24.5076 20.4204H24.3071C22.6191 20.2988 21.2865 18.8563 21.2865 17.0942Z" fill="white"/>
<path d="M174.124 7.29161C174.124 7.01475 173.994 6.87502 173.734 6.87502H173.242V7.71854H173.741C173.872 7.71854 173.971 7.67973 174.031 7.6021C174.093 7.52448 174.124 7.42098 174.124 7.29161ZM173.242 8.04327V8.86997H172.875V6.55029H173.734C174.244 6.55029 174.5 6.7961 174.5 7.28902C174.5 7.61892 174.376 7.84274 174.131 7.95917L174.504 8.86997H174.1L173.774 8.04327H173.243H173.242Z" fill="white"/>
<path d="M173.689 5.60964C172.561 5.60964 171.642 6.55277 171.642 7.71067C171.642 8.86856 172.561 9.8117 173.689 9.8117C174.817 9.8117 175.736 8.86856 175.736 7.71067C175.736 6.55277 174.817 5.60964 173.689 5.60964ZM173.689 10.0808C172.415 10.0808 171.378 9.01734 171.378 7.70938C171.378 6.40141 172.415 5.33795 173.689 5.33795C174.964 5.33795 176 6.4027 176 7.70938C176 9.01605 174.964 10.0808 173.689 10.0808Z" fill="white"/>
</g>
<defs>
<clipPath id="clip0_4125_464">
<rect width="176" height="43" fill="white"/>
</clipPath>
</defs>
</svg>
