<svg width="385" height="56" viewBox="0 0 385 56" fill="none" xmlns="http://www.w3.org/2000/svg">
<g clip-path="url(#clip0_6149_2111)">
<mask id="mask0_6149_2111" style="mask-type:luminance" maskUnits="userSpaceOnUse" x="0" y="0" width="385" height="56">
<path d="M385 0H0V56H385V0Z" fill="white"/>
</mask>
<g mask="url(#mask0_6149_2111)">
</g>
<mask id="mask1_6149_2111" style="mask-type:luminance" maskUnits="userSpaceOnUse" x="0" y="0" width="385" height="56">
<path d="M385 0H0V56H385V0Z" fill="white"/>
</mask>
<g mask="url(#mask1_6149_2111)">
<path d="M16.4992 18.304V21.1002H63.4443V35.3388H16.4992V55.8473H0.491211V14.6298C0.491211 12.9884 1.1558 11.4137 2.34051 10.2495L10.3734 2.35717C11.5581 1.19289 13.1666 0.543945 14.8425 0.543945H66.2182V14.3722H20.9298C19.8703 14.3722 18.8493 14.7921 18.098 15.5269C17.3468 16.2617 16.4992 17.2638 16.4992 18.304Z" fill="white"/>
<path d="M90.7214 18.304V21.2815H135.316V35.1097H90.7214V38.0872C90.7214 39.1274 91.1452 40.1295 91.8964 40.8643C92.6477 41.5992 93.6687 42.0191 94.7282 42.0191H142.357V55.8473H88.6409C86.965 55.8473 85.3661 55.1983 84.1814 54.0341L76.1389 46.1418C74.9542 44.9775 74.2896 43.4028 74.2896 41.7614V14.6298C74.2896 12.9884 74.9542 11.4137 76.1389 10.2495L84.1814 2.35717C85.3661 1.19289 86.965 0.543945 88.6409 0.543945H142.357V14.3722H94.7282C93.6687 14.3722 92.6477 14.7921 91.8964 15.5269C91.1452 16.2617 90.7214 17.2638 90.7214 18.304Z" fill="white"/>
<path d="M166.86 24.4594H202.748C203.808 24.4594 204.838 24.0395 205.59 23.3047C206.341 22.5698 206.765 21.5678 206.765 20.5276V18.304C206.765 17.2638 206.341 16.2617 205.59 15.5269C204.838 14.7921 203.808 14.3722 202.748 14.3722H166.86V24.4594ZM221.347 26.2726L214.98 32.5235L221.347 38.7743C222.541 39.9386 223.206 41.5133 223.206 43.1547V55.8473H206.774V40.5876L204.424 38.2876H166.87V55.8473H150.438V0.543945H208.855C210.531 0.543945 212.139 1.19289 213.324 2.35717L221.357 10.2495C222.541 11.4137 223.206 12.9884 223.206 14.6298V21.8827C223.206 23.5242 222.541 25.0988 221.357 26.2631L221.347 26.2726Z" fill="white"/>
<path d="M288.74 15.5174C287.989 14.7825 286.959 14.3626 285.899 14.3626H251.668C250.608 14.3626 249.587 14.7825 248.836 15.5174C248.085 16.2522 247.651 17.2542 247.651 18.2945V38.0777C247.651 39.1179 248.085 40.12 248.836 40.8548C249.587 41.5896 250.608 42.0095 251.668 42.0095H285.899C286.959 42.0095 287.989 41.5896 288.74 40.8548C289.492 40.12 289.915 39.1179 289.915 38.0777V18.2945C289.915 17.2542 289.492 16.2522 288.74 15.5174ZM306.347 14.6298V41.7614C306.347 43.4028 305.683 44.9775 304.498 46.1418L296.465 54.0341C295.271 55.1983 293.672 55.8473 291.996 55.8473H245.59C243.914 55.8473 242.306 55.1983 241.131 54.0341L233.088 46.1418C231.903 44.9775 231.239 43.4028 231.239 41.7614V14.6298C231.239 12.9884 231.903 11.4137 233.088 10.2495L241.131 2.35717C242.315 1.19289 243.914 0.543945 245.59 0.543945H291.996C293.672 0.543945 295.28 1.19289 296.465 2.35717L304.498 10.2495C305.683 11.4137 306.347 12.9884 306.347 14.6298Z" fill="white"/>
<mask id="mask2_6149_2111" style="mask-type:luminance" maskUnits="userSpaceOnUse" x="0" y="0" width="385" height="56">
<path d="M384.788 0.477051H0.491211V55.9045H384.788V0.477051Z" fill="white"/>
</mask>
<g mask="url(#mask2_6149_2111)">
<path d="M384.788 14.6298V55.8473H368.356V18.304C368.356 17.2638 367.933 16.2617 367.181 15.5269C366.43 14.7921 365.399 14.3722 364.34 14.3722H334.799C333.74 14.3722 332.719 14.7921 331.968 15.5269C331.216 16.2617 330.793 17.2638 330.793 18.304V55.8473H314.361V14.6298C314.361 12.9884 315.025 11.4137 316.21 10.2495L324.243 2.35717C325.437 1.19289 327.036 0.543945 328.702 0.543945H370.418C372.093 0.543945 373.702 1.19289 374.887 2.35717L382.92 10.2495C384.104 11.4137 384.769 12.9884 384.769 14.6298H384.788Z" fill="white"/>
</g>
</g>
</g>
<defs>
<clipPath id="clip0_6149_2111">
<rect width="385" height="56" fill="white"/>
</clipPath>
</defs>
</svg>
