<svg width="60" height="13" viewBox="0 0 60 13" fill="none" xmlns="http://www.w3.org/2000/svg">
<path d="M45.5798 7.15866L46.6488 0.492473L45.5514 7.20933C45.5609 7.19268 45.5707 7.17578 45.5798 7.15866Z" fill="#61DCAB"/>
<path d="M26.6743 0.119271C26.1634 0.106597 25.6552 0.201456 25.1783 0.398504C25.2787 1.01628 25.2727 1.64857 25.1606 2.26402L24.8945 3.91358L24.6042 5.5624L24.5931 5.57239L23.9217 9.69111C23.6871 11.0816 24.1896 12.0554 25.5325 12.0947C26.0881 12.0948 26.633 11.9302 27.1069 11.619C26.9966 11.0134 26.9937 10.3909 27.0983 9.78411L27.3105 8.46471L27.7074 6.20153L27.7387 6.02456L28.3374 2.35752C28.5711 0.966765 28.017 0.158518 26.6743 0.119271Z" fill="#61DCAB"/>
<path d="M11.0349 5.39327C11.1322 4.81395 11.1779 4.22602 11.1713 3.63742C11.1396 1.97028 10.5693 0.834978 9.54146 0.363545C9.15591 0.193631 8.74215 0.10971 8.32538 0.11689C7.97096 0.118112 7.61851 0.173616 7.27872 0.281724C6.29593 0.589273 5.33375 1.31806 4.38134 2.3808L3.97132 5.1202C4.90267 3.8165 5.89367 3.15337 6.96494 3.15337C7.48539 3.15337 7.79384 3.39669 7.9045 3.92188C7.97658 4.41094 7.96154 4.91023 7.86015 5.39327L7.15698 9.713C6.90123 11.3128 7.43388 12.1127 8.75491 12.1127C9.33593 12.1381 9.91187 11.9875 10.4169 11.6784C10.2038 11.2441 10.1825 10.5367 10.3318 9.59857L11.0349 5.39327Z" fill="#61DCAB"/>
<path d="M21.6823 0.115703C21.168 0.110068 20.6575 0.210604 20.1786 0.411834C20.2418 0.830136 20.2493 1.25597 20.2007 1.67652C20.2049 1.91707 20.1826 2.15732 20.1342 2.39224L20.0486 2.84418L19.9537 3.81367C19.9808 3.88859 19.7916 4.87213 19.8153 4.94848L19.453 6.84565C19.4209 6.91843 19.3874 6.99034 19.3523 7.06138L18.9428 9.54271C18.9262 9.64737 18.9114 9.74916 18.8984 9.8481C18.9053 9.83003 18.9126 9.8122 18.9192 9.79413C18.8128 10.5484 18.8767 11.1197 19.1323 11.4853C19.388 11.8739 19.8375 12.0933 20.4981 12.0933C21.0884 12.1069 21.6706 11.9439 22.1794 11.6225C21.9663 11.1882 21.945 10.4808 22.094 9.54271L23.1997 2.84418L23.2853 2.39224C23.5532 1.02837 23.0241 0.152333 21.6823 0.115703Z" fill="#61DCAB"/>
<path d="M38.0247 0.63114C37.7311 0.295761 37.2641 0.126158 36.6259 0.126158C36.264 0.124742 35.9044 0.187512 35.5616 0.311926C34.7349 0.613529 34.0078 1.28264 33.3884 2.32041C33.4583 1.91606 33.2052 3.18096 33.2052 3.18096C33.2052 3.18096 33.2571 2.73951 33.2562 2.73928L33.0853 3.79012L32.9522 4.84265C33.6957 3.87005 34.587 3.39457 35.668 3.39457C36.1844 3.37986 36.6921 3.53897 37.1198 3.84959C37.2846 3.97393 37.4337 4.12063 37.5633 4.28605C37.749 4.03494 37.9087 3.76289 38.0396 3.47471C38.2743 2.95873 38.3957 2.39194 38.3944 1.81781C38.4195 1.38578 38.2869 0.960232 38.0247 0.63114Z" fill="#61DCAB"/>
<path d="M48.3498 9.37574L49.8626 0.116669H46.7102L46.6488 0.492473L45.5798 7.15866C45.5707 7.17578 45.5609 7.19268 45.5514 7.20933L45.1964 9.37547C45.181 9.47062 45.168 9.56578 45.1562 9.6595C45.162 9.64856 45.168 9.63784 45.1737 9.62666C45.0673 10.3809 45.1312 10.9522 45.3868 11.3178C45.5519 11.5585 45.7674 11.7542 46.016 11.8891C46.2645 12.0241 46.5392 12.0944 46.8178 12.0944C47.382 12.033 47.9303 11.8577 48.4339 11.5778C48.2219 11.144 48.2008 10.3127 48.3498 9.37574Z" fill="#61DCAB"/>
<path d="M38.0247 0.63114C37.7311 0.295761 37.2641 0.126158 36.6259 0.126158C36.264 0.124742 35.9044 0.187512 35.5616 0.311926C34.7349 0.613529 34.0078 1.28264 33.3884 2.32041C33.4643 1.97112 33.4605 1.6073 33.3769 1.26004C33.3312 1.0996 33.2564 0.950375 33.1569 0.820944C32.9721 0.60923 32.7481 0.441337 32.4992 0.328069C32.2503 0.214802 31.9821 0.158663 31.7118 0.163265C31.1921 0.147557 30.6738 0.227039 30.179 0.398277C30.2987 1.05457 30.3104 1.72828 30.2136 2.38891L30.1557 2.73974H30.1531L29.9823 3.79059L29.1457 8.85553L29.1428 8.8603C29.0907 9.15904 29.041 9.45872 28.9734 9.75319L28.9798 9.74297C28.8731 10.36 28.9173 11.049 29.2155 11.4377C29.4344 11.7198 29.7848 12.0954 30.6418 12.0954C31.1815 12.1196 31.7112 11.9338 32.1333 11.5721C32.0849 11.3111 32.0615 11.0454 32.0635 10.7793C32.0664 10.4093 32.0969 10.04 32.1546 9.67517V9.67067H32.1581L32.3852 8.27303L32.9522 4.84265C33.6957 3.87005 34.587 3.39457 35.668 3.39457C36.1844 3.37986 36.6921 3.53897 37.1198 3.84959C37.2846 3.97393 37.4337 4.12063 37.5633 4.28605C37.749 4.03494 37.9087 3.76289 38.0396 3.47471C38.2743 2.95873 38.3957 2.39194 38.3944 1.81781C38.4195 1.38578 38.2869 0.960232 38.0247 0.63114Z" fill="#61DCAB"/>
<path d="M48.3498 9.37574L49.8626 0.116669H46.7102L46.6488 0.492473L45.5798 7.15866C45.5707 7.17578 45.5609 7.19268 45.5514 7.20933C44.8937 8.386 44.0089 8.96422 42.9376 8.96422C42.2723 8.96422 41.9269 8.66072 41.845 8.00138C41.8092 7.57433 41.8328 7.14394 41.9149 6.72432L42.6609 2.2676C42.8953 0.89612 42.3411 0.119021 40.9977 0.119021C40.4885 0.115698 39.9828 0.210368 39.5047 0.398515C39.5772 0.804133 39.5953 1.21879 39.5583 1.6299C39.5436 1.83382 39.5192 2.0464 39.4852 2.2676L38.6968 7.04426C38.3363 9.38192 38.8765 11.0129 40.0693 11.7119C40.5395 11.9755 41.0643 12.1073 41.5947 12.0949C42.0194 12.0976 42.4415 12.0241 42.8436 11.8777C43.8193 11.5174 44.5903 10.728 45.1562 9.6595C45.162 9.64856 45.168 9.63784 45.1737 9.62666C45.0673 10.3809 45.1312 10.9522 45.3868 11.3178C45.5519 11.5585 45.7674 11.7542 46.016 11.8891C46.2645 12.0241 46.5392 12.0944 46.8178 12.0944C47.382 12.033 47.9303 11.8577 48.4339 11.5778C48.2219 11.144 48.2008 10.3127 48.3498 9.37574Z" fill="#61DCAB"/>
<path d="M59.9591 0.144485H53.0128C52.9414 0.144485 52.8724 0.146881 52.8053 0.151163C51.6854 0.22252 51.1164 0.886363 51.1164 2.14391C51.1129 2.5948 51.1702 3.04385 51.2867 3.4771C51.7372 3.2114 52.2377 3.05623 52.7509 3.02278L52.7968 3.01828C52.935 3.00687 53.0773 3.00108 53.225 3.00092H55.7818C55.7818 3.00092 54.4158 4.33412 53.0046 5.86734C51.9198 7.04569 50.8093 8.34106 50.2704 9.24183C50.2261 9.3177 50.1835 9.39094 50.1467 9.46064C49.7475 10.2717 49.5457 11.1779 49.5602 12.0949H57.0318C57.1533 12.0951 57.2747 12.0881 57.3955 12.074C58.412 11.9522 58.9282 11.2931 58.9282 10.0952C58.9315 9.64473 58.8741 9.19609 58.7577 8.76324C58.2153 9.07612 57.6087 9.23874 56.993 9.23634C56.9355 9.23824 56.8777 9.23944 56.8189 9.23944H53.7588C53.7588 9.23944 54.8635 7.92671 56.198 6.38635C57.1959 5.23488 58.3224 3.95639 59.2125 3.00353C59.2138 3.00187 59.2151 3.0002 59.2167 2.99877C60.2625 1.87204 59.9591 0.144485 59.9591 0.144485Z" fill="#61DCAB"/>
<path d="M21.6823 0.115703C21.168 0.110068 20.6575 0.210604 20.1786 0.411834C20.2418 0.830136 20.2493 1.25597 20.2007 1.67652C20.186 1.82051 20.167 1.9679 20.1444 2.1187C19.9898 1.59177 19.6942 1.12523 19.2943 0.777127C18.8944 0.429024 18.408 0.214738 17.8954 0.160911C17.7337 0.13798 17.5707 0.126527 17.4076 0.126649C16.8236 0.12259 16.2445 0.240533 15.7025 0.473911C14.9127 0.834662 14.2177 1.3983 13.6789 2.11513C12.6349 3.44071 12.102 5.15496 12.102 7.28045C12.102 9.55889 12.8812 11.0861 14.1363 11.7412C14.6191 11.9864 15.1476 12.1101 15.6817 12.1028C16.0044 12.1046 16.3261 12.0654 16.6401 11.986C17.1514 11.8561 17.6251 11.5931 18.0192 11.2203C18.4133 10.8475 18.7144 10.376 18.8984 9.8481C18.9053 9.83003 18.9126 9.8122 18.9192 9.79413C18.8128 10.5484 18.8767 11.1197 19.1323 11.4853C19.388 11.8739 19.8375 12.0933 20.4981 12.0933C21.0884 12.1069 21.6706 11.9439 22.1794 11.6225C21.9663 11.1882 21.945 10.4808 22.094 9.54271L23.1997 2.84418L23.2853 2.39224C23.5532 1.02837 23.0241 0.152333 21.6823 0.115703ZM19.453 6.84565C19.4209 6.91843 19.3874 6.99034 19.3523 7.06138C18.7629 8.26494 17.7923 9.22396 16.7261 9.22396C16.1939 9.22396 15.7416 8.83961 15.5019 8.14887C15.3749 7.76012 15.3132 7.35028 15.3198 6.93842C15.3198 5.64947 15.6644 4.61168 16.2041 3.92641C16.4121 3.64487 16.6757 3.41636 16.9759 3.25738C17.2762 3.0984 17.6056 3.01292 17.9404 3.0071C18.8081 3.0071 19.4018 3.79011 19.7388 4.72204C19.766 4.7972 19.7914 4.87205 19.8153 4.94848L19.453 6.84565Z" fill="#61DCAB"/>
<path d="M11.0349 5.39327C11.1322 4.81395 11.1779 4.22602 11.1713 3.63742C11.1396 1.97028 10.5693 0.834978 9.54146 0.363545C9.15591 0.193631 8.74215 0.10971 8.32538 0.11689C7.97096 0.118112 7.61851 0.173616 7.27872 0.281724C6.29593 0.589273 5.33375 1.31806 4.38134 2.3808L4.34359 2.4228C4.45003 1.8058 4.46267 1.2097 4.16442 0.821995C3.90164 0.493039 3.63887 0.117483 2.76296 0.117483C2.22752 0.11557 1.69565 0.210854 1.18987 0.399329C1.28872 1.09369 1.28122 1.80071 1.16769 2.49248L0.617085 6.17593C0.617085 6.17593 0.619305 6.17593 0.621744 6.17712L0.0616044 9.61844C-0.194073 11.2185 0.346995 12.0945 1.66818 12.0945C2.25333 12.0959 2.8268 11.9189 3.32177 11.5841C3.10866 11.1498 3.08738 10.4424 3.23661 9.50428L3.93978 5.29895C3.9491 5.24091 3.95789 5.18336 3.96617 5.12628L3.97132 5.1202C4.90267 3.8165 5.89367 3.15337 6.96494 3.15337C7.48539 3.15337 7.79384 3.39669 7.9045 3.92188C7.97658 4.41094 7.96154 4.91023 7.86015 5.39327L7.15698 9.713C6.90123 11.3128 7.43388 12.1127 8.75491 12.1127C9.33593 12.1381 9.91187 11.9875 10.4169 11.6784C10.2038 11.2441 10.1825 10.5367 10.3318 9.59857L11.0349 5.39327Z" fill="#61DCAB"/>
<path d="M26.6743 0.119271C26.1634 0.106597 25.6552 0.201456 25.1783 0.398504C25.2787 1.01628 25.2727 1.64857 25.1606 2.26402L24.8945 3.91358L24.6042 5.5624L24.5931 5.57239L23.9217 9.69111C23.6871 11.0816 24.1896 12.0554 25.5325 12.0947C26.0881 12.0948 26.633 11.9302 27.1069 11.619C26.9966 11.0134 26.9937 10.3909 27.0983 9.78411L27.3105 8.46471L27.7074 6.20153L27.7387 6.02456L28.3374 2.35752C28.5711 0.966765 28.017 0.158518 26.6743 0.119271Z" fill="#61DCAB"/>
<path d="M59.2125 3.00353C59.2138 3.00187 59.2151 3.0002 59.2167 2.99877L56.4164 2.99735L55.7818 3.00092C55.7818 3.00092 54.4158 4.33412 53.0046 5.86734C51.9198 7.04569 50.8093 8.34106 50.2704 9.24183L56.3428 9.24183L56.3459 9.23825L53.7588 9.23944C53.7588 9.23944 54.8635 7.92671 56.198 6.38635C57.1959 5.23488 58.3224 3.95639 59.2125 3.00353Z" fill="#61DCAB"/>
</svg>
