<svg width="110" height="19" viewBox="0 0 110 19" fill="none" xmlns="http://www.w3.org/2000/svg">
<g clip-path="url(#clip0_16_18)">
<path d="M87.5092 1.07722C87.3617 1.07789 87.2141 1.083 87.0656 1.09168C85.627 1.17957 84.4058 1.74387 83.3974 2.76616C82.5509 3.62192 81.968 4.64882 81.5564 5.77288C81.1262 6.94781 80.881 8.16447 80.7515 9.4088C80.6266 10.593 80.6127 11.7725 80.8579 12.9475C81.0522 13.8634 81.3991 14.7098 82.0328 15.4175C82.9395 16.4306 84.1236 16.7915 85.4373 16.7637C85.8259 16.7545 86.0248 16.8747 86.2052 17.2032C86.529 17.7906 86.9037 18.3457 87.2691 18.9285C88.4718 18.3873 89.6606 17.8553 90.8726 17.3095C90.336 16.6619 89.8087 16.0328 89.2675 15.3852C89.9012 14.77 90.41 14.0992 90.8032 13.3545C91.7885 11.4718 92.1585 9.4458 92.2464 7.35035C92.2927 6.27255 92.2141 5.20863 91.8717 4.18171C91.4416 2.89575 90.6922 1.89195 89.3831 1.38774C88.7781 1.15472 88.1485 1.07435 87.5092 1.07722ZM87.0147 4.75063C87.0411 4.75003 87.0675 4.75036 87.0934 4.75142C87.4597 4.76641 87.7484 4.94418 87.87 5.28185C87.8788 5.30595 87.8867 5.33084 87.8936 5.35656C88.0046 5.76363 88.0416 6.19849 88.0786 6.42978C87.9676 8.2847 87.7965 9.92683 87.3385 11.5273C87.2344 11.9046 87.0813 12.2616 86.8038 12.5487C86.7853 12.5678 86.7659 12.5866 86.7464 12.6051C86.3075 13.0241 85.7135 13.0247 85.3416 12.6897C85.3416 12.6896 85.3411 12.6896 85.3411 12.6895C85.3291 12.6785 85.3175 12.6669 85.306 12.6553C85.3023 12.6514 85.2981 12.6479 85.2944 12.644C85.2944 12.6439 85.294 12.6437 85.294 12.6435C85.2634 12.6121 85.2347 12.5781 85.2084 12.5417C85.2084 12.5416 85.2079 12.5414 85.2079 12.5413C85.1681 12.4864 85.1325 12.4262 85.1029 12.3605C85.1029 12.3604 85.1029 12.3604 85.1029 12.3604C85.0969 12.3476 85.0918 12.3342 85.0863 12.321C85.0826 12.3115 85.0784 12.3024 85.0747 12.2928C85.0724 12.2869 85.0705 12.2807 85.0687 12.2747C85.0539 12.2339 85.0409 12.1915 85.0303 12.1471C84.9285 11.7262 84.91 11.2775 84.9285 10.8427C84.9327 10.7468 84.9368 10.6509 84.9419 10.555C85.0173 9.11747 85.2042 7.69723 85.5946 6.30951C85.7056 5.91632 85.9046 5.54159 86.122 5.19466C86.3116 4.88474 86.6493 4.75526 87.0147 4.75063Z" fill="#056734"/>
<path d="M52.3957 16.4767C51.1144 16.4767 49.8562 16.4767 48.5748 16.4767C48.6442 15.9355 48.7136 15.4128 48.783 14.8901C48.9125 13.8909 49.0467 12.8918 49.1762 11.8926C49.2456 11.3653 49.315 10.8425 49.3843 10.3152C49.3982 10.1996 49.4121 10.0839 49.4075 9.96828C49.3982 9.737 49.352 9.51496 49.1114 9.4132C48.8524 9.3068 48.598 9.32068 48.3713 9.50108C48.0475 9.76013 47.9827 10.1348 47.9319 10.5095C47.733 12.0036 47.5387 13.4977 47.3398 14.9918C47.2843 15.4035 47.238 15.8152 47.1825 16.2269C47.1732 16.3102 47.1501 16.3888 47.1362 16.4767C45.8687 16.4767 44.6152 16.4767 43.3246 16.4767C43.3708 16.1113 43.4125 15.7551 43.4587 15.3989C43.6391 14.0251 43.8195 12.6558 43.9999 11.282C44.1942 9.82489 44.3885 8.36778 44.5828 6.9153C44.6198 6.62388 44.6475 6.33246 44.6984 6.04566C44.7077 5.9809 44.8002 5.87913 44.8557 5.87913C46.026 5.86988 47.1964 5.86988 48.4083 5.86988C48.3482 6.36021 48.2927 6.82741 48.2372 7.29461C48.251 7.30386 48.2649 7.31311 48.2788 7.32236C48.3204 7.27148 48.3667 7.2206 48.4083 7.16509C49.1947 6.19368 50.18 5.6386 51.4567 5.6571C52.5761 5.67098 53.2422 6.17981 53.5198 7.26223C53.529 7.29461 53.5336 7.33162 53.5383 7.34549C53.8436 7.02169 54.1257 6.65626 54.4727 6.37409C55.3608 5.64785 56.3923 5.4952 57.4748 5.78662C58.2843 6.00403 58.7561 6.70251 58.7515 7.66467C58.7468 8.23363 58.6728 8.79797 58.5988 9.36231C58.4462 10.6066 58.275 11.8463 58.1085 13.0907C57.9651 14.1638 57.8309 15.2416 57.6783 16.3148C57.669 16.3749 57.5719 16.4721 57.5118 16.4721C56.2998 16.4813 55.0925 16.4767 53.8806 16.4767C53.8574 16.4767 53.8389 16.4628 53.8065 16.4536C53.9037 15.7042 54.0008 14.9595 54.1026 14.2147C54.2645 12.9796 54.431 11.7446 54.5883 10.5095C54.6114 10.3291 54.6299 10.1441 54.6346 9.95903C54.6392 9.71387 54.5698 9.48721 54.32 9.39469C54.061 9.29755 53.8019 9.32531 53.5891 9.51959C53.3486 9.74162 53.2561 10.033 53.2145 10.343C52.96 12.258 52.7149 14.1731 52.4605 16.0835C52.442 16.213 52.4188 16.3333 52.3957 16.4767Z" fill="#94C120"/>
<path d="M93.9303 1.38327C95.3504 1.38327 96.752 1.38327 98.1628 1.38327C98.0194 2.48882 97.8714 3.57587 97.728 4.66755C97.5661 5.88874 97.4042 7.10994 97.2423 8.3265C97.1081 9.32566 96.974 10.3248 96.8445 11.324C96.8213 11.509 96.8075 11.694 96.8028 11.8744C96.7936 12.6562 97.2793 12.8597 97.9315 12.7256C98.297 12.6469 98.5282 12.3925 98.6161 12.0456C98.7225 11.6247 98.7919 11.1898 98.852 10.755C99.0093 9.62634 99.1527 8.49766 99.3054 7.36898C99.4673 6.15703 99.6245 4.94509 99.7818 3.72852C99.879 2.9884 99.9715 2.24828 100.069 1.50817C100.073 1.46191 100.096 1.42028 100.11 1.37402C101.507 1.37402 102.904 1.37402 104.334 1.37402C104.292 1.71633 104.255 2.05863 104.209 2.39631C104.028 3.77478 103.848 5.15788 103.663 6.53634C103.487 7.87781 103.297 9.21927 103.126 10.5607C103.006 11.5229 102.849 12.4758 102.506 13.3917C101.738 15.4594 100.221 16.5279 98.0564 16.7268C97.0711 16.8194 96.0905 16.8055 95.1237 16.5418C93.5093 16.0977 92.8154 15.0199 92.6073 13.5813C92.4546 12.5313 92.5795 11.4951 92.7183 10.4543C92.8848 9.21002 93.0467 7.97032 93.2086 6.726C93.3705 5.50481 93.5324 4.28824 93.6943 3.06704C93.7822 2.51195 93.8516 1.95686 93.9303 1.38327Z" fill="#056734"/>
<path d="M4.63957 1.36903C3.83815 1.37018 3.03674 1.37363 2.23417 1.37363H1.99367C1.32757 6.42029 0.666106 11.4439 0 16.486H4.22785C4.47764 14.6033 4.7275 12.7252 4.97729 10.8472H5.02813C5.39356 12.7206 5.75895 14.594 6.12438 16.4766H10.6068C9.90365 14.2424 9.20512 12.0267 8.50664 9.79708C8.5899 9.75544 8.65933 9.72311 8.73334 9.69998C9.5891 9.29754 10.3385 8.761 10.8612 7.9515C11.444 7.04486 11.6383 6.0364 11.5827 4.97711C11.5226 3.8438 11.0554 2.91865 10.1256 2.24792C9.20512 1.58644 8.14587 1.38749 7.04495 1.37824C6.24238 1.36899 5.44098 1.36787 4.63957 1.36903ZM6.10218 4.52185C6.76565 4.52906 7.21434 4.98691 7.23456 5.7033C7.24844 6.27227 7.18377 6.82282 6.89697 7.32703C6.86839 7.37583 6.83554 7.42213 6.80076 7.46723C6.78318 7.48994 6.76514 7.51229 6.74617 7.53398C6.41169 7.92666 5.84624 8.15115 5.33801 8.07172C5.49066 6.89216 5.64793 5.71718 5.80058 4.54687C5.83375 4.54129 5.86636 4.5371 5.89874 4.5335C5.96845 4.52518 6.03645 4.52113 6.10218 4.52185Z" fill="#94C120"/>
<path d="M74.169 1.36942C73.9701 1.3648 73.8822 1.41572 73.8128 1.61462C72.1938 6.24499 70.5656 10.8753 68.9419 15.5057C68.8309 15.8295 68.7199 16.1533 68.6042 16.4956C69.8948 16.4956 71.1484 16.4863 72.4066 16.5002C72.6564 16.5048 72.7628 16.4355 72.8229 16.1857C72.9756 15.5473 73.1652 14.9136 73.341 14.2891H75.8435V16.4771H79.9743C79.5395 11.435 79.1047 6.4161 78.6652 1.36942C78.5496 1.36942 78.4617 1.3694 78.3784 1.37403C76.9768 1.37403 75.5706 1.37867 74.169 1.36942ZM75.677 5.7962C75.6909 5.7962 75.7048 5.79629 75.7186 5.80092C75.7556 7.59108 75.7926 9.38124 75.825 11.1899H74.169C74.6732 9.37661 75.1774 7.58636 75.677 5.7962Z" fill="#056734"/>
<path d="M37.2163 5.58354C36.4678 5.59797 35.6968 5.90646 35.1231 6.46201C34.42 7.13737 33.9898 7.97005 33.6845 8.87669C33.2774 10.0979 33.0878 11.3606 33.06 12.6419C33.0415 13.4514 33.1109 14.2563 33.407 15.0242C33.7678 15.9678 34.3783 16.6294 35.4284 16.7636C36.3072 16.8746 37.089 16.6109 37.7644 16.0466C38.0049 15.843 38.2316 15.621 38.4861 15.3897C38.4352 15.7644 38.3935 16.1113 38.3473 16.4767H42.1913C42.6585 12.9473 43.121 9.42243 43.5882 5.88837H39.7488C39.6933 6.24918 39.6471 6.60078 39.5823 6.99397C39.4852 6.8552 39.4204 6.76268 39.351 6.67017C39.0781 6.30936 38.7589 6.00406 38.3426 5.80978C37.9943 5.64917 37.6084 5.576 37.2163 5.58354ZM38.2899 8.89311C38.3742 8.89103 38.4566 8.90796 38.5332 8.94284C38.6987 9.01592 38.8369 9.17389 38.907 9.40865C38.9807 9.65182 39.0044 9.90818 39.0251 10.0849C39.0305 10.1285 39.0357 10.1715 39.0412 10.2042C38.9987 10.8968 38.9506 11.492 38.8005 12.046C38.7552 12.2186 38.7009 12.3877 38.634 12.5541C38.5369 12.7808 38.412 13.012 38.2455 13.197C37.9343 13.5408 37.5213 13.5364 37.2787 13.2482C37.2089 13.1672 37.1527 13.0634 37.1168 12.938C37.0381 12.6697 37.015 12.3783 37.0197 12.0962C37.0243 11.3329 37.1261 10.5789 37.3897 9.8573C37.4776 9.61676 37.6025 9.37164 37.7644 9.17736C37.9203 8.98942 38.1093 8.89764 38.2899 8.89311Z" fill="#94C120"/>
<path d="M64.4994 5.58643C64.449 5.58643 64.3991 5.58684 64.3486 5.58767C62.6649 5.6108 61.2818 6.26766 60.3381 7.66926C59.0707 9.55193 58.7515 11.6614 59.1077 13.8725C59.2511 14.7467 59.6766 15.496 60.4029 16.0418C61.1199 16.5784 61.9433 16.7542 62.8129 16.7774C65.1581 16.8375 67.0362 15.6348 67.8411 13.5532C67.9382 13.3081 68.0076 13.0537 68.1001 12.7715C67.0131 12.7715 65.9815 12.7669 64.95 12.7761C64.8991 12.7761 64.8343 12.8548 64.802 12.9103C64.6678 13.1323 64.566 13.3821 64.4041 13.581C64.1266 13.9187 63.7473 14.0205 63.3217 13.9187C62.9239 13.8262 62.7481 13.5209 62.7296 13.1555C62.7019 12.6929 62.7343 12.221 62.7574 11.7538C62.7574 11.7122 62.8869 11.6428 62.9563 11.6428C63.5484 11.6336 64.1451 11.6382 64.7372 11.6382H68.3592C68.3777 11.5827 68.3962 11.5503 68.4054 11.5179C68.5858 10.5141 68.683 9.50109 68.5025 8.48806C68.3036 7.37325 67.7671 6.48969 66.6939 6.00399C65.9959 5.68745 65.253 5.58638 64.4994 5.58643ZM64.4356 8.04079C64.7983 8.04251 65.1221 8.29003 65.209 8.67313C65.283 9.01081 65.2599 9.37157 65.2692 9.72313V9.72331C65.2692 9.72479 65.2692 9.72627 65.2692 9.72771C65.2692 9.76471 65.1859 9.83877 65.1396 9.83877H62.947C63.0002 9.72424 63.0497 9.61234 63.0974 9.50304C63.2408 9.17498 63.3689 8.86968 63.5391 8.5852C63.6687 8.38167 63.8999 8.18738 64.1266 8.0995C64.2298 8.05902 64.3343 8.04029 64.4356 8.04079Z" fill="#94C120"/>
<path d="M16.2547 5.58763C14.6912 5.59688 13.3776 6.20753 12.4524 7.47961C11.0555 9.39466 10.7085 11.578 11.0925 13.8677C11.3284 15.2554 12.161 16.2177 13.5626 16.6016C14.3397 16.8144 15.1354 16.8375 15.9217 16.6987C18.0727 16.3194 19.4003 15.0149 20.0155 12.9519C20.0294 12.8963 20.0294 12.8363 20.0386 12.7622C18.9886 12.7622 17.9617 12.7622 16.9394 12.7714C16.8793 12.7761 16.7913 12.8686 16.7636 12.938C16.634 13.2571 16.4721 13.5532 16.1854 13.7568C15.6164 14.1592 14.8902 13.951 14.733 13.3265C14.5942 12.7761 14.6728 12.2164 14.7468 11.6428H20.3624C20.566 10.5002 20.6862 9.37616 20.4364 8.24285C20.1497 6.9569 19.3679 6.10114 18.0819 5.79121C17.4898 5.64781 16.8653 5.58301 16.2547 5.58763ZM16.3263 8.05204C16.4239 8.04885 16.5265 8.06134 16.6341 8.09025C17.0643 8.20589 17.2077 8.55282 17.254 8.94601C17.2817 9.19117 17.2679 9.43624 17.254 9.68141C17.2528 9.69519 17.2465 9.71134 17.237 9.72767C17.2369 9.72781 17.2369 9.7279 17.2368 9.72804C17.211 9.77883 17.1499 9.8341 17.1105 9.8341C16.412 9.84336 15.7136 9.83873 14.992 9.83873C15.0087 9.77628 15.0259 9.71453 15.0436 9.65342C15.0613 9.59227 15.0797 9.53181 15.0988 9.47209C15.2135 9.11392 15.3574 8.78175 15.5794 8.48344C15.6793 8.34855 15.7918 8.24364 15.9166 8.17148C16.0415 8.09783 16.1782 8.05685 16.3263 8.05204Z" fill="#94C120"/>
<path d="M103.76 16.4907C104.426 11.4348 105.087 6.41122 105.749 1.37842C107.155 1.37842 108.547 1.37842 109.977 1.37842C109.935 1.72072 109.898 2.05378 109.856 2.3822C109.708 3.51088 109.56 4.63956 109.408 5.76824C109.26 6.88304 109.112 7.99322 108.964 9.10802C108.802 10.3292 108.645 11.5504 108.483 12.767C108.325 13.9558 108.173 15.1446 108.011 16.3334C108.002 16.3889 107.914 16.4814 107.863 16.4814C106.507 16.4907 105.152 16.4907 103.76 16.4907Z" fill="#056734"/>
<path d="M27.5 16.4722C28.2262 10.9769 28.9479 5.49537 29.6741 0C30.9508 0 32.2182 0 33.5181 0C33.4764 0.337679 33.4394 0.666106 33.3978 0.989907C33.2174 2.36375 33.037 3.73297 32.8566 5.10681C32.6762 6.45753 32.4958 7.80362 32.3154 9.15433C32.1211 10.6114 31.9361 12.0685 31.7464 13.5257C31.6262 14.4647 31.4966 15.3991 31.381 16.3381C31.3625 16.5 31.2561 16.4861 31.1497 16.4861C30.0025 16.4861 28.8507 16.4861 27.7035 16.4861C27.6341 16.4907 27.574 16.4815 27.5 16.4722Z" fill="#94C120"/>
<path d="M27.0189 13.0168C26.9542 13.5303 26.894 14.0252 26.8293 14.5156C26.7599 15.066 26.6859 15.6119 26.6072 16.1623C26.598 16.2363 26.5378 16.3427 26.4731 16.3705C25.016 16.9672 23.5774 17.0181 22.2359 16.0791C21.4542 15.5332 21.0425 14.7006 20.8944 13.7847C20.5568 11.6291 20.8713 9.5799 22.1018 7.73885C22.8465 6.61943 23.878 5.87006 25.238 5.65265C26.1678 5.50462 27.0791 5.56476 27.9487 6.0042C27.8053 7.082 27.6619 8.15054 27.5231 9.22372C27.3196 9.15896 27.1438 9.08494 26.9588 9.05256C26.3945 8.9508 25.9504 9.17283 25.6497 9.63541C25.0992 10.4819 24.9558 11.4209 25.1316 12.397C25.2426 13.0168 25.7561 13.3175 26.3759 13.188C26.5841 13.1463 26.7876 13.0816 27.0189 13.0168Z" fill="#94C120"/>
</g>
<defs>
<clipPath id="clip0_16_18">
<rect width="110" height="18.9655" fill="white"/>
</clipPath>
</defs>
</svg>
