<svg width="57" height="22" viewBox="0 0 57 22" fill="none" xmlns="http://www.w3.org/2000/svg">
<mask id="mask0_6149_2256" style="mask-type:alpha" maskUnits="userSpaceOnUse" x="0" y="1" width="18" height="18">
<rect y="1" width="18" height="18" fill="#D9D9D9"/>
</mask>
<g mask="url(#mask0_6149_2256)">
<path d="M4.5 17.5C4.0875 17.5 3.73438 17.3531 3.44063 17.0594C3.14688 16.7656 3 16.4125 3 16V8.5C3 8.0875 3.14688 7.73438 3.44063 7.44063C3.73438 7.14687 4.0875 7 4.5 7H5.25V5.5C5.25 4.4625 5.61563 3.57812 6.34688 2.84687C7.07812 2.11562 7.9625 1.75 9 1.75C10.0375 1.75 10.9219 2.11562 11.6531 2.84687C12.3844 3.57812 12.75 4.4625 12.75 5.5V7H13.5C13.9125 7 14.2656 7.14687 14.5594 7.44063C14.8531 7.73438 15 8.0875 15 8.5V16C15 16.4125 14.8531 16.7656 14.5594 17.0594C14.2656 17.3531 13.9125 17.5 13.5 17.5H4.5ZM9 13.75C9.4125 13.75 9.76563 13.6031 10.0594 13.3094C10.3531 13.0156 10.5 12.6625 10.5 12.25C10.5 11.8375 10.3531 11.4844 10.0594 11.1906C9.76563 10.8969 9.4125 10.75 9 10.75C8.5875 10.75 8.23438 10.8969 7.94063 11.1906C7.64687 11.4844 7.5 11.8375 7.5 12.25C7.5 12.6625 7.64687 13.0156 7.94063 13.3094C8.23438 13.6031 8.5875 13.75 9 13.75ZM6.75 7H11.25V5.5C11.25 4.875 11.0312 4.34375 10.5938 3.90625C10.1562 3.46875 9.625 3.25 9 3.25C8.375 3.25 7.84375 3.46875 7.40625 3.90625C6.96875 4.34375 6.75 4.875 6.75 5.5V7Z" fill="#EA5A1C"/>
</g>
<path d="M25.312 1.38C24.112 1.38 23.512 1.832 23.512 2.736C23.512 3.24 23.648 3.588 23.92 3.78C24.2 3.964 24.76 4.152 25.6 4.344C26.448 4.528 27.048 4.772 27.4 5.076C27.752 5.372 27.928 5.864 27.928 6.552C27.928 8.256 27.044 9.108 25.276 9.108C24.692 9.108 23.96 9.04 23.08 8.904L22.648 8.844L22.744 8.076C23.832 8.22 24.66 8.292 25.228 8.292C26.412 8.292 27.004 7.736 27.004 6.624C27.004 6.176 26.872 5.856 26.608 5.664C26.352 5.464 25.868 5.296 25.156 5.16C24.22 4.96 23.556 4.704 23.164 4.392C22.772 4.072 22.576 3.54 22.576 2.796C22.576 1.308 23.468 0.564 25.252 0.564C25.836 0.564 26.536 0.624 27.352 0.744L27.76 0.804L27.676 1.584C26.564 1.448 25.776 1.38 25.312 1.38ZM29.3679 9V3H30.2679V9H29.3679ZM29.3679 1.644V0.599999H30.2679V1.644H29.3679ZM35.1009 3.78H33.1929V6.648C33.1929 7.336 33.2409 7.788 33.3369 8.004C33.4409 8.22 33.6809 8.328 34.0569 8.328L35.1249 8.256L35.1849 9C34.6489 9.088 34.2409 9.132 33.9609 9.132C33.3369 9.132 32.9049 8.98 32.6649 8.676C32.4249 8.372 32.3049 7.792 32.3049 6.936V3.78H31.4529V3H32.3049V1.164H33.1929V3H35.1009V3.78ZM40.2799 8.256L40.6279 8.22L40.6519 8.928C39.7399 9.056 38.9599 9.12 38.3119 9.12C37.4479 9.12 36.8359 8.872 36.4759 8.376C36.1159 7.872 35.9359 7.092 35.9359 6.036C35.9359 3.932 36.7719 2.88 38.4439 2.88C39.2519 2.88 39.8559 3.108 40.2559 3.564C40.6559 4.012 40.8559 4.72 40.8559 5.688L40.8079 6.372H36.8479C36.8479 7.036 36.9679 7.528 37.2079 7.848C37.4479 8.168 37.8639 8.328 38.4559 8.328C39.0559 8.328 39.6639 8.304 40.2799 8.256ZM39.9559 5.652C39.9559 4.916 39.8359 4.396 39.5959 4.092C39.3639 3.788 38.9799 3.636 38.4439 3.636C37.9159 3.636 37.5159 3.796 37.2439 4.116C36.9799 4.436 36.8439 4.948 36.8359 5.652H39.9559ZM24.748 13.684C23.876 13.684 23.44 13.988 23.44 14.596C23.44 14.876 23.54 15.076 23.74 15.196C23.94 15.308 24.396 15.428 25.108 15.556C25.82 15.676 26.324 15.848 26.62 16.072C26.916 16.296 27.064 16.716 27.064 17.332C27.064 17.948 26.864 18.4 26.464 18.688C26.072 18.976 25.496 19.12 24.736 19.12C24.24 19.12 23.656 19.064 22.984 18.952L22.624 18.892L22.672 18.112C23.584 18.248 24.272 18.316 24.736 18.316C25.2 18.316 25.552 18.244 25.792 18.1C26.04 17.948 26.164 17.7 26.164 17.356C26.164 17.004 26.06 16.768 25.852 16.648C25.644 16.52 25.188 16.4 24.484 16.288C23.78 16.176 23.28 16.012 22.984 15.796C22.688 15.58 22.54 15.18 22.54 14.596C22.54 14.012 22.744 13.58 23.152 13.3C23.568 13.02 24.084 12.88 24.7 12.88C25.188 12.88 25.8 12.936 26.536 13.048L26.872 13.108L26.848 13.876C25.96 13.748 25.26 13.684 24.748 13.684ZM32.5221 18.256L32.8701 18.22L32.8941 18.928C31.9821 19.056 31.2021 19.12 30.5541 19.12C29.6901 19.12 29.0781 18.872 28.7181 18.376C28.3581 17.872 28.1781 17.092 28.1781 16.036C28.1781 13.932 29.0141 12.88 30.6861 12.88C31.4941 12.88 32.0981 13.108 32.4981 13.564C32.8981 14.012 33.0981 14.72 33.0981 15.688L33.0501 16.372H29.0901C29.0901 17.036 29.2101 17.528 29.4501 17.848C29.6901 18.168 30.1061 18.328 30.6981 18.328C31.2981 18.328 31.9061 18.304 32.5221 18.256ZM32.1981 15.652C32.1981 14.916 32.0781 14.396 31.8381 14.092C31.6061 13.788 31.2221 13.636 30.6861 13.636C30.1581 13.636 29.7581 13.796 29.4861 14.116C29.2221 14.436 29.0861 14.948 29.0781 15.652H32.1981ZM36.8167 21.82C35.8567 21.82 35.1847 21.688 34.8007 21.424C34.4247 21.168 34.2367 20.696 34.2367 20.008C34.2367 19.68 34.3087 19.412 34.4527 19.204C34.5967 19.004 34.8407 18.776 35.1847 18.52C34.9607 18.368 34.8487 18.092 34.8487 17.692C34.8487 17.556 34.9487 17.304 35.1487 16.936L35.2567 16.744C34.6247 16.456 34.3087 15.852 34.3087 14.932C34.3087 13.564 35.0567 12.88 36.5527 12.88C36.9367 12.88 37.2927 12.92 37.6207 13L37.8007 13.036L39.5767 12.988V13.756L38.4367 13.732C38.7007 13.996 38.8327 14.396 38.8327 14.932C38.8327 15.684 38.6447 16.212 38.2687 16.516C37.9007 16.812 37.3167 16.96 36.5167 16.96C36.3007 16.96 36.1047 16.944 35.9287 16.912C35.7847 17.264 35.7127 17.492 35.7127 17.596C35.7127 17.844 35.7887 18 35.9407 18.064C36.0927 18.12 36.5527 18.148 37.3207 18.148C38.0887 18.148 38.6407 18.268 38.9767 18.508C39.3127 18.748 39.4807 19.216 39.4807 19.912C39.4807 21.184 38.5927 21.82 36.8167 21.82ZM35.1247 19.936C35.1247 20.36 35.2407 20.652 35.4727 20.812C35.7127 20.98 36.1487 21.064 36.7807 21.064C37.4207 21.064 37.8767 20.976 38.1487 20.8C38.4287 20.624 38.5687 20.328 38.5687 19.912C38.5687 19.504 38.4687 19.24 38.2687 19.12C38.0687 19 37.6767 18.94 37.0927 18.94L35.7967 18.88C35.5327 19.072 35.3527 19.24 35.2567 19.384C35.1687 19.528 35.1247 19.712 35.1247 19.936ZM35.2087 14.932C35.2087 15.404 35.3127 15.74 35.5207 15.94C35.7367 16.14 36.0887 16.24 36.5767 16.24C37.0647 16.24 37.4127 16.14 37.6207 15.94C37.8287 15.74 37.9327 15.404 37.9327 14.932C37.9327 14.452 37.8287 14.112 37.6207 13.912C37.4127 13.712 37.0647 13.612 36.5767 13.612C36.0887 13.612 35.7367 13.716 35.5207 13.924C35.3127 14.124 35.2087 14.46 35.2087 14.932ZM44.4088 13H45.3088V19H44.4088V18.58C43.8088 18.94 43.2168 19.12 42.6328 19.12C41.8168 19.12 41.2728 18.908 41.0008 18.484C40.7368 18.06 40.6048 17.276 40.6048 16.132V13H41.5048V16.12C41.5048 16.992 41.5808 17.576 41.7328 17.872C41.8848 18.168 42.2288 18.316 42.7648 18.316C43.0288 18.316 43.2968 18.28 43.5688 18.208C43.8408 18.128 44.0488 18.052 44.1928 17.98L44.4088 17.872V13ZM47.0398 19V13H47.9278V13.816C48.6238 13.336 49.3558 13.02 50.1238 12.868V13.78C49.7878 13.844 49.4358 13.944 49.0678 14.08C48.7078 14.216 48.4318 14.336 48.2398 14.44L47.9398 14.596V19H47.0398ZM50.807 15.988C50.807 14.892 51.003 14.1 51.395 13.612C51.787 13.124 52.447 12.88 53.375 12.88C54.311 12.88 54.971 13.124 55.355 13.612C55.747 14.1 55.943 14.892 55.943 15.988C55.943 17.084 55.759 17.88 55.391 18.376C55.023 18.872 54.351 19.12 53.375 19.12C52.399 19.12 51.727 18.872 51.359 18.376C50.991 17.88 50.807 17.084 50.807 15.988ZM51.731 15.976C51.731 16.848 51.835 17.46 52.043 17.812C52.259 18.164 52.703 18.34 53.375 18.34C54.055 18.34 54.499 18.168 54.707 17.824C54.915 17.472 55.019 16.856 55.019 15.976C55.019 15.096 54.903 14.492 54.671 14.164C54.439 13.828 54.007 13.66 53.375 13.66C52.751 13.66 52.319 13.828 52.079 14.164C51.847 14.492 51.731 15.096 51.731 15.976Z" fill="#101010"/>
</svg>
