<svg width="51" height="20" viewBox="0 0 51 20" fill="none" xmlns="http://www.w3.org/2000/svg">
<path d="M36.8609 7.8149H35.0326V14.0734C35.0321 14.1301 35.0094 14.1843 34.9694 14.2243C34.9293 14.2644 34.8751 14.2871 34.8184 14.2875H33.4104C33.3538 14.2871 33.2996 14.2644 33.2595 14.2243C33.2195 14.1843 33.1968 14.1301 33.1963 14.0734V7.8149H31.3563C31.3287 7.81602 31.3012 7.81159 31.2754 7.80186C31.2496 7.79212 31.226 7.7773 31.206 7.75826C31.186 7.73922 31.1701 7.71635 31.1591 7.69102C31.1482 7.6657 31.1424 7.63842 31.1422 7.61083V6.50265C31.1424 6.47505 31.1482 6.44777 31.1591 6.42245C31.1701 6.39712 31.186 6.37426 31.206 6.35522C31.226 6.33618 31.2496 6.32135 31.2754 6.31162C31.3012 6.30189 31.3287 6.29745 31.3563 6.29857H36.8596C36.9165 6.29595 36.9722 6.31592 37.0145 6.35414C37.0568 6.39236 37.0823 6.44573 37.0854 6.50265V7.61083C37.0823 7.66752 37.057 7.72069 37.0149 7.75888C36.9729 7.79706 36.9176 7.81718 36.8609 7.8149Z" fill="#FF1265"/>
<path d="M42.7242 14.2457C42.0041 14.3487 41.2771 14.3956 40.5497 14.3862C39.1617 14.3862 37.936 14.0312 37.936 12.0741V8.50281C37.936 6.54572 39.1734 6.20281 40.5597 6.20281C41.2822 6.19286 42.0044 6.23928 42.7196 6.34165C42.8702 6.36339 42.9337 6.41692 42.9337 6.55576V7.55939C42.9333 7.61604 42.9106 7.67025 42.8705 7.71031C42.8305 7.75037 42.7763 7.77307 42.7196 7.7735H40.4614C39.9596 7.7735 39.7731 7.94078 39.7731 8.50532V9.48303H42.6427C42.6994 9.48336 42.7537 9.50601 42.7939 9.54608C42.834 9.58615 42.8568 9.64042 42.8572 9.69714V10.7183C42.8568 10.7751 42.834 10.8293 42.7939 10.8694C42.7537 10.9095 42.6994 10.9321 42.6427 10.9324H39.7731V12.0724C39.7731 12.6315 39.9554 12.8042 40.4614 12.8042H42.7284C42.785 12.8047 42.8393 12.8274 42.8793 12.8674C42.9194 12.9075 42.9421 12.9617 42.9425 13.0183V14.022C42.9404 14.1583 42.8752 14.224 42.7242 14.2457Z" fill="#FF1265"/>
<path d="M50.8378 14.2871H49.1282C49.07 14.2914 49.0119 14.2777 48.9619 14.2478C48.9118 14.2178 48.8722 14.1731 48.8485 14.1198L47.3652 11.7759L46.027 14.0759C45.9517 14.2047 45.8764 14.29 45.7573 14.29H44.1682C44.1477 14.2937 44.1266 14.2928 44.1064 14.2875C44.0863 14.2821 44.0676 14.2724 44.0516 14.2589C44.0357 14.2455 44.0229 14.2288 44.0141 14.2099C44.0053 14.191 44.0008 14.1704 44.0009 14.1495C44.0031 14.1232 44.0105 14.0976 44.0226 14.0742L46.3548 10.1918L44.0009 6.5018C43.9888 6.48199 43.9813 6.45968 43.9792 6.43656C43.983 6.39586 44.0027 6.3583 44.034 6.33201C44.0653 6.30571 44.1057 6.2928 44.1464 6.29606H45.8777C45.9965 6.29606 46.0818 6.40311 46.1474 6.50013L47.5237 8.67467L48.8618 6.50013C48.8857 6.44603 48.9229 6.39891 48.9701 6.3632C49.0172 6.3275 49.0726 6.30439 49.1311 6.29606H50.7253C50.766 6.2928 50.8064 6.30571 50.8377 6.33201C50.869 6.3583 50.8887 6.39586 50.8925 6.43656C50.8904 6.45969 50.8829 6.482 50.8708 6.5018L48.529 10.2136L50.9682 14.0642C50.987 14.0969 50.9979 14.1336 51 14.1713C50.9915 14.2069 50.9704 14.2383 50.9406 14.2595C50.9107 14.2808 50.8742 14.2906 50.8378 14.2871Z" fill="#FF1265"/>
<path d="M28.5653 6.3199C28.5264 6.31903 28.4884 6.33175 28.4579 6.35587C28.4274 6.37999 28.4062 6.414 28.398 6.45204L26.8378 12.2313C26.8161 12.3501 26.7843 12.3986 26.6873 12.3986C26.5903 12.3986 26.5585 12.3568 26.5367 12.2313L24.9798 6.45204C24.9717 6.414 24.9505 6.37999 24.92 6.35587C24.8894 6.33175 24.8515 6.31903 24.8126 6.3199H23.2757C23.2503 6.31927 23.2251 6.32446 23.2019 6.33506C23.1788 6.34566 23.1584 6.3614 23.1423 6.38108C23.1261 6.40076 23.1147 6.42386 23.1088 6.44862C23.103 6.47338 23.1029 6.49915 23.1085 6.52397C23.1085 6.52397 25.0154 13.1488 25.0354 13.2207C25.1373 13.5754 25.3571 13.8847 25.6585 14.0976C25.9599 14.3104 26.3248 14.4142 26.6931 14.3916C27.0596 14.4052 27.4203 14.2979 27.7198 14.0863C28.0193 13.8747 28.241 13.5706 28.3508 13.2207C28.3809 13.1304 30.246 6.52397 30.246 6.52397C30.2513 6.49927 30.251 6.47368 30.245 6.44914C30.239 6.42459 30.2275 6.40172 30.2114 6.38224C30.1953 6.36276 30.175 6.34719 30.152 6.33668C30.129 6.32617 30.104 6.32101 30.0787 6.32157L28.5653 6.3199Z" fill="#FF1265"/>
<path d="M19.8542 0.947092H3.82864C3.54352 0.949767 3.26386 1.02565 3.01649 1.16746C2.76912 1.30927 2.56233 1.51226 2.41595 1.75695C2.26957 2.00164 2.18851 2.27984 2.18054 2.56487C2.17257 2.84989 2.23796 3.13218 2.37044 3.38468L3.97417 6.4374H1.0678C0.88514 6.43395 0.704746 6.4783 0.544514 6.56607C0.384281 6.65384 0.249778 6.78197 0.154343 6.93776C0.0589091 7.09355 0.00586022 7.27158 0.000458288 7.4542C-0.00494364 7.63681 0.037489 7.81767 0.123548 7.97882L5.28015 17.7225C5.37092 17.8942 5.50681 18.0379 5.6732 18.1382C5.83958 18.2384 6.03015 18.2914 6.22441 18.2914C6.41866 18.2914 6.60923 18.2384 6.77561 18.1382C6.942 18.0379 7.07789 17.8942 7.16866 17.7225L8.56832 15.0821L10.3247 18.407C10.465 18.6718 10.6748 18.8934 10.9316 19.0479C11.1883 19.2025 11.4824 19.2841 11.782 19.2841C12.0817 19.2841 12.3757 19.2025 12.6325 19.0479C12.8893 18.8934 13.0991 18.6718 13.2394 18.407L21.2773 3.29769C21.4081 3.05325 21.4731 2.77895 21.4657 2.50178C21.4584 2.22462 21.379 1.95414 21.2354 1.71696C21.0918 1.47978 20.889 1.28407 20.6468 1.14908C20.4046 1.01409 20.1315 0.944481 19.8542 0.947092ZM12.6937 7.33064L9.17761 13.9241C9.11839 14.036 9.02981 14.1296 8.92139 14.1948C8.81297 14.2601 8.68881 14.2946 8.56225 14.2946C8.4357 14.2946 8.31153 14.2601 8.20311 14.1948C8.09469 14.1296 8.00611 14.036 7.9469 13.9241L4.47599 7.39462C4.4233 7.29585 4.39712 7.18512 4.39998 7.07321C4.40284 6.9613 4.43465 6.85205 4.49231 6.7561C4.54997 6.66015 4.63152 6.58078 4.72899 6.52574C4.82646 6.47069 4.93654 6.44184 5.04848 6.442H12.1513C12.2566 6.44013 12.3605 6.46581 12.4529 6.5165C12.5452 6.56718 12.6226 6.6411 12.6776 6.73095C12.7325 6.82079 12.763 6.92343 12.766 7.02869C12.7691 7.13396 12.7433 7.23777 12.6937 7.33064Z" fill="#FF1265"/>
</svg>
