<svg width="24" height="20" viewBox="0 0 24 20" fill="none" xmlns="http://www.w3.org/2000/svg">
<g clip-path="url(#clip0_13025_1758)">
<path d="M-6.20904 17.7894H1.44928L5.27799 11.1879L1.44928 4.58653H-6.20904L-10.0378 11.1879L-6.20904 17.7894ZM1.67074 20H-6.4305C-7.08498 20 -7.69444 19.6495 -8.02212 19.0847L-12.0723 12.1023C-12.3991 11.5385 -12.3991 10.8374 -12.0723 10.2736L-8.02122 3.28937C-7.69444 2.72641 -7.08498 2.375 -6.4305 2.375H1.67074C2.32521 2.375 2.93467 2.72641 3.26236 3.28937L7.31253 10.2727C7.63931 10.8365 7.63931 11.5385 7.31253 12.1014L3.26236 19.0847C2.93557 19.6486 2.32521 19.9991 1.67074 19.9991" fill="#E95A1C"/>
<path d="M9.91596 8.41437H17.5743L21.403 1.81295L17.5743 -4.78847H9.91596L6.08724 1.81295L9.91596 8.41437ZM17.7957 10.625H9.6945C9.04002 10.625 8.43056 10.2745 8.10288 9.70973L4.05271 2.72732C3.72592 2.16346 3.72592 1.46244 4.05271 0.898574L8.10378 -6.08563C8.43056 -6.64859 9.04002 -7 9.6945 -7H17.7957C18.4502 -7 19.0597 -6.64859 19.3874 -6.08563L23.4375 0.897678C23.7643 1.46154 23.7643 2.16346 23.4375 2.72643L19.3874 9.70973C19.0606 10.2736 18.4502 10.6241 17.7957 10.6241" fill="#E95A1C"/>
<path d="M-6.20904 -0.585634H1.44928L5.27799 -7.18705L1.44928 -13.7885H-6.20904L-10.0378 -7.18705L-6.20904 -0.585634ZM1.67074 1.625H-6.4305C-7.08498 1.625 -7.69444 1.27449 -8.02212 0.709728L-12.0723 -6.27268C-12.3991 -6.83654 -12.3991 -7.53756 -12.0723 -8.10143L-8.02122 -15.0856C-7.69444 -15.6486 -7.08498 -16 -6.4305 -16H1.67074C2.32521 -16 2.93467 -15.6486 3.26236 -15.0856L7.31253 -8.10232C7.63931 -7.53846 7.63931 -6.83654 7.31253 -6.27357L3.26236 0.709728C2.93557 1.27359 2.32521 1.6241 1.67074 1.6241" fill="#E95A1C"/>
</g>
<defs>
<clipPath id="clip0_13025_1758">
<rect width="24" height="20" fill="white"/>
</clipPath>
</defs>
</svg>
