<svg width="159" height="181" viewBox="0 0 159 181" fill="none" xmlns="http://www.w3.org/2000/svg">
<g clip-path="url(#clip0_6149_2034)">
<mask id="mask0_6149_2034" style="mask-type:luminance" maskUnits="userSpaceOnUse" x="0" y="-31" width="209" height="212">
<path d="M209 -31H0V181H209V-31Z" fill="white"/>
</mask>
<g mask="url(#mask0_6149_2034)">
</g>
<mask id="mask1_6149_2034" style="mask-type:luminance" maskUnits="userSpaceOnUse" x="0" y="-31" width="209" height="212">
<path d="M208.924 -30.6707H0.329102V180.833H208.924V-30.6707Z" fill="white"/>
</mask>
<g mask="url(#mask1_6149_2034)">
<path d="M34.6865 112.085H77.7511L99.2808 74.7694L77.7511 37.4539H34.6865L13.1568 74.7694L34.6865 112.085ZM78.9964 124.586H33.4412C29.7609 124.586 26.3338 122.605 24.4911 119.412L1.71609 79.938C-0.121508 76.7507 -0.121508 72.7881 1.71609 69.6008L24.4911 30.1266C26.3287 26.9444 29.7559 24.958 33.4412 24.958H78.9964C82.6766 24.958 86.1038 26.9444 87.9464 30.1266L110.721 69.6008C112.559 72.7881 112.559 76.7558 110.721 79.938L87.9464 119.412C86.1088 122.6 82.6766 124.581 78.9964 124.581V124.586Z" fill="#E95A1C"/>
</g>
<mask id="mask2_6149_2034" style="mask-type:luminance" maskUnits="userSpaceOnUse" x="0" y="-31" width="209" height="212">
<path d="M208.924 -30.6707H0.329102V180.833H208.924V-30.6707Z" fill="white"/>
</mask>
<g mask="url(#mask2_6149_2034)">
<path d="M131.502 56.4613H174.561L196.091 19.1458L174.561 -18.1697H131.502L109.972 19.1458L131.502 56.4613ZM175.807 68.9623H130.252C126.571 68.9623 123.149 66.9759 121.307 63.7886L98.5265 24.3145C96.6889 21.1271 96.6889 17.1645 98.5265 13.9772L121.307 -25.502C123.144 -28.6843 126.571 -30.6707 130.257 -30.6707H175.812C179.487 -30.6707 182.919 -28.6843 184.762 -25.502L207.537 13.9721C209.375 17.1594 209.375 21.1271 207.537 24.3094L184.762 63.7835C182.924 66.9709 179.487 68.9522 175.812 68.9522L175.807 68.9623Z" fill="#E95A1C"/>
</g>
<mask id="mask3_6149_2034" style="mask-type:luminance" maskUnits="userSpaceOnUse" x="0" y="-31" width="209" height="212">
<path d="M208.924 -30.6707H0.329102V180.833H208.924V-30.6707Z" fill="white"/>
</mask>
<g mask="url(#mask3_6149_2034)">
<path d="M131.502 168.332H174.561L196.091 131.016L174.561 93.7009H131.502L109.972 131.016L131.502 168.332ZM175.807 180.833H130.252C126.571 180.833 123.149 178.852 121.307 175.659L98.5265 136.185C96.6889 132.993 96.6889 129.035 98.5265 125.848L121.307 86.3686C123.144 83.1863 126.571 81.2 130.252 81.2H175.807C179.487 81.2 182.914 83.1863 184.757 86.3686L207.537 125.848C209.37 129.04 209.37 132.998 207.537 136.185L184.757 175.659C182.919 178.852 179.487 180.828 175.807 180.828V180.833Z" fill="#E95A1C"/>
</g>
</g>
<defs>
<clipPath id="clip0_6149_2034">
<rect width="209" height="212" fill="white" transform="translate(0 -31)"/>
</clipPath>
</defs>
</svg>
