<svg width="19" height="17" viewBox="0 0 19 17" fill="none" xmlns="http://www.w3.org/2000/svg">
<path d="M-5.05133 14.7548H0.953493L3.95555 9.54313L0.953493 4.33148H-5.05133L-8.05339 9.54313L-5.05133 14.7548ZM1.12714 16.5H-5.22497C-5.73814 16.5 -6.21601 16.2233 -6.47295 15.7774L-9.64865 10.265C-9.90488 9.81985 -9.90488 9.26641 -9.64865 8.82126L-6.47224 3.30741C-6.21601 2.86297 -5.73814 2.58554 -5.22497 2.58554H1.12714C1.6403 2.58554 2.11818 2.86297 2.37511 3.30741L5.55081 8.82055C5.80704 9.26571 5.80704 9.81985 5.55081 10.2643L2.37511 15.7774C2.11888 16.2226 1.6403 16.4993 1.12714 16.4993" fill="white"/>
<path d="M7.59223 7.35347H13.597L16.5991 2.14183L13.597 -3.06982H7.59223L4.59017 2.14183L7.59223 7.35347ZM13.7707 9.09871H7.41858C6.90542 9.09871 6.42754 8.82199 6.17061 8.37613L2.99491 2.8637C2.73868 2.41854 2.73868 1.86511 2.99491 1.41995L6.17131 -4.09389C6.42754 -4.53834 6.90542 -4.81577 7.41858 -4.81577H13.7707C14.2839 -4.81577 14.7617 -4.53834 15.0187 -4.09389L18.1944 1.41924C18.4506 1.8644 18.4506 2.41854 18.1944 2.86299L15.0187 8.37613C14.7624 8.82128 14.2839 9.098 13.7707 9.098" fill="white"/>
<path d="M-5.05133 0.248208H0.953493L3.95555 -4.96344L0.953493 -10.1751H-5.05133L-8.05339 -4.96344L-5.05133 0.248208ZM1.12714 1.99345H-5.22497C-5.73814 1.99345 -6.21601 1.71673 -6.47295 1.27086L-9.64865 -4.24156C-9.90488 -4.68672 -9.90488 -5.24016 -9.64865 -5.68531L-6.47224 -11.1992C-6.21601 -11.6436 -5.73814 -11.921 -5.22497 -11.921H1.12714C1.6403 -11.921 2.11818 -11.6436 2.37511 -11.1992L5.55081 -5.68602C5.80704 -5.24086 5.80704 -4.68672 5.55081 -4.24227L2.37511 1.27086C2.11888 1.71602 1.6403 1.99274 1.12714 1.99274" fill="white"/>
</svg>
