<svg width="22" height="22" viewBox="0 0 22 22" fill="none" xmlns="http://www.w3.org/2000/svg">
<path d="M21.6472 6.59105C21.5971 5.45379 21.4131 4.67194 21.1496 3.99446C20.8778 3.27532 20.4596 2.63148 19.9117 2.09626C19.3763 1.5527 18.7281 1.13033 18.0172 0.862802C17.3357 0.599354 16.5577 0.415446 15.4203 0.365304C14.2743 0.310916 13.9105 0.29834 11.004 0.29834C8.09753 0.29834 7.73372 0.310916 6.59201 0.361058C5.45453 0.4112 4.67253 0.595271 3.99508 0.858556C3.27565 1.13033 2.63168 1.54845 2.09636 2.09626C1.5527 2.63148 1.13041 3.27957 0.862666 3.99037C0.599167 4.67194 0.415224 5.44955 0.365073 6.5868C0.310674 7.73255 0.298096 8.09628 0.298096 11.0022C0.298096 13.9082 0.310674 14.2719 0.360826 15.4134C0.410977 16.5506 0.595083 17.3325 0.858582 18.01C1.13041 18.7291 1.5527 19.3729 2.09636 19.9082C2.63168 20.4517 3.27989 20.8741 3.99083 21.1416C4.67253 21.4051 5.45029 21.589 6.58792 21.6391C7.72948 21.6894 8.09344 21.7018 10.9999 21.7018C13.9064 21.7018 14.2702 21.6894 15.4119 21.6391C16.5494 21.589 17.3314 21.4051 18.0089 21.1416C19.4476 20.5855 20.585 19.4482 21.1413 18.01C21.4046 17.3284 21.5887 16.5506 21.6389 15.4134C21.689 14.2719 21.7016 13.9082 21.7016 11.0022C21.7016 8.09628 21.6974 7.73255 21.6472 6.59105ZM19.7194 15.3298C19.6733 16.3751 19.4977 16.9395 19.3514 17.3158C18.9916 18.2483 18.2515 18.9883 17.3188 19.348C16.9425 19.4943 16.3738 19.6699 15.3324 19.7158C14.2032 19.7661 13.8646 19.7785 11.0083 19.7785C8.15192 19.7785 7.80903 19.7661 6.68398 19.7158C5.63848 19.6699 5.07391 19.4943 4.69753 19.348C4.23342 19.1765 3.81098 18.9047 3.46808 18.5493C3.11261 18.2022 2.84078 17.7841 2.66926 17.3201C2.52289 16.9438 2.34728 16.3751 2.30137 15.334C2.25106 14.2051 2.23864 13.8663 2.23864 11.0105C2.23864 8.15475 2.25106 7.81193 2.30137 6.68725C2.34728 5.64195 2.52289 5.07749 2.66926 4.70118C2.84078 4.237 3.11261 3.8148 3.47233 3.47181C3.81931 3.1164 4.23751 2.84463 4.70177 2.6733C5.07815 2.52695 5.64697 2.35138 6.68822 2.30532C7.81736 2.25517 8.15617 2.2426 11.0123 2.2426C13.8729 2.2426 14.2116 2.25517 15.3366 2.30532C16.3821 2.35138 16.9467 2.52695 17.3231 2.6733C17.7872 2.84463 18.2096 3.1164 18.5525 3.47181C18.908 3.81888 19.1798 4.237 19.3514 4.70118C19.4977 5.07749 19.6733 5.64603 19.7194 6.68725C19.7696 7.81617 19.7821 8.15475 19.7821 11.0105C19.7821 13.8663 19.7696 14.2008 19.7194 15.3298Z" fill="#EA5A1C"/>
<path d="M11.0039 5.50393C7.96791 5.50393 5.50462 7.96659 5.50462 11.0022C5.50462 14.0378 7.96791 16.5005 11.0039 16.5005C14.0401 16.5005 16.5033 14.0378 16.5033 11.0022C16.5033 7.96659 14.0401 5.50393 11.0039 5.50393ZM11.0039 14.5688C9.03432 14.5688 7.43667 12.9716 7.43667 11.0022C7.43667 9.0328 9.03432 7.43561 11.0039 7.43561C12.9737 7.43561 14.5712 9.0328 14.5712 11.0022C14.5712 12.9716 12.9737 14.5688 11.0039 14.5688Z" fill="#EA5A1C"/>
<path d="M18.0047 5.28655C18.0047 5.99539 17.4298 6.57015 16.7207 6.57015C16.0117 6.57015 15.4368 5.99539 15.4368 5.28655C15.4368 4.57754 16.0117 4.00295 16.7207 4.00295C17.4298 4.00295 18.0047 4.57754 18.0047 5.28655Z" fill="#EA5A1C"/>
</svg>
