<svg width="22" height="22" viewBox="0 0 22 22" fill="none" xmlns="http://www.w3.org/2000/svg">
<g clip-path="url(#clip0_10106_765)">
<path fill-rule="evenodd" clip-rule="evenodd" d="M18.0452 3.87211C16.1679 1.99266 13.6714 0.957157 11.0116 0.956055C5.53102 0.956055 1.07059 5.41636 1.06839 10.8984C1.06765 12.6509 1.52545 14.3616 2.39562 15.8695L0.984985 21.0218L6.25605 19.6391C7.70844 20.4314 9.34357 20.8489 11.0076 20.8494H11.0118C16.4918 20.8494 20.9527 16.3887 20.9548 10.9064C20.9559 8.2495 19.9226 5.75144 18.0452 3.87211ZM11.0116 19.1702H11.0082C9.52531 19.1696 8.07096 18.7711 6.80191 18.0182L6.50026 17.839L3.37233 18.6596L4.20722 15.6099L4.01065 15.2973C3.18335 13.9814 2.7465 12.4606 2.74723 10.8991C2.74895 6.34249 6.45642 2.63539 11.0149 2.63539C13.2224 2.63612 15.2974 3.49686 16.8577 5.05898C18.418 6.62111 19.2768 8.6975 19.276 10.9058C19.2741 15.4627 15.5669 19.1702 11.0116 19.1702ZM15.5448 12.9806C15.2964 12.8562 14.0749 12.2553 13.8471 12.1723C13.6195 12.0894 13.4537 12.0481 13.2883 12.2967C13.1226 12.5453 12.6465 13.105 12.5015 13.2707C12.3565 13.4365 12.2117 13.4574 11.9632 13.3329C11.7147 13.2086 10.9143 12.9462 9.96523 12.0998C9.22673 11.441 8.72815 10.6274 8.58314 10.3788C8.43838 10.1299 8.58191 10.0084 8.69214 9.87176C8.96109 9.53778 9.2304 9.18763 9.31319 9.02193C9.39611 8.8561 9.35459 8.71097 9.29237 8.58666C9.2304 8.46235 8.73353 7.23947 8.52656 6.74187C8.32472 6.25762 8.12007 6.32302 7.96747 6.31542C7.82271 6.3082 7.65701 6.30673 7.4913 6.30673C7.32572 6.30673 7.05653 6.36882 6.82873 6.61768C6.60105 6.86642 5.9593 7.46739 5.9593 8.69028C5.9593 9.91316 6.84955 11.0945 6.97374 11.2603C7.09792 11.4262 8.7257 13.9356 11.2179 15.0117C11.8106 15.2679 12.2733 15.4206 12.6343 15.5351C13.2295 15.7242 13.7709 15.6975 14.1991 15.6336C14.6765 15.5622 15.6689 15.0325 15.8761 14.4522C16.0831 13.8718 16.0831 13.3745 16.0209 13.2707C15.9589 13.1671 15.7932 13.105 15.5448 12.9806Z" fill="#EA5A1C"/>
</g>
<defs>
<clipPath id="clip0_10106_765">
<rect width="21.4035" height="21.4035" fill="white" transform="translate(0.245667 0.297852)"/>
</clipPath>
</defs>
</svg>
