<svg width="22" height="22" viewBox="0 0 22 22" fill="none" xmlns="http://www.w3.org/2000/svg">
<path d="M19.246 0.29834H2.85893C1.4759 0.29834 0.350708 1.42353 0.350708 2.80656V19.1936C0.350708 20.5767 1.4759 21.7018 2.85893 21.7018H19.246C20.629 21.7018 21.7542 20.5767 21.7542 19.1936V2.80656C21.7542 1.42353 20.629 0.29834 19.246 0.29834ZM20.0821 19.1936C20.0821 19.6546 19.707 20.0297 19.246 20.0297H14.4804V13.2157H17.0634L17.4902 10.6239H14.4804V8.8263C14.4804 8.11668 15.0249 7.57219 15.7345 7.57219H17.4484V4.98036H15.7345C13.6057 4.98036 11.8895 6.70476 11.8895 8.83357V10.6239H9.38031V13.2157H11.8895V20.0297H2.85893C2.39792 20.0297 2.02286 19.6546 2.02286 19.1936V2.80656C2.02286 2.34555 2.39792 1.97049 2.85893 1.97049H19.246C19.707 1.97049 20.0821 2.34555 20.0821 2.80656V19.1936Z" fill="#EA5A1C"/>
</svg>
