<svg xmlns="http://www.w3.org/2000/svg" xmlns:xlink="http://www.w3.org/1999/xlink" width="108.5" height="84.961" viewBox="0 0 108.5 84.961">
  <defs>
    <clipPath id="clip-path">
      <rect id="Ret칙ngulo_70" data-name="Ret칙ngulo 70" width="83" height="71" transform="translate(191 4680)" fill="#fff"/>
    </clipPath>
    <filter id="paper-plane" x="23.552" y="0" width="84.947" height="84.961" filterUnits="userSpaceOnUse">
      <feOffset dy="3" input="SourceAlpha"/>
      <feGaussianBlur stdDeviation="3" result="blur"/>
      <feFlood flood-opacity="0.161"/>
      <feComposite operator="in" in2="blur"/>
      <feComposite in="SourceGraphic"/>
    </filter>
  </defs>
  <g id="Grupo_188" data-name="Grupo 188" transform="translate(-269.5 -219.2)">
    <g id="Grupo_de_m치scara_1" data-name="Grupo de m치scara 1" transform="translate(78.5 -4455)" clip-path="url(#clip-path)" style="mix-blend-mode: normal;isolation: isolate">
      <path id="envelope-open" d="M71.61,23.82C70.93,23.258,55.434,10.8,52.027,8.088,48.827,5.53,43.355,0,37.066,0,30.81,0,25.391,5.461,22.1,8.088,18.562,10.9,3.127,23.319,2.536,23.8A6.95,6.95,0,0,0,0,29.173V67.182a6.95,6.95,0,0,0,6.95,6.95H67.182a6.95,6.95,0,0,0,6.95-6.95V29.176A6.95,6.95,0,0,0,71.61,23.82ZM67.182,66.313a.869.869,0,0,1-.869.869H7.819a.869.869,0,0,1-.869-.869V29.587a.868.868,0,0,1,.322-.675c2.3-1.855,15.752-12.677,19.165-15.39,2.63-2.1,7.212-6.572,10.629-6.572s8.087,4.542,10.629,6.572c3.413,2.713,16.868,13.537,19.165,15.393a.867.867,0,0,1,.322.675ZM62.55,39.136a1.737,1.737,0,0,1-.253,2.459c-4.2,3.371-8.582,6.891-10.27,8.233-3.287,2.627-8.706,8.088-14.962,8.088-6.291,0-11.769-5.536-14.962-8.088-1.633-1.3-6.044-4.838-10.269-8.233a1.737,1.737,0,0,1-.253-2.459l2.209-2.683a1.737,1.737,0,0,1,2.429-.25c4.144,3.33,8.48,6.81,10.216,8.191,2.541,2.03,7.2,6.572,10.629,6.572s8-4.471,10.629-6.572c1.737-1.381,6.073-4.861,10.217-8.19a1.737,1.737,0,0,1,2.429.25l2.209,2.682Z" transform="translate(195.434 4685.919)" fill="#898989"/>
    </g>
    <g transform="matrix(1, 0, 0, 1, 269.5, 219.2)" filter="url(#paper-plane)">
      <path id="paper-plane-2" data-name="paper-plane" d="M52.488.325,1.387,29.806a2.648,2.648,0,0,0,.243,4.763l11.72,4.917L45.024,11.571a.661.661,0,0,1,.948.915L19.413,44.845V53.72A2.645,2.645,0,0,0,24.1,55.462l7-8.522,13.737,5.755a2.653,2.653,0,0,0,3.638-2.007L56.413,3.06A2.646,2.646,0,0,0,52.488.325Z" transform="matrix(0.98, 0.21, -0.21, 0.98, 44.27, 6.03)" fill="#fff"/>
    </g>
  </g>
</svg>