<svg width="24" height="25" viewBox="0 0 24 25" fill="none" xmlns="http://www.w3.org/2000/svg">
<path d="M14 18.5V6.5C14 5.96957 13.7893 5.46086 13.4142 5.08579C13.0391 4.71071 12.5304 4.5 12 4.5H4C3.46957 4.5 2.96086 4.71071 2.58579 5.08579C2.21071 5.46086 2 5.96957 2 6.5V17.5C2 17.7652 2.10536 18.0196 2.29289 18.2071C2.48043 18.3946 2.73478 18.5 3 18.5H5M5 18.5C5 19.6046 5.89543 20.5 7 20.5C8.10457 20.5 9 19.6046 9 18.5M5 18.5C5 17.3954 5.89543 16.5 7 16.5C8.10457 16.5 9 17.3954 9 18.5M15 18.5H9M15 18.5C15 19.6046 15.8954 20.5 17 20.5C18.1046 20.5 19 19.6046 19 18.5M15 18.5C15 17.3954 15.8954 16.5 17 16.5C18.1046 16.5 19 17.3954 19 18.5M19 18.5H21C21.2652 18.5 21.5196 18.3946 21.7071 18.2071C21.8946 18.0196 22 17.7652 22 17.5V13.85C21.9996 13.6231 21.922 13.403 21.78 13.226L18.3 8.876C18.2065 8.75888 18.0878 8.66428 17.9528 8.5992C17.8178 8.53412 17.6699 8.50021 17.52 8.5H14" stroke="white" stroke-width="2" stroke-linecap="round" stroke-linejoin="round"/>
</svg>
